<?xml version="1.0" encoding="UTF-8" standalone="no"?>
<svg width="48px" height="50px" viewBox="0 0 48 50" version="1.1" xmlns="http://www.w3.org/2000/svg" xmlns:xlink="http://www.w3.org/1999/xlink" xmlns:sketch="http://www.bohemiancoding.com/sketch/ns">
    <!-- Generator: Sketch 3.3 (11970) - http://www.bohemiancoding.com/sketch -->
    <title>archive</title>
    <desc>Created with Sketch.</desc>
    <defs></defs>
    <g id="Page-1" stroke="none" stroke-width="1" fill="none" fill-rule="evenodd" sketch:type="MSPage">
        <g id="Icon-Set" sketch:type="MSArtboardGroup" transform="translate(-225.000000, -50.000000)" fill="#000000">
            <g id="archive" sketch:type="MSLayerGroup" transform="translate(225.000000, 50.000000)">
                <path d="M46.9368,31.6705361 L40.4616,16.8279297 C39.7464,15.1867725 37.7856,13.9017609 36,13.9017609 L12,13.9017609 C10.2144,13.9017609 8.2536,15.1867725 7.5384,16.8279297 L1.0632,31.6705361 C0.468,33.037365 -3.55271368e-15,35.2729002 -3.55271368e-15,36.7648613 L-3.55271368e-15,46.3904167 C-3.55271368e-15,48.3805003 1.6152,50 3.6,50 L44.4,50 C46.3848,50 48,48.3805003 48,46.3904167 L48,36.7648613 C48,35.2753066 47.5344,33.037365 46.9368,31.6705361 L46.9368,31.6705361 Z M9.7368,17.795298 C10.0752,17.0180344 11.1552,16.3105561 12,16.3105561 L36,16.3105561 C36.8448,16.3105561 37.9248,17.0180344 38.2632,17.795298 L44.7384,32.6379045 C44.8104,32.8039453 44.8824,32.99405 44.952,33.1985931 C44.772,33.1697164 44.5872,33.1552781 44.4,33.1552781 L30,33.1552781 C29.3376,33.1552781 28.8,33.6943092 28.8,34.3584725 L28.8,35.5616669 C28.8,38.2159138 26.6472,40.3744446 24,40.3744446 C21.3528,40.3744446 19.2,38.2159138 19.2,35.5616669 L19.2,34.3584725 C19.2,33.6943092 18.6624,33.1552781 18,33.1552781 L3.6,33.1552781 C3.4128,33.1552781 3.228,33.1697164 3.048,33.1985931 C3.1176,32.99405 3.1872,32.8039453 3.2616,32.6379045 L9.7368,17.795298 L9.7368,17.795298 Z M24.5853659,26.2829589 L24.5853659,18.3783825 C24.5853659,17.8254453 24.1339082,17.3772011 23.578786,17.3772011 L23.2504823,17.3772011 C22.6945636,17.3772011 22.2439024,17.8301733 22.2439024,18.3758928 L22.2439024,26.2918668 L22.2439024,26.2918668 L16.5771153,20.6250796 C16.1861296,20.234094 15.5499443,20.2363663 15.1574137,20.628897 L14.9252679,20.8610427 C14.532174,21.2541366 14.5338082,21.8931019 14.9196902,22.2789838 L22.5069034,29.8661971 C22.750506,30.1097997 23.0915267,30.2017415 23.4101802,30.1420888 C23.7288337,30.2017415 24.0698544,30.1097997 24.313457,29.8661971 L31.9006703,22.2789838 C32.2865523,21.8931019 32.2881864,21.2541366 31.8950925,20.8610427 L31.6629468,20.628897 C31.2704161,20.2363663 30.6342308,20.234094 30.2432452,20.6250796 L24.5853659,26.2829589 Z M45.6,46.3904167 C45.6,47.05458 45.0624,47.5936112 44.4,47.5936112 L3.6,47.5936112 C2.9376,47.5936112 2.4,47.05458 2.4,46.3904167 L2.4,36.7648613 C2.4,36.100698 2.9376,35.5616669 3.6,35.5616669 L16.8,35.5616669 C16.8,39.5418341 20.0304,42.7808335 24,42.7808335 C27.9696,42.7808335 31.2,39.5418341 31.2,35.5616669 L44.4,35.5616669 C45.0624,35.5616669 45.6,36.100698 45.6,36.7648613 L45.6,46.3904167 Z M23.578786,12.7454117 C24.1347047,12.7529447 24.5853659,12.30495 24.5853659,11.75787 L24.5853659,1.00118136 C24.5853659,0.448244164 24.1339082,1.51722877e-16 23.578786,1.51722877e-16 L23.2504823,1.51722877e-16 C22.6945636,1.51722877e-16 22.2439024,0.452972175 22.2439024,0.998691713 L22.2439024,11.7286316 C22.2439024,12.2801938 22.6953601,12.7334408 23.2504823,12.740963 L23.578786,12.7454117 Z" id="Shape" sketch:type="MSShapeGroup"></path>
            </g>
        </g>
    </g>
</svg>