<?xml version="1.0" encoding="UTF-8" standalone="no"?>
<svg width="50px" height="44px" viewBox="0 0 50 44" version="1.1" xmlns="http://www.w3.org/2000/svg" xmlns:xlink="http://www.w3.org/1999/xlink" xmlns:sketch="http://www.bohemiancoding.com/sketch/ns">
    <!-- Generator: Sketch 3.4 (15575) - http://www.bohemiancoding.com/sketch -->
    <title>blacktie-light-users</title>
    <desc>Created with Sketch.</desc>
    <defs></defs>
    <g id="Page-1" stroke="none" stroke-width="1" fill="none" fill-rule="evenodd" sketch:type="MSPage">
        <g id="Icon-Set" sketch:type="MSArtboardGroup" transform="translate(-25.000000, -1953.000000)" fill="#000000">
            <g id="blacktie-light-users" sketch:type="MSLayerGroup" transform="translate(25.000000, 1953.000000)">
                <path d="M18.5747389,37.3063818 L27.8679672,34.6115833 L28.2974304,34.48705 L28.2974304,34.0398954 L28.2974304,30.9902493 L28.2974304,30.6519362 L28.0067579,30.4788315 C27.8171273,30.3659004 27.4828851,30.1627609 27.052466,29.8941502 C26.3350703,29.4464468 25.6178492,28.9824792 24.9497214,28.5273913 C24.6833339,28.3459444 24.4297405,28.1692335 24.1908388,27.9982559 C23.4066666,27.4370381 22.8031988,26.9535891 22.4343778,26.5818595 C21.2238925,25.1050177 20.6336803,23.2856503 20.1452552,20.549225 C19.8960535,17.4954077 20.8144933,14.1818942 22.4639169,12.2560844 C23.9800796,10.2784639 27.4238213,8.1627343 29.3945577,7.92298241 L30.289517,7.81410525 L29.8378107,7.03386948 C29.7295073,6.84679624 29.4040763,6.26260859 29.3667126,6.1970135 C29.2066899,5.91608046 29.0728094,5.69839212 28.9243971,5.48424614 C28.6942833,5.15221223 28.4386288,4.84551228 28.1230889,4.52997234 C25.6179799,2.02486332 22.5817841,0.765306122 19.047619,0.765306122 C15.513454,0.765306122 12.4772582,2.02486332 9.97214921,4.52997234 C7.46704019,7.03508137 6.20748299,10.0712771 6.20748299,13.6054422 C6.20748299,16.3989036 6.97608431,18.8703544 8.51176666,21.0017755 C10.0416623,23.1251652 12.1253644,24.7011297 14.7497094,25.7246243 L14.3707483,25.170068 L14.3707483,28.2312925 L14.7952416,27.6610692 L1.41655676,31.6671161 L0.89648285,31.8228444 L1.00381196,32.355018 L1.91084144,36.8523725 L2.00715597,37.329932 L2.49433107,37.329932 L18.408964,37.329932 L18.5747389,37.3063818 Z M18.408964,36.1394558 L2.49433107,36.1394558 L3.07782069,36.6170153 L2.17079121,32.1196608 L1.75804641,32.8075627 L15.1367312,28.8015158 L15.5612245,28.6744076 L15.5612245,28.2312925 L15.5612245,25.170068 L15.5612245,24.7633066 L15.1822633,24.6155117 C12.7675305,23.6737659 10.8704209,22.2389267 9.47765133,20.3058586 C8.09066852,18.3808221 7.39795918,16.1534033 7.39795918,13.6054422 C7.39795918,10.3872429 8.53192806,7.65378107 10.813943,5.37176613 C13.0959579,3.08975119 15.8294198,1.95578231 19.047619,1.95578231 C22.2658183,1.95578231 24.9992802,3.08975119 27.2812951,5.37176613 C27.546234,5.63670506 27.7561988,5.88859265 27.9459336,6.16236329 C28.0715513,6.34361848 28.1881756,6.53324844 28.332281,6.78623749 C28.3649617,6.84361124 28.6932068,7.43285035 28.8075361,7.63033219 L29.2507891,6.74121926 C26.9477472,7.02139809 23.2220977,9.31032321 21.5393163,11.5068886 C19.6905686,13.6640626 18.6848095,17.2926033 18.9660542,20.7027412 C19.4961412,23.6876439 20.1339823,25.6538304 21.5519866,27.379057 C22.0156862,27.8501051 22.6638964,28.3693981 23.4979938,28.9663465 C23.7447255,29.1429279 24.0058253,29.3248695 24.2795386,29.5113062 C24.9622193,29.9763067 25.692293,30.4485886 26.4221921,30.904095 C26.8601499,31.1774103 27.2013119,31.3847554 27.3976267,31.5016671 L27.1069542,30.9902493 L27.1069542,34.0398954 L27.5364174,33.4682075 L18.2431891,36.163006 L18.408964,36.1394558 Z" id="Shape" sketch:type="MSShapeGroup"></path>
                <path d="M48.8828094,42.6346854 L49.7898388,38.1373309 L49.8971679,37.6051574 L49.377094,37.449429 L35.9984092,33.4433822 L36.4229025,34.0136054 L36.4229025,30.952381 L36.0439413,31.5069372 C38.6682864,30.4834427 40.7519885,28.9074781 42.2818841,26.7840885 C43.8175665,24.6526673 44.5861678,22.1812165 44.5861678,19.3877551 C44.5861678,15.8535901 43.3266106,12.8173943 40.8215016,10.3122853 C38.3163926,7.80717624 35.2801968,6.54761905 31.7460317,6.54761905 C28.2118667,6.54761905 25.1756709,7.80717624 22.6705619,10.3122853 C20.1654529,12.8173943 18.9058957,15.8535901 18.9058957,19.3877551 C18.9058957,22.1812165 19.674497,24.6526673 21.2101794,26.7840885 C22.740075,28.9074781 24.8237771,30.4834427 27.4481221,31.5069372 L27.069161,30.952381 L27.069161,34.0136054 L27.4936543,33.4433822 L14.1149695,37.449429 L13.5948955,37.6051574 L13.7022247,38.1373309 L14.6092541,42.6346854 L14.7055687,43.1122449 L15.1927438,43.1122449 L48.2993197,43.1122449 L48.7864948,43.1122449 L48.8828094,42.6346854 L48.8828094,42.6346854 Z M47.7158301,42.3993282 L48.2993197,41.9217687 L15.1927438,41.9217687 L15.7762334,42.3993282 L14.8692039,37.9019737 L14.4564591,38.5898756 L27.8351439,34.5838287 L28.2596372,34.4567206 L28.2596372,34.0136054 L28.2596372,30.952381 L28.2596372,30.5456195 L27.880676,30.3978247 C25.4659432,29.4560789 23.5688336,28.0212396 22.176064,26.0881716 C20.7890812,24.1631351 20.0963719,21.9357162 20.0963719,19.3877551 C20.0963719,16.1695558 21.2303408,13.436094 23.5123557,11.1540791 C25.7943706,8.87206412 28.5278325,7.73809524 31.7460317,7.73809524 C34.964231,7.73809524 37.6976929,8.87206412 39.9797078,11.1540791 C42.2617227,13.436094 43.3956916,16.1695558 43.3956916,19.3877551 C43.3956916,21.9357162 42.7029823,24.1631351 41.3159995,26.0881716 C39.9232299,28.0212396 38.0261203,29.4560789 35.6113874,30.3978247 L35.2324263,30.5456195 L35.2324263,30.952381 L35.2324263,34.0136054 L35.2324263,34.4567206 L35.6569196,34.5838287 L49.0356044,38.5898756 L48.6228596,37.9019737 L47.7158301,42.3993282 L47.7158301,42.3993282 Z" id="Shape" sketch:type="MSShapeGroup"></path>
            </g>
        </g>
    </g>
</svg>