<?xml version="1.0" encoding="UTF-8" standalone="no"?>
<svg width="50px" height="50px" viewBox="0 0 50 50" version="1.1" xmlns="http://www.w3.org/2000/svg" xmlns:xlink="http://www.w3.org/1999/xlink" xmlns:sketch="http://www.bohemiancoding.com/sketch/ns">
    <!-- Generator: Sketch 3.4 (15575) - http://www.bohemiancoding.com/sketch -->
    <title>dice-light</title>
    <desc>Created with Sketch.</desc>
    <defs></defs>
    <g id="Page-1" stroke="none" stroke-width="1" fill="none" fill-rule="evenodd" sketch:type="MSPage">
        <g id="Icon-Set" sketch:type="MSArtboardGroup" transform="translate(-125.000000, -1950.000000)" fill="#000000">
            <g id="dice-light" sketch:type="MSLayerGroup" transform="translate(125.000000, 1950.000000)">
                <path d="M36.7647059,17.6470588 C34.3323529,17.6470588 32.3529412,15.6676471 32.3529412,13.2352941 C32.3529412,10.8029412 34.3323529,8.82352941 36.7647059,8.82352941 C39.1970588,8.82352941 41.1764706,10.8029412 41.1764706,13.2352941 C41.1764706,15.6676471 39.1970588,17.6470588 36.7647059,17.6470588 L36.7647059,17.6470588 Z M36.7599933,10.7600098 C35.3965533,10.7600098 34.2899933,11.8665698 34.2899933,13.2300098 C34.2899933,14.5934498 35.3965533,15.7000098 36.7599933,15.7000098 C38.1234333,15.7000098 39.2299933,14.5934498 39.2299933,13.2300098 C39.2299933,11.8665698 38.1234333,10.7600098 36.7599933,10.7600098 L36.7599933,10.7600098 Z" id="Shape" sketch:type="MSShapeGroup"></path>
                <path d="M36.7647059,29.4117647 C34.3323529,29.4117647 32.3529412,27.4323529 32.3529412,25 C32.3529412,22.5676471 34.3323529,20.5882353 36.7647059,20.5882353 C39.1970588,20.5882353 41.1764706,22.5676471 41.1764706,25 C41.1764706,27.4323529 39.1970588,29.4117647 36.7647059,29.4117647 L36.7647059,29.4117647 Z M36.7599933,22.5300293 C35.3965533,22.5300293 34.2899933,23.6370321 34.2899933,25.0010177 C34.2899933,26.3650033 35.3965533,27.472006 36.7599933,27.472006 C38.1234333,27.472006 39.2299933,26.3650033 39.2299933,25.0010177 C39.2299933,23.6370321 38.1234333,22.5300293 36.7599933,22.5300293 L36.7599933,22.5300293 Z" id="Shape" sketch:type="MSShapeGroup"></path>
                <path d="M36.762941,41.1729409 C34.3315611,41.1729409 32.3529412,39.1943209 32.3529412,36.762941 C32.3529412,34.3315611 34.3315611,32.3529412 36.762941,32.3529412 C39.1943209,32.3529412 41.1729409,34.3315611 41.1729409,36.762941 C41.1729409,39.1943209 39.1943209,41.1729409 36.762941,41.1729409 L36.762941,41.1729409 Z M36.7599933,34.2900391 C35.3965533,34.2900391 34.2899933,35.3965991 34.2899933,36.7600391 C34.2899933,38.1234791 35.3965533,39.2300391 36.7599933,39.2300391 C38.1234333,39.2300391 39.2299933,38.1234791 39.2299933,36.7600391 C39.2299933,35.3965991 38.1234333,34.2900391 36.7599933,34.2900391 L36.7599933,34.2900391 Z" id="Shape" sketch:type="MSShapeGroup"></path>
                <path d="M13.231772,17.6470588 C10.7994191,17.6470588 8.82000732,15.6676471 8.82000732,13.2352941 C8.82000732,10.8029412 10.7994191,8.82352941 13.231772,8.82352941 C15.664125,8.82352941 17.6435367,10.8029412 17.6435367,13.2352941 C17.6435367,15.6676471 15.664125,17.6470588 13.231772,17.6470588 L13.231772,17.6470588 Z M13.2270595,10.7600098 C11.8636194,10.7600098 10.7570594,11.8665698 10.7570594,13.2300098 C10.7570594,14.5934498 11.8636194,15.7000098 13.2270595,15.7000098 C14.5904995,15.7000098 15.6970595,14.5934498 15.6970595,13.2300098 C15.6970595,11.8665698 14.5904995,10.7600098 13.2270595,10.7600098 L13.2270595,10.7600098 Z" id="Shape-Copy-4" sketch:type="MSShapeGroup"></path>
                <path d="M13.231772,29.4117647 C10.7994191,29.4117647 8.82000732,27.4323529 8.82000732,25 C8.82000732,22.5676471 10.7994191,20.5882353 13.231772,20.5882353 C15.664125,20.5882353 17.6435367,22.5676471 17.6435367,25 C17.6435367,27.4323529 15.664125,29.4117647 13.231772,29.4117647 L13.231772,29.4117647 Z M13.2270595,22.5300293 C11.8636194,22.5300293 10.7570594,23.6370321 10.7570594,25.0010177 C10.7570594,26.3650033 11.8636194,27.472006 13.2270595,27.472006 C14.5904995,27.472006 15.6970595,26.3650033 15.6970595,25.0010177 C15.6970595,23.6370321 14.5904995,22.5300293 13.2270595,22.5300293 L13.2270595,22.5300293 Z" id="Shape-Copy-3" sketch:type="MSShapeGroup"></path>
                <path d="M13.2300072,41.1729409 C10.7986273,41.1729409 8.82000732,39.1943209 8.82000732,36.762941 C8.82000732,34.3315611 10.7986273,32.3529412 13.2300072,32.3529412 C15.6613871,32.3529412 17.640007,34.3315611 17.640007,36.762941 C17.640007,39.1943209 15.6613871,41.1729409 13.2300072,41.1729409 L13.2300072,41.1729409 Z M13.2270595,34.2900391 C11.8636194,34.2900391 10.7570594,35.3965991 10.7570594,36.7600391 C10.7570594,38.1234791 11.8636194,39.2300391 13.2270595,39.2300391 C14.5904995,39.2300391 15.6970595,38.1234791 15.6970595,36.7600391 C15.6970595,35.3965991 14.5904995,34.2900391 13.2270595,34.2900391 L13.2270595,34.2900391 Z" id="Shape-Copy-2" sketch:type="MSShapeGroup"></path>
                <path d="M42.6470588,50 L7.35294118,50 C3.3,50 0,46.7 0,42.6470588 L0,7.35294118 C0,3.3 3.3,0 7.35294118,0 L42.6470588,0 C46.7,0 50,3.3 50,7.35294118 L50,42.6470588 C50,46.7 46.7,50 42.6470588,50 L42.6470588,50 Z M6.55200233,1.93994141 C4.00925306,1.93994141 1.94000244,4.00919202 1.94000244,6.5519413 L1.94000244,43.4479404 C1.94000244,45.9906897 4.00925306,48.0599403 6.55200233,48.0599403 L43.4480015,48.0599403 C45.9907508,48.0599403 48.0600014,45.9906897 48.0600014,43.4479404 L48.0600014,6.5519413 C48.0600014,4.00919202 45.9907508,1.93994141 43.4480015,1.93994141 L6.55200233,1.93994141 L6.55200233,1.93994141 Z" id="Shape" sketch:type="MSShapeGroup"></path>
            </g>
        </g>
    </g>
</svg>