<?xml version="1.0" encoding="UTF-8" standalone="no"?>
<svg width="50px" height="34px" viewBox="0 0 50 34" version="1.1" xmlns="http://www.w3.org/2000/svg" xmlns:xlink="http://www.w3.org/1999/xlink" xmlns:sketch="http://www.bohemiancoding.com/sketch/ns">
    <!-- Generator: Sketch 3.4 (15575) - http://www.bohemiancoding.com/sketch -->
    <title>education</title>
    <desc>Created with Sketch.</desc>
    <defs></defs>
    <g id="Page-1" stroke="none" stroke-width="1" fill="none" fill-rule="evenodd" sketch:type="MSPage">
        <g id="Icon-Set" sketch:type="MSArtboardGroup" transform="translate(-25.000000, -650.000000)" fill="#000000">
            <g id="education" sketch:type="MSLayerGroup" transform="translate(25.000000, 650.000000)">
                <path d="M10.0012337,16.6463706 C10.0112311,16.6514946 10.0212286,16.6566186 10.0312261,16.6617426 C15.1835848,19.3024803 25.0004272,24.3554077 25.0004272,24.3554077 L45.8544312,13.645874 L24.9084473,3.08752441 L4.20050953,13.6837873 C4.20050953,13.6837873 5.39698459,14.2867154 6.89993835,15.0568659 L20.4599862,12.535651 C20.8307014,11.4553679 22.3080397,10.6481481 24.0740741,10.6481481 C26.1195731,10.6481481 27.7777778,11.7310573 27.7777778,13.0668934 C27.7777778,14.4027296 26.1195731,15.4856387 24.0740741,15.4856387 C22.8980264,15.4856387 21.8500031,15.1276715 21.1715457,14.5694784 L10.0012337,16.6463706 Z M4.6465035,21.2998331 L4.62999916,21.2999878 L4.62962963,16.5483435 L4.62962963,16.2863138 C3.5396761,15.7276801 1.40560643,14.6339057 1.40560643,14.6339057 C0.632655323,14.2377451 0.633628362,13.1326454 1.40727591,12.7378466 L24.4942659,0.95636439 C24.7980383,0.801346834 25.1576829,0.801213045 25.4615705,0.95600455 L48.5961579,12.7400898 C49.3704527,13.1344929 49.3717992,14.2402547 48.5984672,14.6365424 C48.5984672,14.6365424 43.4999818,17.2492204 39.6717718,19.2109559 L39.7641798,26.0822209 L39.7664551,26.2514047 L39.7161758,26.4129607 C38.5876387,30.0391422 33.3672226,33.0641171 24.9160239,33.2946977 C20.3664203,33.4188281 16.6145031,32.4013297 13.7949749,30.5886899 C11.5950398,29.1743788 10.0715027,27.2751001 10.1289725,26.1288983 L9.91204132,18.9937076 C8.81497389,18.4314278 7.7528206,17.8870425 6.76686012,17.3817083 C6.76436932,17.3804317 6.761879,17.3791553 6.75938916,17.3778792 L6.76000023,21.2800293 L4.74141187,21.2989438 C5.254397,21.3014411 6.34036768,21.2875252 6.77227783,21.2846069 C7.12198182,22.5515211 7.79026877,24.6837471 7.88827082,25.0396854 L9.43264636,30.6487762 C9.69173817,31.5897841 9.27798388,32.5864727 8.42863309,33.067334 C8.24797518,33.1696137 7.99127963,33.2943936 7.67116786,33.4156968 C7.12129661,33.6240651 6.55470421,33.7557129 5.95781103,33.7636749 C5.31433074,33.7719858 4.72030078,33.6346718 4.17472727,33.4056701 C3.85698595,33.2722998 3.60603466,33.1300855 3.42389324,33.0049626 C2.71318191,32.5167361 2.36700268,31.6481327 2.54706193,30.8048923 L3.75236823,25.1602893 C3.83484253,24.7740517 4.36202926,22.6236745 4.6465035,21.2998331 Z M37.556527,20.2948961 L37.6347428,26.1108585 L37.6827468,25.7801187 C36.8611459,28.4200623 32.4814842,30.9578612 24.8579412,31.1658603 C20.731112,31.2784558 17.4013936,30.3754553 14.946627,28.7973162 C14.0225024,28.2032079 13.2804685,27.5433148 12.7722682,26.9097798 C12.5688531,26.6561976 12.4164022,26.4222782 12.323553,26.2324254 C12.2740798,26.1312655 12.2600033,26.0817354 12.2569195,26.1468851 L12.0757732,20.1026848 C12.0968493,20.1134869 12.1179282,20.1242905 12.1390098,20.1350954 C18.2197436,23.2516531 24.516953,26.479161 24.516953,26.479161 C24.8218542,26.635432 25.1833242,26.6354446 25.4882363,26.4791948 C25.4882363,26.4791948 33.5243454,22.3611552 37.556527,20.2948961 Z M5.83504607,25.6050088 L4.62973976,31.2496118 C4.62973976,31.2496118 5.20328697,31.6436127 5.92857246,31.6342456 C6.65385796,31.6248786 7.37942162,31.2140996 7.37942162,31.2140996 L5.83504607,25.6050088 Z" id="Shape" sketch:type="MSShapeGroup"></path>
            </g>
        </g>
    </g>
</svg>