<?xml version="1.0" encoding="UTF-8" standalone="no"?>
<svg width="50px" height="34px" viewBox="0 0 50 34" version="1.1" xmlns="http://www.w3.org/2000/svg" xmlns:xlink="http://www.w3.org/1999/xlink" xmlns:sketch="http://www.bohemiancoding.com/sketch/ns">
    <!-- Generator: Sketch 3.4 (15575) - http://www.bohemiancoding.com/sketch -->
    <title>education-light</title>
    <desc>Created with Sketch.</desc>
    <defs></defs>
    <g id="Page-1" stroke="none" stroke-width="1" fill="none" fill-rule="evenodd" sketch:type="MSPage">
        <g id="Icon-Set" sketch:type="MSArtboardGroup" transform="translate(-125.000000, -650.000000)" fill="#000000">
            <g id="education-light" sketch:type="MSLayerGroup" transform="translate(125.000000, 650.000000)">
                <path d="M7.82444319,16.2432408 L25.0004272,25.3554077 L47.1999969,13.645874 L24.9084473,2.08752441 L3,13.6837873 L6.43193122,15.5044882 L22.8707577,12.991885 C23.0754056,12.3348911 23.9650236,11.8404696 25.0314677,11.8404696 C26.2492556,11.8404696 27.2364677,12.4851795 27.2364677,13.2804695 C27.2364677,14.0757596 26.2492556,14.7204695 25.0314677,14.7204695 C24.2567411,14.7204695 23.5753329,14.4595431 23.182056,14.064915 L7.82444319,16.2432408 Z M5.96607997,21.2940518 L6.76000023,21.2800293 L6.76000024,16.8727242 C7.75322815,17.4053629 8.82214194,17.9783716 9.9267079,18.5701545 L10.1289725,26.1288983 C10.0715027,27.2751001 11.5950398,29.1743788 13.7949749,30.5886899 C16.6145031,32.4013297 20.3664203,33.4188281 24.9160239,33.2946977 C33.3672226,33.0641171 38.5876387,30.0391422 39.7161758,26.4129607 L39.7664551,26.2514047 L39.7641798,26.0822209 L39.6682467,18.9488306 C44.7402128,16.2504246 49.1800303,13.8360171 49.1775478,13.6723754 C49.1719323,13.3022152 25.1649439,0.845058117 25.0097549,0.840471175 C24.8333175,0.835256188 0.826467807,13.6881703 0.826467807,13.6881703 C0.826467807,13.6881703 2.80439508,14.7508965 5.62967937,16.2664738 L5.62999868,21.2924276 C5.62836644,21.29241 5.62674709,21.2923922 5.62514079,21.2923743 C5.6067714,21.3778748 5.5866241,21.4694305 5.56526841,21.5648952 C5.39794427,22.3128714 5.15643815,23.300813 5.11468233,23.4963609 L4.4268445,26.717593 C4.32408924,27.198809 4.52164497,27.694499 4.92722996,27.9731175 C5.03117345,28.044522 5.17438501,28.1256801 5.35571195,28.2017911 C5.66705695,28.3324766 6.00605483,28.4108383 6.37327276,28.4060954 C6.7139046,28.4015517 7.03724456,28.3264236 7.35104217,28.2075131 C7.53372186,28.1382885 7.68021152,28.0670798 7.78330843,28.0087113 C8.26801144,27.7342959 8.50413055,27.1655109 8.35627341,26.6285016 L7.47493734,23.4275352 C7.41901005,23.2244103 6.96077313,22.0153702 6.76120591,21.2923743 C6.58344646,21.2935754 6.24668832,21.2944898 5.96607997,21.2940518 Z M38.5464399,19.544842 L38.6347428,26.1108585 L38.6827468,25.7801187 C37.8611459,28.4200623 32.4814842,31.9578612 24.8579412,32.1658603 C20.731112,32.2784558 17.4013936,31.3754553 14.946627,29.7973162 C14.0225024,29.2032079 12.2804685,27.5433148 11.7722682,26.9097798 C11.5688531,26.6561976 11.4164022,26.4222782 11.323553,26.2324254 C11.2740798,26.1312655 11.2600033,26.0817354 11.2569195,26.1468851 L11.0478413,19.1706979 C17.6155211,22.6880252 24.9423757,26.5992443 25.0410928,26.5956788 C25.1238104,26.5926911 32.1116322,22.9591401 38.5464399,19.544842 Z M6.19586589,22 L5.1000061,27.132051 C5.1000061,27.132051 5.62147298,27.4902751 6.28089972,27.4817586 C6.94032646,27.4732421 7.6000061,27.0997635 7.6000061,27.0997635 L6.19586589,22 Z" id="Shape" sketch:type="MSShapeGroup"></path>
            </g>
        </g>
    </g>
</svg>