<?xml version="1.0" encoding="UTF-8" standalone="no"?>
<svg width="50px" height="50px" viewBox="0 0 50 50" version="1.1" xmlns="http://www.w3.org/2000/svg" xmlns:xlink="http://www.w3.org/1999/xlink" xmlns:sketch="http://www.bohemiancoding.com/sketch/ns">
    <!-- Generator: Sketch 3.3 (11970) - http://www.bohemiancoding.com/sketch -->
    <title>gear</title>
    <desc>Created with Sketch.</desc>
    <defs></defs>
    <g id="Page-1" stroke="none" stroke-width="1" fill="none" fill-rule="evenodd" sketch:type="MSPage">
        <g id="Icon-Set" sketch:type="MSArtboardGroup" transform="translate(-425.000000, -750.000000)" fill="#000000">
            <g id="gear" sketch:type="MSLayerGroup" transform="translate(425.000000, 750.000000)">
                <path d="M25.1041667,12.4675325 C21.7578125,12.4675325 18.6197917,13.7662338 16.2630208,16.1168831 C13.90625,18.4675325 12.6041667,21.5974026 12.6041667,24.9350649 C12.6041667,28.2727273 13.90625,31.3896104 16.2630208,33.7532468 C18.6197917,36.1038961 21.7708333,37.4025974 25.1041667,37.4025974 C28.4505208,37.4025974 31.5885417,36.1038961 33.9453125,33.7532468 C36.3020833,31.4025974 37.6041667,28.2727273 37.6041667,24.9350649 C37.6041667,21.5974026 36.3020833,18.4805195 33.9453125,16.1168831 C31.5885417,13.7662338 28.4505208,12.4675325 25.1041667,12.4675325 L25.1041667,12.4675325 Z M25.1041667,35.3246753 C19.3359375,35.3246753 14.6875,30.6623377 14.6875,24.9350649 C14.6875,19.2077922 19.3359375,14.5454545 25.1041667,14.5454545 C30.8723958,14.5454545 35.5208333,19.2077922 35.5208333,24.9350649 C35.5208333,30.6623377 30.8723958,35.3246753 25.1041667,35.3246753 L25.1041667,35.3246753 Z" id="Shape" sketch:type="MSShapeGroup"></path>
                <path d="M46.9401042,19.7402597 L44.9609375,19.7402597 C43.3463542,19.7402597 41.9921875,18.3896104 41.9921875,16.7272727 C41.9921875,15.8961039 42.34375,15.1558442 42.96875,14.5974026 L44.2447917,13.3506494 C45.5078125,12.1038961 45.5078125,10.0779221 44.2447917,8.81818182 L41.3411458,5.94805195 C40.7682292,5.37662338 39.921875,5.03896104 39.0625,5.03896104 C38.203125,5.03896104 37.3697917,5.37662338 36.7838542,5.94805195 L35.5598958,7.16883117 C34.9739583,7.81818182 34.1666667,8.16883117 33.3203125,8.16883117 C31.6536458,8.16883117 30.234375,6.81818182 30.234375,5.22077922 L30.234375,3.25974026 C30.234375,1.50649351 28.8671875,0 27.109375,0 L23.1510417,0 C21.3541667,9.22782774e-16 19.921875,1.49350649 19.921875,3.25974026 L19.921875,5.23376623 C19.921875,6.83116883 18.5416667,8.18181818 16.875,8.18181818 C16.0416667,8.18181818 15.2864583,7.83116883 14.7135417,7.22077922 L13.4505208,5.97402597 C12.8776042,5.38961039 12.03125,5.06493506 11.171875,5.06493506 C10.3125,5.06493506 9.47916667,5.4025974 8.89322917,5.97402597 L5.98958333,8.83116883 C4.73958333,10.0779221 4.73958333,12.1168831 5.98958333,13.3506494 L7.21354167,14.5714286 C7.86458333,15.1558442 8.22916667,15.8961039 8.22916667,16.7402597 C8.22916667,18.4025974 6.875,19.7532468 5.26041667,19.7532468 L3.28125,19.7532468 C1.49739583,19.7402597 0,21.1948052 0,22.961039 L0,24.9350649 L0,26.9090909 C0,28.6623377 1.49739583,30.1298701 3.28125,30.1298701 L5.26041667,30.1298701 C6.875,30.1298701 8.22916667,31.4805195 8.22916667,33.1428571 C8.22916667,33.974026 7.86458333,34.7402597 7.21354167,35.3246753 L5.98958333,36.5194805 C4.73958333,37.7662338 4.73958333,39.7922078 5.98958333,41.038961 L8.89322917,43.9220779 C9.46614583,44.5064935 10.3125,44.8311688 11.171875,44.8311688 C12.03125,44.8311688 12.8645833,44.4935065 13.4505208,43.9220779 L14.7135417,42.6753247 C15.2604167,42.0649351 16.0286458,41.7142857 16.8619792,41.7142857 C18.5286458,41.7142857 19.9088542,43.0649351 19.9088542,44.6623377 L19.9088542,46.6363636 C19.9088542,48.3896104 21.3411458,49.8961039 23.125,49.8961039 L27.0833333,49.8961039 C28.8541667,49.8961039 30.3255208,48.4025974 30.3255208,46.6363636 L30.3255208,44.6623377 C30.3255208,43.0649351 31.6927083,41.7142857 33.359375,41.7142857 C34.1927083,41.7142857 34.9609375,42.0779221 35.5598958,42.7142857 L36.7838542,43.9350649 C37.3697917,44.5064935 38.203125,44.8441558 39.0625,44.8441558 C39.921875,44.8441558 40.7552083,44.5064935 41.3411458,43.9350649 L44.2447917,41.0519481 C45.4947917,39.8051948 45.4947917,37.7662338 44.2447917,36.5194805 L42.96875,35.2727273 C42.34375,34.7142857 41.9921875,33.9220779 41.9921875,33.1038961 C41.9921875,31.4415584 43.3463542,30.038961 44.9609375,30.038961 L46.9401042,30.038961 C48.7109375,30.038961 49.9739583,28.7012987 49.9739583,26.9350649 L49.9739583,24.9350649 L49.9739583,22.961039 C49.9739583,21.1948052 48.7109375,19.7402597 46.9401042,19.7402597 L46.9401042,19.7402597 Z M47.9166667,24.9350649 L47.9166667,26.8961039 C47.9166667,27.4415584 47.6171875,27.9220779 46.9661458,27.9220779 L44.9869792,27.9220779 C43.6458333,27.9220779 42.3697917,28.4935065 41.40625,29.4805195 C40.4557292,30.4545455 39.9348958,31.7402597 39.9348958,33.0909091 C39.9348958,34.4935065 40.5078125,35.7922078 41.5625,36.7532468 L42.7994792,37.974026 C43.2291667,38.4155844 43.2291667,39.1428571 42.7994792,39.5714286 L39.8958333,42.4545455 C39.6875,42.6493506 39.3880208,42.7662338 39.0755208,42.7662338 C38.7630208,42.7662338 38.4505208,42.6493506 38.2552083,42.4545455 L37.0703125,41.2727273 C36.0677083,40.2207792 34.7526042,39.6363636 33.359375,39.6363636 C32.0052083,39.6363636 30.7552083,40.1558442 29.7786458,41.0909091 C28.7890625,42.0519481 28.2682292,43.3116883 28.2682292,44.6623377 L28.2682292,46.6363636 C28.2682292,47.2727273 27.7083333,47.8181818 27.109375,47.8181818 L23.1510417,47.8181818 C22.5520833,47.8181818 22.0182292,47.2727273 22.0182292,46.6363636 L22.0182292,44.6623377 C22.0182292,43.3246753 21.484375,42.0519481 20.4947917,41.0909091 C19.5182292,40.1558442 18.2421875,39.6363636 16.9010417,39.6363636 C15.5208333,39.6363636 14.1927083,40.2207792 13.2421875,41.2467532 L12.03125,42.4545455 C11.8229167,42.6493506 11.5234375,42.7662338 11.2109375,42.7662338 C10.8984375,42.7662338 10.5859375,42.6623377 10.4166667,42.4805195 L10.4036458,42.4675325 L10.390625,42.4545455 L7.48697917,39.5714286 C7.05729167,39.1428571 7.05729167,38.4285714 7.48697917,37.987013 L8.671875,36.8181818 C9.73958333,35.8311688 10.3255208,34.5194805 10.3255208,33.1168831 C10.3255208,31.7662338 9.8046875,30.5324675 8.85416667,29.5584416 C7.890625,28.5714286 6.61458333,28.0649351 5.2734375,28.0649351 L3.28125,28.0649351 C2.63020833,28.0649351 2.08333333,27.5064935 2.08333333,26.9220779 L2.08333333,24.9350649 L2.08333333,22.961039 C2.08333333,22.3766234 2.63020833,21.8181818 3.28125,21.8181818 L5.26041667,21.8181818 C6.6015625,21.8181818 7.87760417,21.3116883 8.84114583,20.3246753 C9.79166667,19.3506494 10.3125,18.0909091 10.3125,16.7532468 C10.3125,15.3506494 9.7265625,14.038961 8.65885417,13.0649351 L7.4609375,11.8831169 C7.17447917,11.5974026 7.13541667,11.2727273 7.13541667,11.0909091 C7.13541667,10.9220779 7.17447917,10.5844156 7.4609375,10.2987013 L10.3515625,7.42857143 C10.5598958,7.23376623 10.859375,7.11688312 11.171875,7.11688312 C11.484375,7.11688312 11.796875,7.22077922 11.9661458,7.4025974 L11.9791667,7.41558442 L11.9921875,7.42857143 L13.2161458,8.64935065 C14.1796875,9.68831169 15.4817708,10.2597403 16.875,10.2597403 C18.2291667,10.2597403 19.4921875,9.74025974 20.46875,8.80519481 C21.4583333,7.84415584 22.0052083,6.58441558 22.0052083,5.23376623 L22.0052083,3.25974026 C22.0052083,2.62337662 22.5260417,2.07792208 23.1119792,2.07792208 L27.0833333,2.07792208 C27.6692708,2.07792208 28.125,2.62337662 28.125,3.25974026 L28.125,5.23376623 C28.125,6.57142857 28.6979167,7.84415584 29.6875,8.80519481 C30.6640625,9.74025974 31.953125,10.2597403 33.3072917,10.2597403 C34.7135417,10.2597403 36.0416667,9.67532468 37.03125,8.62337662 L38.2161458,7.44155844 C38.4244792,7.24675325 38.7239583,7.12987013 39.0364583,7.12987013 C39.3489583,7.12987013 39.6614583,7.24675325 39.8567708,7.42857143 L42.7604167,10.2987013 C42.96875,10.5064935 43.0989583,10.7922078 43.0989583,11.0909091 C43.0989583,11.3896104 42.9817708,11.6753247 42.7734375,11.8831169 L41.5364583,13.1038961 C40.4947917,14.0649351 39.9088542,15.3636364 39.9088542,16.7662338 C39.9088542,18.1168831 40.4296875,19.3506494 41.3802083,20.3246753 C42.34375,21.3116883 43.6197917,21.8181818 44.9609375,21.8181818 L46.9401042,21.8181818 C47.6432292,21.8181818 47.9036458,22.4675325 47.9166667,22.987013 L47.9166667,24.9350649 L47.9166667,24.9350649 Z" id="Shape" sketch:type="MSShapeGroup"></path>
            </g>
        </g>
    </g>
</svg>