<?xml version="1.0" encoding="UTF-8" standalone="no"?>
<svg width="50px" height="50px" viewBox="0 0 50 50" version="1.1" xmlns="http://www.w3.org/2000/svg" xmlns:xlink="http://www.w3.org/1999/xlink" xmlns:sketch="http://www.bohemiancoding.com/sketch/ns">
    <!-- Generator: Sketch 3.3 (11970) - http://www.bohemiancoding.com/sketch -->
    <title>info-o</title>
    <desc>Created with Sketch.</desc>
    <defs></defs>
    <g id="Page-1" stroke="none" stroke-width="1" fill="none" fill-rule="evenodd" sketch:type="MSPage">
        <g id="Icon-Set" sketch:type="MSArtboardGroup" transform="translate(-125.000000, -350.000000)" fill="#000000">
            <g id="info-o" sketch:type="MSLayerGroup" transform="translate(125.000000, 350.000000)">
                <path d="M7.32105263,7.32105263 C12.0421053,2.6 18.3210526,0 25,0 C31.6789474,0 37.9552632,2.6 42.6789474,7.32105263 C47.4026316,12.0421053 50,18.3210526 50,24.9973684 C50,31.6736842 47.4,37.9526316 42.6789474,42.6763158 C37.9578947,47.4 31.6789474,49.9973684 25,49.9973684 C18.3210526,49.9973684 12.0447368,47.3973684 7.32105263,42.6763158 C2.59736842,37.9552632 0,31.6763158 0,24.9973684 C0,18.3184211 2.6,12.0421053 7.32105263,7.32105263 L7.32105263,7.32105263 Z M25,47.3684211 C37.3342105,47.3684211 47.3684211,37.3342105 47.3684211,25 C47.3684211,12.6657895 37.3342105,2.63157895 25,2.63157895 C12.6657895,2.63157895 2.63157895,12.6657895 2.63157895,25 C2.63157895,37.3342105 12.6657895,47.3684211 25,47.3684211 L25,47.3684211 Z" id="Shape" sketch:type="MSShapeGroup"></path>
                <g id="Oval-1-+-Rectangle-1" transform="translate(22.000000, 13.000000)" sketch:type="MSShapeGroup">
                    <circle id="Oval-1" cx="2.5" cy="2.5" r="2.5"></circle>
                    <rect id="Rectangle-1" x="1" y="8" width="3" height="18" rx="3"></rect>
                </g>
            </g>
        </g>
    </g>
</svg>