<?xml version="1.0" encoding="UTF-8" standalone="no"?>
<svg width="40px" height="50px" viewBox="0 0 40 50" version="1.1" xmlns="http://www.w3.org/2000/svg" xmlns:xlink="http://www.w3.org/1999/xlink" xmlns:sketch="http://www.bohemiancoding.com/sketch/ns">
    <!-- Generator: Sketch 3.3 (11970) - http://www.bohemiancoding.com/sketch -->
    <title>page</title>
    <desc>Created with Sketch.</desc>
    <defs></defs>
    <g id="Page-1" stroke="none" stroke-width="1" fill="none" fill-rule="evenodd" sketch:type="MSPage">
        <g id="Icon-Set" sketch:type="MSArtboardGroup" transform="translate(-525.000000, -1150.000000)" fill="#000000">
            <g id="page" sketch:type="MSLayerGroup" transform="translate(525.000000, 1150.000000)">
                <path d="M38.8181818,7.54545455 L31.5454545,0.272727273 C31.3636364,0.0909090909 31.1363636,0 30.9090909,0 L4.77272727,0 C2.27272727,0 0,1.81818182 0,4.31818182 L0,45.2272727 C0,47.7272727 2.27272727,50 4.77272727,50 L34.7727273,50 C37.2727273,50 39.0909091,47.7272727 39.0909091,45.2272727 L39.0909091,8.18181818 C39.0909091,7.95454545 39,7.72727273 38.8181818,7.54545455 L38.8181818,7.54545455 Z M31.8181818,3.09090909 L36,7.27272727 L34.3181818,7.27272727 C32.8181818,7.27272727 31.8181818,6.27272727 31.8181818,4.77272727 L31.8181818,3.09090909 L31.8181818,3.09090909 Z M36.5034754,44.0610733 C36.5034754,45.4862203 35.5533773,46.8681811 34.1282303,46.8681811 L5.62528961,46.8681811 C4.20014258,46.8681811 2.81818182,45.4862203 2.81818182,44.0610733 L2.81818182,5.19342688 C2.81818182,3.76827984 4.20014258,2.81818182 5.62528961,2.81818182 L29.5936716,2.81818182 L29.5936716,5.62528961 C29.5936716,8.00053467 31.3211225,9.72798562 33.6963676,9.72798562 L36.5034754,9.72798562 L36.5034754,44.0610733 L36.5034754,44.0610733 Z" id="Shape" sketch:type="MSShapeGroup"></path>
            </g>
        </g>
    </g>
</svg>