<?xml version="1.0" encoding="UTF-8" standalone="no"?>
<svg width="12px" height="18px" viewBox="0 0 12 18" version="1.1" xmlns="http://www.w3.org/2000/svg" xmlns:xlink="http://www.w3.org/1999/xlink" xmlns:sketch="http://www.bohemiancoding.com/sketch/ns">
    <!-- Generator: Sketch 3.3 (11970) - http://www.bohemiancoding.com/sketch -->
    <title>percent-tall</title>
    <desc>Created with Sketch.</desc>
    <defs></defs>
    <g id="Page-1" stroke="none" stroke-width="1" fill="none" fill-rule="evenodd" sketch:type="MSPage">
        <path d="M0.532970618,17.9503686 C0.355637807,17.8479855 0.295072121,17.6208966 0.400086754,17.4390059 L10.358671,0.190231953 C10.4626141,0.0101972592 10.6958195,-0.0497574948 10.8679661,0.0496313873 C11.0452989,0.152014533 11.1058646,0.379103442 11.0008499,0.560994122 L1.04226567,17.809768 C0.938322589,17.9898027 0.705117211,18.0497575 0.532970618,17.9503686 Z M2.64168045,6.31197428 C4.10064028,6.31197428 5.28336091,5.12925365 5.28336091,3.67029382 C5.28336091,2.21133399 4.10064028,1.02861337 2.64168045,1.02861337 C1.18272062,1.02861337 0,2.21133399 0,3.67029382 C0,5.12925365 1.18272062,6.31197428 2.64168045,6.31197428 Z M2.64168045,5.75583102 C1.48987006,5.75583102 0.556143253,4.82210422 0.556143253,3.67029382 C0.556143253,2.51848343 1.48987006,1.58475662 2.64168045,1.58475662 C3.79349085,1.58475662 4.72721765,2.51848343 4.72721765,3.67029382 C4.72721765,4.82210422 3.79349085,5.75583102 2.64168045,5.75583102 Z M8.94463732,17.1567677 C10.4035971,17.1567677 11.5863178,15.9740471 11.5863178,14.5150873 C11.5863178,13.0561275 10.4035971,11.8734068 8.94463732,11.8734068 C7.48567749,11.8734068 6.30295687,13.0561275 6.30295687,14.5150873 C6.30295687,15.9740471 7.48567749,17.1567677 8.94463732,17.1567677 Z M8.94463732,16.6006245 C7.79282693,16.6006245 6.85910012,15.6668977 6.85910012,14.5150873 C6.85910012,13.3632769 7.79282693,12.4295501 8.94463732,12.4295501 C10.0964477,12.4295501 11.0301745,13.3632769 11.0301745,14.5150873 C11.0301745,15.6668977 10.0964477,16.6006245 8.94463732,16.6006245 L8.94463732,16.6006245 L8.94463732,16.6006245 Z" id="percent-tall" fill="#000000" sketch:type="MSShapeGroup"></path>
    </g>
</svg>