<?xml version="1.0" encoding="UTF-8" standalone="no"?>
<svg width="17px" height="17px" viewBox="0 0 17 17" version="1.1" xmlns="http://www.w3.org/2000/svg" xmlns:xlink="http://www.w3.org/1999/xlink" xmlns:sketch="http://www.bohemiancoding.com/sketch/ns">
    <!-- Generator: Sketch 3.3 (11970) - http://www.bohemiancoding.com/sketch -->
    <title>plus-circle</title>
    <desc>Created with Sketch.</desc>
    <defs></defs>
    <g id="Page-1" stroke="none" stroke-width="1" fill="none" fill-rule="evenodd" sketch:type="MSPage">
        <g id="plus-circle" sketch:type="MSLayerGroup" fill="#000000">
            <path d="M16.3461538,7.84615385 L9.15384615,7.84615385 L9.15384615,0.653846154 C9.15384615,0.292923077 8.86092308,0 8.5,0 C8.13907692,0 7.84615385,0.292923077 7.84615385,0.653846154 L7.84615385,7.84615385 L0.653846154,7.84615385 C0.292923077,7.84615385 0,8.13907692 0,8.5 C0,8.86092308 0.292923077,9.15384615 0.653846154,9.15384615 L7.84615385,9.15384615 L7.84615385,16.3461538 C7.84615385,16.7070769 8.13907692,17 8.5,17 C8.86092308,17 9.15384615,16.7070769 9.15384615,16.3461538 L9.15384615,9.15384615 L16.3461538,9.15384615 C16.7070769,9.15384615 17,8.86092308 17,8.5 C17,8.13907692 16.7070769,7.84615385 16.3461538,7.84615385 L16.3461538,7.84615385 Z" id="Shape" sketch:type="MSShapeGroup"></path>
        </g>
    </g>
</svg>