<?xml version="1.0" encoding="UTF-8" standalone="no"?>
<svg width="31px" height="31px" viewBox="0 0 31 31" version="1.1" xmlns="http://www.w3.org/2000/svg" xmlns:xlink="http://www.w3.org/1999/xlink" xmlns:sketch="http://www.bohemiancoding.com/sketch/ns">
    <!-- Generator: Sketch 3.3 (11970) - http://www.bohemiancoding.com/sketch -->
    <title>Popular</title>
    <desc>Created with Sketch.</desc>
    <defs></defs>
    <g id="Page-1" stroke="none" stroke-width="1" fill="none" fill-rule="evenodd" sketch:type="MSPage">
        <g id="A4" sketch:type="MSArtboardGroup" transform="translate(-361.000000, -356.000000)" fill="#FFFFFF">
            <g id="Popular" sketch:type="MSLayerGroup" transform="translate(361.000000, 356.000000)">
                <g id="Group" sketch:type="MSShapeGroup">
                    <path d="M1.67974064,28.4345773 L2.13191145,28.854735 L18.5676998,2.98213618 L18.0587127,2.62879714 L1.62292436,28.5013959 L0.427377097,30.3833814 L2.07509517,28.9215536 L29.936506,4.20337783 L29.5411514,3.71640157 L1.67974064,28.4345773 Z" id="Path-23"></path>
                    <path d="M2.88609889,4.84451791 C3.98598802,5.21167998 5.46780446,5.40373965 7.02770428,5.39983728 C8.56005412,5.39600384 10.0504079,5.20257912 11.1628226,4.85253431 C12.4517067,4.44695967 13.2126557,3.84603937 13.2126557,3.0439063 C13.2126557,2.24601329 12.4563884,1.62517872 11.170893,1.18053602 C10.0591724,0.79600062 8.56921106,0.556108841 7.03712792,0.504442969 C5.47701421,0.451831832 3.99486494,0.597660536 2.89425562,0.930700943 C1.60091406,1.32206143 0.841241755,1.96521703 0.841241755,2.86020331 C0.841241755,3.75118923 1.59620548,4.41392912 2.88609889,4.84451791 Z" id="Path-20"></path>
                    <path d="M28.419273,0.930700943 C27.3186637,0.597660536 25.8365144,0.451831832 24.2764007,0.504442969 C22.7443175,0.556108841 21.2543562,0.79600062 20.1426356,1.18053602 C18.8571402,1.62517872 18.1008729,2.24601329 18.1008729,3.0439063 C18.1008729,3.84603937 18.8618219,4.44695967 20.150706,4.85253431 C21.2631206,5.20257912 22.7534745,5.39600384 24.2858243,5.39983728 C25.8457241,5.40373965 27.3275406,5.21167998 28.4274297,4.84451791 C29.7173231,4.41392912 30.4722868,3.75118923 30.4722868,2.86020331 C30.4722868,1.96521703 29.7126145,1.32206143 28.419273,0.930700943 Z" id="Path-21"></path>
                    <path d="M28.8857274,27.3433168 L30.5131867,28.7232318 L29.3323388,26.9467025 L13.0986297,2.52386139 L12.5959007,2.85740126 L28.8296097,27.2802424 L29.276221,26.883628 L1.75736859,3.55052247 L1.36687497,4.01021126 L28.8857274,27.3433168 Z" id="Path-22"></path>
                </g>
            </g>
        </g>
    </g>
</svg>