<?xml version="1.0" ?><!DOCTYPE svg  PUBLIC '-//W3C//DTD SVG 1.1//EN'  'http://www.w3.org/Graphics/SVG/1.1/DTD/svg11.dtd'><svg height="60px" id="Layer_1" style="enable-background:new 0 0 60 60;" version="1.1" viewBox="0 0 60 60" width="60px" xml:space="preserve" xmlns="http://www.w3.org/2000/svg" xmlns:xlink="http://www.w3.org/1999/xlink"><style type="text/css">
<![CDATA[
	.st0{fill:none;stroke:#231F20;stroke-width:1.5;stroke-linecap:round;stroke-linejoin:round;stroke-miterlimit:10;}
]]>
</style><g><path class="st0" d="M56.578,34.198c0.217-1.368,0.332-2.77,0.332-4.199c0-14.862-12.051-26.91-26.912-26.91   c-1.427,0-2.831,0.117-4.199,0.329C23.321,1.887,20.396,1,17.261,1C8.281,1,1.001,8.278,1.001,17.259   c0,3.135,0.889,6.058,2.419,8.542c-0.213,1.371-0.33,2.766-0.33,4.198c0,14.862,12.051,26.905,26.908,26.905   c1.428,0,2.833-0.11,4.2-0.325c2.482,1.53,5.406,2.42,8.539,2.42c8.981,0,16.262-7.282,16.262-16.263   C58.999,39.602,58.112,36.679,56.578,34.198z M42.775,42.236c-1.141,1.639-2.812,2.919-4.999,3.84   c-2.187,0.922-4.776,1.381-7.762,1.381c-3.585,0-6.548-0.627-8.89-1.891c-1.66-0.906-3.009-2.123-4.046-3.638   c-1.039-1.518-1.566-3.002-1.566-4.452c0-0.854,0.325-1.598,0.962-2.204c0.638-0.609,1.465-0.917,2.438-0.917   c0.8,0,1.486,0.241,2.042,0.718c0.555,0.477,1.022,1.168,1.402,2.082c0.454,1.059,0.948,1.944,1.477,2.649   c0.521,0.699,1.259,1.279,2.213,1.737c0.946,0.457,2.199,0.685,3.771,0.685c2.149,0,3.887-0.464,5.216-1.383   c1.337-0.925,1.979-2.052,1.979-3.413c0-1.086-0.344-1.949-1.056-2.62c-0.713-0.68-1.641-1.201-2.788-1.562   c-1.151-0.364-2.7-0.753-4.64-1.161c-2.604-0.568-4.78-1.23-6.542-1.99c-1.769-0.761-3.173-1.803-4.218-3.12   c-1.04-1.33-1.563-2.981-1.563-4.939c0-1.867,0.55-3.536,1.648-4.988c1.102-1.456,2.693-2.57,4.769-3.349   c2.066-0.775,4.504-1.165,7.293-1.165c2.229,0,4.158,0.258,5.791,0.773c1.631,0.517,2.985,1.198,4.072,2.056   c1.081,0.854,1.873,1.755,2.377,2.702c0.5,0.949,0.754,1.875,0.754,2.779c0,0.841-0.325,1.603-0.962,2.272   c-0.634,0.668-1.446,1.01-2.394,1.007c-0.856,0-1.525-0.198-1.993-0.616c-0.451-0.402-0.929-1.045-1.442-1.943   c-0.65-1.251-1.431-2.225-2.337-2.922c-0.881-0.684-2.336-1.041-4.363-1.035c-1.873,0-3.373,0.38-4.505,1.129   c-1.139,0.762-1.681,1.646-1.686,2.68c0.005,0.648,0.188,1.194,0.564,1.662c0.38,0.47,0.91,0.879,1.593,1.225   c0.681,0.35,1.371,0.62,2.07,0.815c0.705,0.199,1.869,0.489,3.495,0.87c2.037,0.439,3.886,0.93,5.55,1.465   c1.655,0.538,3.071,1.186,4.241,1.958c1.176,0.771,2.098,1.752,2.753,2.937c0.663,1.188,0.992,2.637,0.992,4.344   C44.487,38.753,43.915,40.6,42.775,42.236z" id="Skype_2_"/></g></svg>