<?xml version="1.0" encoding="UTF-8" standalone="no"?>
<svg width="49px" height="48px" viewBox="0 0 49 48" version="1.1" xmlns="http://www.w3.org/2000/svg" xmlns:xlink="http://www.w3.org/1999/xlink" xmlns:sketch="http://www.bohemiancoding.com/sketch/ns">
    <!-- Generator: Sketch 3.3 (11970) - http://www.bohemiancoding.com/sketch -->
    <title>star-filled</title>
    <desc>Created with Sketch.</desc>
    <defs></defs>
    <g id="Page-1" stroke="none" stroke-width="1" fill="none" fill-rule="evenodd" sketch:type="MSPage">
        <g id="Icon-Set" sketch:type="MSArtboardGroup" transform="translate(-126.000000, -1550.000000)" fill="#000000">
            <g id="star-filled" sketch:type="MSLayerGroup" transform="translate(125.000000, 1550.000000)">
                <path d="M40.4686285,47.9998334 C40.2453103,47.9998334 40.021992,47.943363 39.8177375,47.8275987 L25.4899654,39.7269209 L11.1621933,47.8275987 C10.7046633,48.0873625 10.1463676,48.0506568 9.72151828,47.7372461 C9.29666892,47.4238354 9.08152085,46.8873667 9.16866944,46.3537215 L11.7776802,30.1297778 L1.37976463,19.3495799 C1.02027672,18.9768753 0.889553838,18.4234655 1.04478726,17.920879 C1.20002067,17.4182925 1.61397645,17.0455879 2.11780421,16.9580588 L17.7745922,14.253127 L24.2726086,0.779291413 C24.5040971,0.302116598 24.9752441,-3.55271368e-15 25.4899654,-3.55271368e-15 C26.0046868,-3.55271368e-15 26.4785572,0.302116598 26.7073222,0.779291413 L33.2053386,14.253127 L48.8621266,16.9580588 C49.3659544,17.0455879 49.7799102,17.415469 49.9351436,17.920879 C50.090377,18.426289 49.9623775,18.9768753 49.6001662,19.3495799 L39.2022506,30.1297778 L41.8112614,46.3537215 C41.8956866,46.8873667 41.6805385,47.4238354 41.2584126,47.7372461 C41.0242007,47.9094808 40.7464146,47.9998334 40.4686285,47.9998334 L40.4686285,47.9998334 Z" id="Shape" sketch:type="MSShapeGroup"></path>
            </g>
        </g>
    </g>
</svg>