<?xml version="1.0" encoding="UTF-8" standalone="no"?>
<svg width="50px" height="48px" viewBox="0 0 50 48" version="1.1" xmlns="http://www.w3.org/2000/svg" xmlns:xlink="http://www.w3.org/1999/xlink" xmlns:sketch="http://www.bohemiancoding.com/sketch/ns">
    <!-- Generator: Sketch 3.3 (11970) - http://www.bohemiancoding.com/sketch -->
    <title>star-half-solid</title>
    <desc>Created with Sketch.</desc>
    <defs></defs>
    <g id="Page-1" stroke="none" stroke-width="1" fill="none" fill-rule="evenodd" sketch:type="MSPage">
        <g id="Icon-Set" sketch:type="MSArtboardGroup" transform="translate(-26.000000, -1550.000000)" fill="#000000">
            <g id="star-half-solid" sketch:type="MSLayerGroup" transform="translate(25.000000, 1550.000000)">
                <path d="M25.4899654,39.7269209 L11.1621933,47.8275987 C10.7046633,48.0873625 10.1463676,48.0506568 9.72151828,47.7372461 C9.29666892,47.4238354 9.08152085,46.8873667 9.16866944,46.3537215 L11.7776802,30.1297778 L1.37976463,19.3495799 C1.02027672,18.9768753 0.889553838,18.4234655 1.04478726,17.920879 C1.20002067,17.4182925 1.61397645,17.0455879 2.11780421,16.9580588 L17.7745922,14.253127 L24.2726086,0.779291413 C24.5040971,0.302116598 25.2068074,0 25.7215287,0 C26.23625,0 25.4899654,39.7269209 25.4899654,39.7269209 Z" id="Shape" sketch:type="MSShapeGroup"></path>
                <path d="M50.3821962,39.6308594 L35.6028309,47.8275987 C35.1453009,48.0873625 34.5870053,48.0506568 34.1621559,47.7372461 C33.7373065,47.4238354 33.5221585,46.8873667 33.6093071,46.3537215 L36.2183178,30.1297778 L25.8204023,19.3495799 C25.4609143,18.9768753 25.3301915,18.4234655 25.4854249,17.920879 C25.6406583,17.4182925 26.0546141,17.0455879 26.5584418,16.9580588 L42.2152299,14.253127 L48.7132462,0.779291413 C48.9447347,0.302116598 49.604152,0 50.1188733,0 L50.1607847,4.69513704 L44.2759042,16.8879376 L30.0733891,19.3743196 L39.3277382,29.0938127 L37.0844544,43.5992587 L50.3956836,35.7644963" id="Shape-Copy" sketch:type="MSShapeGroup" transform="translate(37.908357, 24.000000) scale(-1, 1) translate(-37.908357, -24.000000) "></path>
            </g>
        </g>
    </g>
</svg>