<?xml version="1.0" encoding="UTF-8" standalone="no"?>
<svg width="42px" height="43px" viewBox="0 0 42 43" version="1.1" xmlns="http://www.w3.org/2000/svg" xmlns:xlink="http://www.w3.org/1999/xlink" xmlns:sketch="http://www.bohemiancoding.com/sketch/ns">
    <!-- Generator: Sketch 3.3 (11970) - http://www.bohemiancoding.com/sketch -->
    <title>wallet</title>
    <desc>Created with Sketch.</desc>
    <defs></defs>
    <g id="Page-1" stroke="none" stroke-width="1" fill="none" fill-rule="evenodd" sketch:type="MSPage">
        <g id="Icon-Set" sketch:type="MSArtboardGroup" transform="translate(-29.000000, -1853.000000)" fill="#000000">
            <g id="wallet" sketch:type="MSLayerGroup" transform="translate(29.000000, 1853.000000)">
                <path d="M36,10 L6,10 C2.67329099,10 0,13.0887244 0,16 L0,37.384 C0,40.4862847 2.51371525,43 5.616,43 L36.384,43 C39.4855967,43 42,40.4859729 42,37.384 L42,15.846 C42,12.7627868 39.118891,10 36,10 L36,10 Z M36,12 C38.0326494,12 40,13.8865548 40,15.846 L40,37.384 C40,39.3813364 38.3810942,41 36.384,41 L5.616,41 C3.61828475,41 2,39.3817153 2,37.384 L2,16 C2,14.1342681 3.84720901,12 6,12 L36,12 L36,12 Z" id="Shape" sketch:type="MSShapeGroup"></path>
                <path d="M34,8 L34,4.658 C34,0.451864218 32.4436991,-0.711101238 27.8929885,0.489061975 C26.6671968,0.812467501 23.021331,1.81218665 17.7008383,3.28053004 C17.6650341,3.29041132 17.6650341,3.29041132 17.6292303,3.30029273 C15.3163465,3.93862564 12.8427497,4.62253777 10.3721178,5.30644768 C9.50740288,5.54581441 8.70482093,5.76808407 7.98483423,5.96755827 C7.24436554,6.17273632 7.24436554,6.17273632 7.07984577,6.21834621 C1.47644314,8.32592373 0.041,10.2498316 0.041,14.998 L0.000139426039,17.4363017 L1.99986057,17.4696983 L2.04086057,15.0146983 C2.041,11.1123093 2.93557796,9.91331672 7.69967869,8.11774448 C7.77852889,8.10008411 7.77852889,8.10008411 8.51882428,7.89495409 C9.23867463,7.69551766 10.0411161,7.47328691 10.9056839,7.2339609 C13.3758597,6.55017724 15.8489838,5.8663958 18.1613176,5.22821471 C18.1971113,5.21833606 18.1971113,5.21833606 18.2329055,5.20845755 C23.5424243,3.74314274 27.1883622,2.74340379 28.4031046,2.42291345 C31.6991902,1.55363369 32,1.7784176 32,4.658 L32,8 L34,8 L34,8 Z" id="Shape" sketch:type="MSShapeGroup"></path>
                <path d="M34.502,29 C33.121,29 32,27.882 32,26.501 C32,25.12 33.121,24 34.502,24 C35.879,24 37,25.12 37,26.501 C37,27.882 35.879,29 34.502,29 L34.502,29 Z" id="Shape" sketch:type="MSShapeGroup"></path>
            </g>
        </g>
    </g>
</svg>