<?xml version="1.0" encoding="UTF-8" standalone="no"?>
<svg width="50px" height="50px" viewBox="0 0 50 50" version="1.1" xmlns="http://www.w3.org/2000/svg" xmlns:xlink="http://www.w3.org/1999/xlink" xmlns:sketch="http://www.bohemiancoding.com/sketch/ns">
    <!-- Generator: Sketch 3.4 (15575) - http://www.bohemiancoding.com/sketch -->
    <title>write</title>
    <desc>Created with Sketch.</desc>
    <defs></defs>
    <g id="Page-1" stroke="none" stroke-width="1" fill="none" fill-rule="evenodd" sketch:type="MSPage">
        <g id="Icon-Set" sketch:type="MSArtboardGroup" transform="translate(-725.000000, -1850.000000)" fill="#000000">
            <g id="write" sketch:type="MSLayerGroup" transform="translate(725.000000, 1850.000000)">
                <path d="M27.8666667,43.2061404 L37.4929825,23.9385965 L39.6570175,26.1017544 L49.0666667,19.3429825 L48.0438596,17.9184211 L39.8438596,23.8070175 L26.0087719,9.97368421 L31.8385965,1.83421053 L30.4114035,0.813157895 L23.7157895,10.1622807 L25.8850877,12.3315789 L6.61140351,21.9517544 L6.58596491,22.4631579 C6.14561404,31.072807 5.28859649,40.6578947 0.663157895,45.4333333 L0.0614035088,46.0526316 L1.36140351,47.3526316 L2.60175439,48.5929825 L3.7754386,49.7657895 L4.39561404,49.1438596 C8.98333333,44.5385965 18.2526316,43.6982456 27.3535088,43.2315789 L27.8666667,43.2061404 L27.8666667,43.2061404 Z M4.2622807,46.9342105 L16.3149123,34.8815789 C17.2745614,35.2929825 18.4289474,35.1105263 19.2122807,34.327193 C20.2403509,33.3 20.2385965,31.6333333 19.2122807,30.6052632 C18.1842105,29.5789474 16.5192982,29.5780702 15.4912281,30.6061404 C14.6570175,31.4403509 14.5114035,32.6912281 15.0324561,33.6842105 L2.60438596,46.1131579 L2.50350877,46.0131579 C6.95263158,40.7622807 7.86403509,31.504386 8.31140351,23.0649123 L27.1929825,13.6385965 L36.1859649,22.6298246 L26.754386,41.5070175 C18.1245614,41.9631579 9.4122807,42.8289474 4.2622807,46.9342105 L4.2622807,46.9342105 Z" id="Shape" sketch:type="MSShapeGroup"></path>
            </g>
        </g>
    </g>
</svg>