<?xml version="1.0" standalone="no"?>
<!DOCTYPE svg PUBLIC "-//W3C//DTD SVG 1.1//EN" "http://www.w3.org/Graphics/SVG/1.1/DTD/svg11.dtd" >
<!--
2015-10-23: Created with FontForge (http://fontforge.org)
-->
<svg xmlns="http://www.w3.org/2000/svg" xmlns:xlink="http://www.w3.org/1999/xlink" version="1.1">
<metadata>
Created by FontForge 20141231 at Fri Oct 23 00:39:46 2015
 By Pankaj
Copyright (c) 2015, Pankaj
</metadata>
<defs>
<font id="pp-customfont" horiz-adv-x="512" >
  <font-face 
    font-family="pp-customfont"
    font-weight="400"
    font-stretch="normal"
    units-per-em="512"
    panose-1="2 0 5 3 0 0 0 0 0 0"
    ascent="448"
    descent="-64"
    bbox="-32 -64.0771 512.084 448.025"
    underline-thickness="25.6"
    underline-position="-51.2"
    unicode-range="U+0020-F1BA"
  />
    <missing-glyph />
    <glyph glyph-name="space" unicode=" " horiz-adv-x="200" 
 />
    <glyph glyph-name="uniF150" unicode="&#xf150;" 
d="M448 320h-384c-7.06543 0 -12.7998 5.73438 -12.7998 12.7998s5.73438 12.7998 12.7998 12.7998h384c7.06543 0 12.7998 -5.73438 12.7998 -12.7998s-5.73438 -12.7998 -12.7998 -12.7998zM448 243.2h-204.8c-7.06543 0 -12.7998 5.73438 -12.7998 12.7998
s5.73438 12.7998 12.7998 12.7998h204.8c7.06543 0 12.7998 -5.73438 12.7998 -12.7998s-5.73438 -12.7998 -12.7998 -12.7998zM448 166.4h-204.8c-7.06543 0 -12.7998 5.73438 -12.7998 12.7998s5.73438 12.7998 12.7998 12.7998h204.8
c7.06543 0 12.7998 -5.73438 12.7998 -12.7998s-5.73438 -12.7998 -12.7998 -12.7998zM448 89.5996h-204.8c-7.06543 0 -12.7998 5.73438 -12.7998 12.8008c0 7.06543 5.73438 12.7998 12.7998 12.7998h204.8c7.06543 0 12.7998 -5.73438 12.7998 -12.7998
c0 -7.06641 -5.73438 -12.8008 -12.7998 -12.8008zM448 12.7998h-384c-7.06543 0 -12.7998 5.73438 -12.7998 12.7998c0 7.06641 5.73438 12.8008 12.7998 12.8008h384c7.06543 0 12.7998 -5.73438 12.7998 -12.8008c0 -7.06543 -5.73438 -12.7998 -12.7998 -12.7998z
M166.4 89.5996c-2.71387 0 -5.42773 0.871094 -7.68066 2.56055l-102.399 76.7998c-3.22559 2.40625 -5.12012 6.2207 -5.12012 10.2402c0 4.01855 1.89453 7.83301 5.12012 10.2402l102.399 76.7998c3.8916 2.91797 9.0625 3.37891 13.415 1.20312
c4.35156 -2.17578 7.06543 -6.60449 7.06543 -11.4434v-153.6c0 -4.83887 -2.73926 -9.29297 -7.06543 -11.4434c-1.81836 -0.896484 -3.76367 -1.35742 -5.73438 -1.35742zM85.3252 179.2l68.2744 -51.2002v102.4z" />
    <glyph glyph-name="uniF129" unicode="&#xf129;" 
d="M128 64c-3.27637 0 -6.55371 1.25488 -9.0625 3.7373l-102.399 102.4c-4.99219 4.99219 -4.99219 13.1074 0 18.0986l102.399 102.4c4.99219 4.99219 13.1074 4.99219 18.0996 0c4.99121 -4.99219 4.99121 -13.1074 0 -18.0986l-93.3379 -93.3379l93.3379 -93.3379
c4.99121 -4.99219 4.99121 -13.1074 0 -18.0986c-2.50879 -2.50879 -5.78613 -3.73828 -9.0625 -3.73828zM384 64c-3.27637 0 -6.55371 1.25488 -9.0625 3.7373c-4.99219 4.99219 -4.99219 13.1074 0 18.0996l93.3379 93.3379l-93.3379 93.3369
c-4.99219 4.99219 -4.99219 13.1074 0 18.0996s13.1074 4.99219 18.0996 0l102.399 -102.4c4.99219 -4.99219 4.99219 -13.1074 0 -18.0986l-102.399 -102.4c-2.50879 -2.50879 -5.78613 -3.7373 -9.0625 -3.7373zM192 64c-2.33008 0 -4.65918 0.639648 -6.78418 1.94531
c-5.99023 3.73828 -7.80762 11.6484 -4.07031 17.6387l128 204.8c3.7373 5.99023 11.6484 7.80859 17.6387 4.07031c5.99023 -3.7373 7.80762 -11.6475 4.07031 -17.6377l-128 -204.801c-2.43164 -3.89062 -6.60449 -6.01562 -10.8545 -6.01562z" />
    <glyph glyph-name="uniF107" unicode="&#xf107;" 
d="M415.181 351.181c45.9268 -45.9258 71.2197 -106.982 71.2197 -171.955s-25.2676 -126.055 -71.2197 -171.98c-45.9521 -45.9268 -107.008 -71.2197 -171.98 -71.2197s-126.055 25.2676 -171.981 71.2197c-45.9258 45.9521 -71.2188 107.033 -71.2188 171.98
s25.2676 126.029 71.2188 171.955c45.9521 45.9268 107.009 71.2197 171.981 71.2197s126.055 -25.293 171.98 -71.2197zM243.2 -38.4004c119.987 0 217.6 97.6133 217.6 217.601s-97.6123 217.6 -217.6 217.6s-217.601 -97.6123 -217.601 -217.6
s97.6133 -217.601 217.601 -217.601zM393.037 188.236v0.0263672c4.99121 -4.99219 4.99121 -13.1074 0 -18.0996l-102.4 -102.399c-2.4834 -2.50879 -5.78516 -3.76367 -9.03711 -3.76367c-3.25098 0 -6.52734 1.22852 -9.03613 3.7373
c-4.99219 4.99219 -4.99219 13.1074 0 18.0996l80.5371 80.5635h-263.501c-7.06543 0 -12.7998 5.73438 -12.7998 12.7998s5.73438 12.7998 12.7998 12.7998h263.501l-80.5625 80.5381c-4.99219 4.99121 -4.99219 13.1064 0 18.0986
c4.99121 4.99219 13.1064 4.99219 18.0986 0z" />
    <glyph glyph-name="uniF180" unicode="&#xf180;" 
d="M345.6 217.6c-35.2764 0 -64 28.7236 -64 64c0 35.2773 28.7236 64 64 64c35.2773 0 64 -28.7227 64 -64c0 -35.2764 -28.7227 -64 -64 -64zM345.6 320c-21.1709 0 -38.3994 -17.2285 -38.3994 -38.4004c0 -21.1709 17.2285 -38.3994 38.3994 -38.3994
c21.1719 0 38.4004 17.2285 38.4004 38.3994c0 21.1719 -17.2285 38.4004 -38.4004 38.4004zM12.7998 -64c-3.32812 0 -6.60449 1.30566 -9.0625 3.7373c-3.50684 3.50781 -4.68457 8.75586 -2.96973 13.415c39.3984 108.313 80.8193 163.251 123.085 163.251
c13.9521 0 26.9824 -5.99023 38.7842 -17.7666c18.6367 -18.6367 19.3027 -37.1963 16.5889 -49.4844c-8.55078 -38.6055 -63.0781 -76.416 -162.048 -112.41c-1.43359 -0.511719 -2.91895 -0.767578 -4.37793 -0.767578v0.0253906zM123.878 90.8291
c-12.6719 0 -27.5967 -11.1104 -43.1357 -32.1279c-15.2832 -20.6592 -30.6426 -50.0996 -45.7725 -87.7314c34.1758 13.7471 61.6445 27.6992 81.8945 41.5996c27.3154 18.7646 35.4043 33.2803 37.376 42.1377c1.9707 8.85742 -1.20312 17.3311 -9.70215 25.8311
c-6.91211 6.91113 -13.6709 10.2646 -20.6855 10.2646zM499.2 448l-0.0253906 0.0253906h12.7998v-12.7998c0 -66.4316 -11.2646 -125.645 -33.4854 -175.975c-18.3291 -41.4971 -44.0312 -77.0303 -76.4414 -105.625c-6.06738 -5.35059 -12.1855 -10.292 -18.3037 -14.8486
c-1.48535 -22.0674 -10.2402 -44.6201 -26.1123 -67.1738c-13.4141 -19.0723 -32 -38.2207 -55.2188 -56.96c-39.0146 -31.4883 -77.4912 -50.8418 -79.1045 -51.6611c-1.81738 -0.921875 -3.7627 -1.35645 -5.70898 -1.35645c-4.01855 0 -7.91016 1.89355 -10.3936 5.32422
c-3.66016 5.09473 -3.09766 12.1094 1.33203 16.5381c0.101562 0.102539 12.1084 12.3135 23.9355 33.2031c9.72754 17.2031 21.1709 43.7246 23.1934 75.8018c-20.7617 8.11523 -45.5938 31.334 -56.7295 42.4697c-11.1357 11.1367 -34.3555 35.9688 -42.4707 56.7295
c-32.0762 -2.02246 -58.5977 -13.4648 -75.8008 -23.1934c-20.8643 -11.8018 -33.1016 -23.833 -33.2295 -23.9609c-2.4834 -2.45801 -5.75977 -3.71289 -9.03613 -3.71289c-2.61133 0 -5.24805 0.793945 -7.50098 2.43262
c-5.06934 3.66016 -6.7334 10.4697 -3.94238 16.0762c0.819336 1.61328 20.1729 40.0898 51.6602 79.1045c18.7393 23.2188 37.8887 41.8047 56.96 55.2188c22.5283 15.8721 45.1074 24.6533 67.1748 26.1123c4.58203 6.14453 9.52344 12.2627 14.8477 18.3037
c28.5957 32.4102 64.1279 58.1123 105.626 76.4424c50.3555 22.2207 109.542 33.4844 175.975 33.4844zM79.5391 196.915c20.1729 9.88184 45.7471 18.5088 75.418 20.3262c3.09766 16.9473 11.6992 43.6738 28.3135 72.7812
c-42.0352 -13.7988 -79.335 -57.7021 -103.731 -93.1074zM260.94 15.6162h-0.0253906c35.3789 24.3965 79.2578 61.6953 93.082 103.654c-29.082 -16.5889 -55.834 -25.1904 -72.7559 -28.2881c-1.79199 -29.6445 -10.4189 -55.1934 -20.3008 -75.3662zM385.126 172.8
l0.0263672 -0.0253906c63.7178 56.2178 98.5342 142.259 101.12 249.446c-107.188 -2.58594 -193.229 -37.4268 -249.447 -101.12c-46.9756 -53.248 -57.5996 -108.391 -57.5996 -116.326c0 -0.0507812 0.102539 -5.29883 10.0605 -19.4307
c6.9375 -9.85547 16.8193 -21.3506 27.7764 -32.3066c10.957 -10.957 22.4512 -20.8389 32.3066 -27.7764c14.1318 -9.95801 19.3799 -10.0605 19.4307 -10.0605c7.93652 0 63.0781 10.624 116.326 57.5996z" />
    <glyph glyph-name="uniF154" unicode="&#xf154;" 
d="M89.5996 89.5996c-21.1709 0 -38.3994 17.2295 -38.3994 38.4004v204.8c0 21.1719 17.2285 38.4004 38.3994 38.4004h332.801c21.1709 0 38.3994 -17.2285 38.3994 -38.4004v-204.8c0 -21.1709 -17.2285 -38.4004 -38.3994 -38.4004h-332.801zM76.7998 332.8v-204.8
c0 -7.06543 5.73438 -12.7998 12.7998 -12.7998h332.801c7.06543 0 12.7998 5.73438 12.7998 12.7998v204.8c0 7.06543 -5.73438 12.7998 -12.7998 12.7998h-332.801c-7.06543 0 -12.7998 -5.73438 -12.7998 -12.7998zM499.2 64
c7.06543 0 12.7998 -5.73438 12.7998 -12.7998v-25.6006c0 -21.1709 -17.2285 -38.3994 -38.4004 -38.3994h-435.199c-21.1719 0 -38.4004 17.2285 -38.4004 38.3994v25.6006c0 7.06543 5.73438 12.7998 12.7998 12.7998h486.4zM473.6 12.7998
c7.06641 0 12.8008 5.73438 12.8008 12.7998v12.8008h-460.801v-12.8008c0 -7.06543 5.73438 -12.7998 12.8008 -12.7998h435.199z" />
    <glyph glyph-name="uniF168" unicode="&#xf168;" 
d="M469.862 188.263h0.102539c4.99219 -4.99219 4.99219 -13.1074 0 -18.0996l-76.7998 -76.7998c-2.50879 -2.4834 -5.78613 -3.7373 -9.0625 -3.7373c-3.27734 0 -6.55371 1.22852 -9.0625 3.7373c-4.99219 4.99219 -4.99219 13.1074 0 18.0986l54.9375 54.9385h-173.9
v-173.901l54.9375 54.9375c4.99219 4.99219 13.1074 4.99219 18.0986 0c4.99219 -4.99219 4.99219 -13.1064 0 -18.0986l-76.7998 -76.7998c-2.50879 -2.4834 -5.78516 -3.73828 -9.0625 -3.73828c-3.27637 0 -6.55371 1.22852 -9.0625 3.73828l-76.7998 76.7998
c-4.99219 4.99219 -4.99219 13.1064 0 18.0986s13.1074 4.99219 18.0996 0l54.9375 -54.9375v173.901h-173.901l54.9375 -54.9385c4.99219 -4.99121 4.99219 -13.1064 0 -18.0986c-2.50879 -2.4834 -5.78516 -3.7373 -9.06152 -3.7373
c-3.27734 0 -6.55371 1.22852 -9.0625 3.7373l-76.7998 76.7998c-4.99219 4.99219 -4.99219 13.1074 0 18.0996l76.7998 76.7998c4.99219 4.99219 13.1064 4.99219 18.0986 0s4.99219 -13.1074 0 -18.0996l-54.9375 -54.9375h173.901v173.901l-54.9385 -54.9375
c-4.99121 -4.99219 -13.1064 -4.99219 -18.0986 0c-4.99219 4.99121 -4.99219 13.1064 0 18.0986l76.7998 76.7998c4.99219 4.99219 13.1074 4.99219 18.0996 0l76.7998 -76.7998c4.99219 -4.99219 4.99219 -13.1074 0 -18.0986
c-2.50879 -2.4834 -5.78613 -3.73828 -9.0625 -3.73828s-6.55371 1.22949 -9.0625 3.73828l-54.9375 54.9375v-173.901h173.9l-54.9375 54.9375c-4.99121 4.99219 -4.99121 13.1074 0 18.0996c4.99219 4.99219 13.1074 4.99219 18.0996 0z" />
    <glyph glyph-name="uniF173" unicode="&#xf173;" 
d="M217.6 -64c-58.1113 0 -112.768 22.6309 -153.855 63.7441s-63.7441 95.7441 -63.7441 153.855c0 58.1123 22.6309 112.769 63.7441 153.856s95.7441 63.7441 153.855 63.7441c7.06641 0 12.8008 -5.73438 12.8008 -12.7998v-192h192
c7.06543 0 12.7998 -5.73438 12.7998 -12.8008c0 -58.1113 -22.6309 -112.768 -63.7441 -153.855s-95.7441 -63.7441 -153.856 -63.7441zM204.8 345.19c-99.917 -6.60449 -179.2 -90.0098 -179.2 -191.591c0 -105.881 86.1191 -192 192 -192
c101.556 0 184.96 79.2832 191.591 179.2h-191.591c-7.06543 0 -12.7998 5.73438 -12.7998 12.7998v191.591zM473.6 192h-204.8c-7.06543 0 -12.7998 5.73438 -12.7998 12.7998v204.8c0 7.06641 5.73438 12.8008 12.7998 12.8008
c58.1123 0 112.769 -22.6309 153.856 -63.7441c41.0879 -41.1143 63.7441 -95.7441 63.7441 -153.856c0 -7.06543 -5.73438 -12.7998 -12.8008 -12.7998zM281.6 217.6h178.791c-6.32324 95.6934 -83.0977 172.442 -178.791 178.791v-178.791z" />
    <glyph glyph-name="uniF12F" unicode="&#xf12f;" 
d="M366.899 86.374c5.29883 -4.70996 5.75977 -12.7998 1.0752 -18.0732c-2.53418 -2.8418 -6.04199 -4.30078 -9.57422 -4.30078c-3.02148 0 -6.06738 1.0498 -8.5 3.22559l-106.7 94.8477l-106.701 -94.8477c-2.43164 -2.15039 -5.47852 -3.22559 -8.49902 -3.22559
c-3.5332 0 -7.04004 1.45898 -9.57422 4.30078c-4.68457 5.29883 -4.19824 13.3887 1.0752 18.0732l104.448 92.8262l-104.448 92.8252c-5.2998 4.71094 -5.78613 12.7744 -1.0752 18.0742c4.70996 5.29883 12.7998 5.75977 18.0732 1.0752l106.701 -94.8486l106.7 94.8486
c5.2998 4.68457 13.3896 4.22363 18.0742 -1.0752c4.68457 -5.2998 4.19824 -13.3896 -1.0752 -18.0742l-104.448 -92.8252zM243.2 -64c-64.9727 0 -126.029 25.293 -171.981 71.2188c-45.9512 45.9268 -71.2188 107.009 -71.2188 171.956
c0 64.9727 25.293 126.028 71.2188 171.98c45.9268 45.9521 107.009 71.2451 171.981 71.2451s126.028 -25.293 171.98 -71.2451s71.2197 -107.008 71.2197 -171.98c0 -64.9736 -25.293 -126.029 -71.2197 -171.956c-45.9258 -45.9258 -107.008 -71.2188 -171.98 -71.2188z
M243.2 396.8c-119.987 0 -217.601 -97.6123 -217.601 -217.6s97.6133 -217.601 217.601 -217.601s217.6 97.6133 217.6 217.601s-97.6123 217.6 -217.6 217.6z" />
    <glyph glyph-name="uniF183" unicode="&#xf183;" 
d="M140.8 64h-102.399c-21.1719 0 -38.4004 17.2285 -38.4004 38.4004v307.199c0 21.1719 17.2285 38.4004 38.4004 38.4004h358.399c21.1719 0 38.4004 -17.2285 38.4004 -38.4004v-179.199c0 -7.06641 -5.73438 -12.8008 -12.7998 -12.8008
c-7.06641 0 -12.8008 5.73438 -12.8008 12.8008v179.199c0 7.06641 -5.73438 12.8008 -12.7998 12.8008h-358.399c-7.06641 0 -12.8008 -5.73438 -12.8008 -12.8008v-307.199c0 -7.06641 5.73438 -12.8008 12.8008 -12.8008h102.399
c7.06543 0 12.7998 -5.73438 12.7998 -12.7998s-5.73438 -12.7998 -12.7998 -12.7998zM332.8 -64c-5.06836 0 -9.88184 3.04688 -11.8779 8.03809l-43.4434 108.596l-75.8525 -86.6816c-3.50781 -4.01953 -9.13965 -5.42773 -14.1318 -3.55859
s-8.29395 6.65625 -8.29395 11.9805v384c0 5.06934 2.99512 9.65137 7.62891 11.6992c4.63281 2.04883 10.0352 1.17773 13.7979 -2.22656l281.601 -256c3.91602 -3.55859 5.24805 -9.16504 3.32812 -14.0801c-1.9209 -4.91504 -6.65625 -8.19238 -11.9297 -8.19238
h-109.082l44.1855 -110.438c2.63672 -6.55371 -0.563477 -14.0029 -7.14258 -16.6396l-64 -25.5996c-1.56152 -0.615234 -3.17383 -0.921875 -4.76172 -0.921875zM281.6 89.5996c0.716797 0 1.43359 -0.0507812 2.15039 -0.178711
c4.40332 -0.742188 8.06445 -3.7373 9.72852 -7.85938l46.4385 -116.121l40.2432 16.1016l-46.4385 116.122c-1.58691 3.94238 -1.10059 8.42188 1.28027 11.9297c2.38086 3.50684 6.34863 5.63184 10.5977 5.63184h94.8994l-235.699 214.272v-320.999l67.1748 76.7744
c2.45703 2.79102 5.96484 4.37793 9.625 4.37793v-0.0517578z" />
    <glyph glyph-name="uniF179" unicode="&#xf179;" 
d="M435.2 243.2l0.0253906 0.0253906c28.2363 0 51.2002 -22.9629 51.2002 -51.2002c0 -76.5693 -12.6982 -140.646 -36.7363 -185.267c-12.1602 -22.5537 -27.085 -40.0645 -44.3906 -52.0449c-17.8936 -12.416 -37.9648 -18.6885 -59.6729 -18.6885h-128
c-2.81641 0 -17.9717 0.793945 -39.9111 16.2305c-27.9551 19.6611 -54.2969 53.9902 -78.3096 101.99c-50.9961 101.939 -67.3281 135.398 -68.0967 136.96c-12.3643 24.7812 -3.50684 56.2695 19.7119 70.1953c11.3662 6.80957 24.6533 8.65332 37.4277 5.17188
c13.1074 -3.58398 24.0127 -12.2373 30.6943 -24.3975l34.457 -59.7246v188.749c0 28.2363 22.9639 51.2002 51.2002 51.2002c28.2373 0 51.2002 -22.9639 51.2002 -51.2002v-83.6865c7.52637 4.37793 16.2812 6.88672 25.5996 6.88672
c22.2979 0 41.293 -14.3359 48.3076 -34.2783c8.16602 5.47754 17.9453 8.67773 28.4932 8.67773c22.2969 0 41.292 -14.3359 48.3066 -34.2783c8.16699 5.47852 17.9453 8.67871 28.4932 8.67871zM427.136 18.8672l0.0253906 -0.0253906
c22.0166 40.9082 33.6641 100.787 33.6641 173.133c0 14.1055 -11.4941 25.5996 -25.5996 25.5996s-25.5996 -11.4941 -25.5996 -25.5996v-12.7998c0 -7.06641 -5.73438 -12.8008 -12.8008 -12.8008c-7.06543 0 -12.7998 5.73438 -12.7998 12.8008v38.3994
c0 14.1055 -11.4941 25.6006 -25.5996 25.6006s-25.6006 -11.4951 -25.6006 -25.6006v-12.7998c0 -7.06543 -5.73438 -12.7998 -12.7998 -12.7998s-12.7998 5.73438 -12.7998 12.7998v38.4004c0 14.1055 -11.4941 25.5996 -25.5996 25.5996
c-14.1064 0 -25.6006 -11.4941 -25.6006 -25.5996v-38.4004c0 -7.06543 -5.73438 -12.7998 -12.7998 -12.7998s-12.7998 5.73438 -12.7998 12.7998v166.4c0 14.1055 -11.4941 25.5996 -25.6006 25.5996c-14.1055 0 -25.5996 -11.4941 -25.5996 -25.5996v-199.987
c0 -17.1016 -5.04297 -27.085 -15.0273 -29.6191c-9.95801 -2.53516 -19.1484 3.7373 -27.3154 18.6621l-39.9609 69.248c-0.0517578 0.0771484 -0.102539 0.178711 -0.154297 0.255859c-3.30176 6.04199 -8.65234 10.3428 -15.0264 12.083
c-5.99121 1.61328 -12.2119 0.768555 -17.5361 -2.43164c-11.8271 -7.0918 -16.3848 -23.9619 -9.95898 -36.8389c0.0263672 -0.0253906 0.0263672 -0.0507812 0.0517578 -0.102539c0.15332 -0.306641 16.1025 -32.998 67.9932 -136.78
c26.4453 -52.9404 51.3281 -78.4893 67.5332 -90.624c16.2559 -12.1602 27.0332 -13.3633 28.0322 -13.4404h127.743c41.9072 0 67.4824 31.1299 81.5361 57.2676z" />
    <glyph glyph-name="uniF153" unicode="&#xf153;" 
d="M448 38.4004h-409.6c-21.1719 0 -38.4004 17.2285 -38.4004 38.3994v204.8c0 21.1719 17.2285 38.4004 38.4004 38.4004h409.6c21.1709 0 38.4004 -17.2285 38.4004 -38.4004v-204.8c0 -21.1709 -17.2295 -38.3994 -38.4004 -38.3994zM38.4004 294.4
c-7.06641 0 -12.8008 -5.73438 -12.8008 -12.8008v-204.8c0 -7.06543 5.73438 -12.7998 12.8008 -12.7998h409.6c7.06543 0 12.7998 5.73438 12.7998 12.7998v204.8c0 7.06641 -5.73438 12.8008 -12.7998 12.8008h-409.6zM89.5996 243.2h-25.5996
c-7.06543 0 -12.7998 5.73438 -12.7998 12.7998s5.73438 12.7998 12.7998 12.7998h25.5996c7.06641 0 12.8008 -5.73438 12.8008 -12.7998s-5.73438 -12.7998 -12.8008 -12.7998zM422.4 243.2h-25.6006c-7.06543 0 -12.7998 5.73438 -12.7998 12.7998
s5.73438 12.7998 12.7998 12.7998h25.6006c7.06543 0 12.7998 -5.73438 12.7998 -12.7998s-5.73438 -12.7998 -12.7998 -12.7998zM115.2 192h-51.2002c-7.06543 0 -12.7998 5.73438 -12.7998 12.7998s5.73438 12.7998 12.7998 12.7998h51.2002
c7.06543 0 12.7998 -5.73438 12.7998 -12.7998s-5.73438 -12.7998 -12.7998 -12.7998zM89.5996 89.5996h-25.5996c-7.06543 0 -12.7998 5.73438 -12.7998 12.8008c0 7.06543 5.73438 12.7998 12.7998 12.7998h25.5996c7.06641 0 12.8008 -5.73438 12.8008 -12.7998
c0 -7.06641 -5.73438 -12.8008 -12.8008 -12.8008zM294.4 89.5996h-153.601c-7.06543 0 -12.7998 5.73438 -12.7998 12.8008c0 7.06543 5.73438 12.7998 12.7998 12.7998h153.601c7.06543 0 12.7998 -5.73438 12.7998 -12.7998
c0 -7.06641 -5.73438 -12.8008 -12.7998 -12.8008zM371.2 89.5996h-25.6006c-7.06543 0 -12.7998 5.73438 -12.7998 12.8008c0 7.06543 5.73438 12.7998 12.7998 12.7998h25.6006c7.06543 0 12.7998 -5.73438 12.7998 -12.7998
c0 -7.06641 -5.73438 -12.8008 -12.7998 -12.8008zM422.4 140.8h-76.8008c-7.06543 0 -12.7998 5.73438 -12.7998 12.7998c0 7.06641 5.73438 12.8008 12.7998 12.8008h64v38.3994c0 7.06543 5.73438 12.7998 12.8008 12.7998c7.06543 0 12.7998 -5.73438 12.7998 -12.7998
v-51.2002c0 -7.06543 -5.73438 -12.7998 -12.7998 -12.7998zM140.8 140.8h-76.7998c-7.06543 0 -12.7998 5.73438 -12.7998 12.7998c0 7.06641 5.73438 12.8008 12.7998 12.8008h76.7998c7.06543 0 12.7998 -5.73438 12.7998 -12.8008
c0 -7.06543 -5.73438 -12.7998 -12.7998 -12.7998zM153.6 256c0 -7.06543 -5.73438 -12.7998 -12.7998 -12.7998s-12.7998 5.73438 -12.7998 12.7998s5.73438 12.7998 12.7998 12.7998s12.7998 -5.73438 12.7998 -12.7998zM204.8 256
c0 -7.06543 -5.73438 -12.7998 -12.7998 -12.7998s-12.7998 5.73438 -12.7998 12.7998s5.73438 12.7998 12.7998 12.7998s12.7998 -5.73438 12.7998 -12.7998zM256 256c0 -7.06543 -5.73438 -12.7998 -12.7998 -12.7998s-12.7998 5.73438 -12.7998 12.7998
s5.73438 12.7998 12.7998 12.7998s12.7998 -5.73438 12.7998 -12.7998zM307.2 256c0 -7.06543 -5.73438 -12.7998 -12.7998 -12.7998c-7.06641 0 -12.8008 5.73438 -12.8008 12.7998s5.73438 12.7998 12.8008 12.7998c7.06543 0 12.7998 -5.73438 12.7998 -12.7998z
M358.4 256c0 -7.06543 -5.73438 -12.7998 -12.8008 -12.7998c-7.06543 0 -12.7998 5.73438 -12.7998 12.7998s5.73438 12.7998 12.7998 12.7998c7.06641 0 12.8008 -5.73438 12.8008 -12.7998zM179.2 204.8c0 -7.06543 -5.73438 -12.7998 -12.7998 -12.7998
c-7.06641 0 -12.8008 5.73438 -12.8008 12.7998s5.73438 12.7998 12.8008 12.7998c7.06543 0 12.7998 -5.73438 12.7998 -12.7998zM230.4 204.8c0 -7.06543 -5.73438 -12.7998 -12.8008 -12.7998c-7.06543 0 -12.7998 5.73438 -12.7998 12.7998
s5.73438 12.7998 12.7998 12.7998c7.06641 0 12.8008 -5.73438 12.8008 -12.7998zM281.6 204.8c0 -7.06543 -5.73438 -12.7998 -12.7998 -12.7998s-12.7998 5.73438 -12.7998 12.7998s5.73438 12.7998 12.7998 12.7998s12.7998 -5.73438 12.7998 -12.7998zM332.8 204.8
c0 -7.06543 -5.73438 -12.7998 -12.7998 -12.7998s-12.7998 5.73438 -12.7998 12.7998s5.73438 12.7998 12.7998 12.7998s12.7998 -5.73438 12.7998 -12.7998zM384 204.8c0 -7.06543 -5.73438 -12.7998 -12.7998 -12.7998s-12.7998 5.73438 -12.7998 12.7998
s5.73438 12.7998 12.7998 12.7998s12.7998 -5.73438 12.7998 -12.7998zM204.8 153.6c0 -7.06543 -5.73438 -12.7998 -12.7998 -12.7998s-12.7998 5.73438 -12.7998 12.7998c0 7.06641 5.73438 12.8008 12.7998 12.8008s12.7998 -5.73438 12.7998 -12.8008zM256 153.6
c0 -7.06543 -5.73438 -12.7998 -12.7998 -12.7998s-12.7998 5.73438 -12.7998 12.7998c0 7.06641 5.73438 12.8008 12.7998 12.8008s12.7998 -5.73438 12.7998 -12.8008zM307.2 153.6c0 -7.06543 -5.73438 -12.7998 -12.7998 -12.7998
c-7.06641 0 -12.8008 5.73438 -12.8008 12.7998c0 7.06641 5.73438 12.8008 12.8008 12.8008c7.06543 0 12.7998 -5.73438 12.7998 -12.8008z" />
    <glyph glyph-name="uniF138" unicode="&#xf138;" 
d="M437.018 373.018c48.3584 -48.3584 74.9824 -112.64 74.9824 -181.018s-26.624 -132.659 -74.9824 -181.018s-112.64 -74.9824 -181.018 -74.9824s-132.659 26.624 -181.018 74.9824s-74.9824 112.64 -74.9824 181.018s26.624 132.659 74.9824 181.018
s112.64 74.9824 181.018 74.9824s132.659 -26.624 181.018 -74.9824zM470.963 274.918c-18.0986 46.7461 -50.9951 86.1699 -92.9531 112.461c15.334 -11.6729 21.7852 -30.4385 28.0322 -48.6143c7.19336 -20.9404 13.4141 -39.0146 31.001 -45.0049
c16.3838 -5.58008 28.9287 -9.85547 33.9199 -18.8418zM399.13 187.11v-0.0253906c-1.68945 15.0273 -3.58398 32.0762 12.3896 46.6426c5.53027 5.04395 10.5225 9.49805 14.9248 13.4404c6.83594 6.09277 13.7988 12.3135 17.9717 16.6143
c-4.83887 2.02246 -11.6484 4.32617 -15.6162 5.68359c-29.4912 10.0352 -38.7842 37.0684 -46.9756 60.9277c-5.40137 15.7188 -10.5215 30.5918 -20.3779 37.3252c-5.35059 3.63477 -9.90723 4.37695 -15.5391 4.37695c-2.50879 0 -5.19727 -0.15332 -8.06445 -0.332031
c-3.4043 -0.205078 -6.9375 -0.410156 -10.8281 -0.410156c-9.83105 0 -23.3223 1.17773 -40.5254 10.3428c-14.5664 7.78223 -24.832 11.085 -34.3545 11.085c-11.9297 0 -25.2676 -5.45312 -44.5957 -18.2021c-35.251 -23.2705 -44.1084 -67.3789 -32.1025 -94.8994
c8.37109 -19.1484 15.1553 -19.1484 21.1455 -19.1484v0c3.5332 0 7.73145 0.511719 12.1602 1.02441c5.68359 0.665039 12.1348 1.43359 19.251 1.43359c9.62598 0 18.5859 -1.43359 27.3408 -4.35254c20.0713 -6.70703 33.8184 -25.1133 42.0098 -56.2686
c6.40039 -24.3711 8.72949 -53.7598 10.7783 -79.667c1.35645 -16.8711 2.61035 -32.8447 4.78711 -45.1846c2.38086 -13.3887 5.04297 -17.6387 5.99023 -18.7646c33.5869 0.307617 41.4717 21.376 49.8174 43.6738c3.60938 9.625 7.01465 18.7139 12.8252 25.2412
c21.5303 24.167 19.5332 42.1123 17.5879 59.4434zM25.626 193.972v0.0507812c0 -0.666016 -0.0263672 -1.30566 -0.0263672 -1.97168c0 -26.8799 4.63379 -52.6846 13.1328 -76.6973c2.94434 9.4209 4.65918 19.6094 2.63672 27.9297
c-2.99512 12.3135 4.88965 23.501 11.2129 32.4863c1.81836 2.56055 4.55762 6.45117 5.91406 9.08789c-2.94434 1.56152 -9.67676 4.32617 -24.0645 7.39844c-3.07129 0.640625 -6.04102 1.22852 -8.80566 1.71582zM256 -38.4004h-0.0507812
c127.053 0 230.399 103.348 230.399 230.4c0 27.3408 -4.78711 53.5811 -13.5674 77.9268c0 -0.102539 0.0253906 -0.179688 0.0507812 -0.282227c2.09961 -10.3418 -5.47852 -18.6113 -8.7041 -22.1436c-4.70996 -5.12012 -11.418 -11.1104 -20.71 -19.4053
c-4.35254 -3.89062 -9.29297 -8.31934 -14.7207 -13.2607c-5.83691 -5.32422 -5.81055 -10.4443 -4.19824 -24.8828c2.20215 -19.6865 5.19727 -46.6182 -23.9102 -79.3086c-2.63672 -2.96973 -5.35059 -10.2148 -7.96191 -17.2031
c-4.4541 -11.8789 -9.9834 -26.6504 -20.8125 -38.6055c-13.0303 -14.3867 -31.1045 -21.6826 -53.7344 -21.6826c-8.24316 0 -15.6162 4.14648 -20.7617 11.6729c-3.45605 5.04395 -6.11816 11.8535 -8.19238 20.8135c-3.4043 14.7705 -4.94043 34.3291 -6.5791 55.0654
c-1.9707 24.832 -4.17285 53.0176 -10.0088 75.1611c-5.83691 22.1445 -14.1318 34.7393 -25.3701 38.5029c-6.16992 2.04785 -12.2881 3.02051 -19.2256 3.02051c-5.60645 0 -11.0078 -0.639648 -16.2559 -1.25391c-5.19727 -0.615234 -10.1123 -1.20312 -15.1553 -1.20312
v0c-20.4287 0 -34.1758 10.6494 -44.5957 34.5088c-8.83203 20.2236 -9.625 44.3643 -2.22656 67.9424c7.57715 24.1914 23.0908 44.9785 43.6992 58.5723c23.833 15.7188 41.3945 22.4258 58.7002 22.4258c13.9775 0 27.8535 -4.22363 46.3877 -14.0801
c12.1348 -6.47656 21.1963 -7.34766 28.4668 -7.34766c3.12305 0 6.27246 0.179688 9.31836 0.358398c3.12402 0.205078 6.34961 0.384766 9.60059 0.384766c5.93848 0 13.3369 -0.563477 21.5039 -4.12207c-33.0244 18.3301 -71.0146 28.7998 -111.411 28.7998
c-117.684 0 -215.015 -88.6777 -228.736 -202.726c4.53125 -0.793945 9.85645 -1.79199 15.335 -3.02148c23.6025 -5.32422 35.6094 -11.4688 40.0889 -20.582c6.40039 -12.9795 -2.22656 -25.2158 -9.16406 -35.0723c-2.53516 -3.60938 -6.75879 -9.59961 -7.16797 -12.083
c5.81055 -24.7295 -6.63086 -52.9922 -13.3379 -65.7666c38.9121 -72.2686 115.328 -121.523 203.008 -121.523z" />
    <glyph glyph-name="uniF19E" unicode="&#xf19e;" 
d="M371.2 -12.7998h-230.4c-7.06543 0 -12.7998 5.73438 -12.7998 12.7998s5.73438 12.7998 12.7998 12.7998h230.4c7.06543 0 12.7998 -5.73438 12.7998 -12.7998s-5.73438 -12.7998 -12.7998 -12.7998zM256 64c-70.5791 0 -128 57.4209 -128 128v192
c0 7.06543 5.73438 12.7998 12.7998 12.7998s12.7998 -5.73438 12.7998 -12.7998v-192c0 -56.4736 45.9268 -102.4 102.4 -102.4s102.4 45.9268 102.4 102.4v192c0 7.06543 5.73438 12.7998 12.7998 12.7998s12.7998 -5.73438 12.7998 -12.7998v-192
c0 -70.5791 -57.4209 -128 -128 -128z" />
    <glyph glyph-name="uniF156" unicode="&#xf156;" 
d="M256 140.8c-1.68945 0 -3.37891 0.333008 -4.9668 0.999023l-243.199 102.399c-4.73633 1.99707 -7.83398 6.65625 -7.83398 11.8018s3.09766 9.80469 7.83398 11.8018l243.199 102.399c3.1748 1.33203 6.75879 1.33203 9.93359 0l243.199 -102.399
c4.73633 -1.99707 7.83398 -6.65625 7.83398 -11.8018s-3.09766 -9.80469 -7.83398 -11.8018l-243.199 -102.399c-1.58789 -0.666016 -3.27734 -0.999023 -4.9668 -0.999023zM45.7725 256l210.228 -88.499l210.228 88.499l-210.228 88.499zM256 64
c-1.68945 0 -3.37891 0.333008 -4.9668 0.998047l-243.199 102.4c-6.50293 2.73926 -9.5752 10.2402 -6.83594 16.7676c2.73926 6.52832 10.2402 9.5752 16.7686 6.83594l238.233 -100.301l238.233 100.301c6.50293 2.73926 14.0293 -0.307617 16.7686 -6.83594
c2.73926 -6.52734 -0.307617 -14.0283 -6.83594 -16.7676l-243.199 -102.4c-1.58789 -0.665039 -3.27734 -0.998047 -4.9668 -0.998047zM256 -12.7998c-1.68945 0 -3.37891 0.333008 -4.9668 0.998047l-243.199 102.4c-6.50293 2.73926 -9.5752 10.2402 -6.83594 16.7676
c2.73926 6.52832 10.2402 9.57422 16.7686 6.83496l238.233 -100.301l238.233 100.301c6.50293 2.73926 14.0293 -0.306641 16.7686 -6.83496c2.73926 -6.52734 -0.307617 -14.0283 -6.83594 -16.7676l-243.199 -102.4
c-1.58789 -0.665039 -3.27734 -0.998047 -4.9668 -0.998047z" />
    <glyph glyph-name="uniF101" unicode="&#xf101;" 
d="M358.4 294.4h25.5996v-25.6006h-25.5996v25.6006zM358.4 243.2h25.5996v-25.6006h-25.5996v25.6006zM358.4 192h25.5996v-25.5996h-25.5996v25.5996zM358.4 140.8h25.5996v-25.5996h-25.5996v25.5996zM358.4 38.4004h25.5996v-25.6006h-25.5996v25.6006zM358.4 89.5996
h25.5996v-25.5996h-25.5996v25.5996zM153.6 294.4h25.6006v-25.6006h-25.6006v25.6006zM153.6 243.2h25.6006v-25.6006h-25.6006v25.6006zM153.6 192h25.6006v-25.5996h-25.6006v25.5996zM153.6 140.8h25.6006v-25.5996h-25.6006v25.5996zM153.6 38.4004h25.6006v-25.6006
h-25.6006v25.6006zM153.6 89.5996h25.6006v-25.5996h-25.6006v25.5996zM102.4 294.4h25.5996v-25.6006h-25.5996v25.6006zM102.4 243.2h25.5996v-25.6006h-25.5996v25.6006zM102.4 192h25.5996v-25.5996h-25.5996v25.5996zM102.4 140.8h25.5996v-25.5996h-25.5996v25.5996z
M102.4 38.4004h25.5996v-25.6006h-25.5996v25.6006zM102.4 89.5996h25.5996v-25.5996h-25.5996v25.5996zM204.8 294.4h25.6006v-25.6006h-25.6006v25.6006zM204.8 243.2h25.6006v-25.6006h-25.6006v25.6006zM204.8 192h25.6006v-25.5996h-25.6006v25.5996zM204.8 140.8
h25.6006v-25.5996h-25.6006v25.5996zM204.8 38.4004h25.6006v-25.6006h-25.6006v25.6006zM204.8 89.5996h25.6006v-25.5996h-25.6006v25.5996zM473.6 -38.4004v0.0263672c7.06641 0 12.8008 -5.73438 12.8008 -12.8008c0 -7.06543 -5.73438 -12.7998 -12.8008 -12.7998
h-460.8c-7.06543 0 -12.7998 5.73438 -12.7998 12.7998c0 7.06641 5.73438 12.8008 12.7998 12.8008h12.7998v371.199c0 19.6865 14.7715 39.5527 33.6387 45.21l231.476 69.4531c3.86523 1.15137 8.06348 0.40918 11.3145 -1.99707
c3.25195 -2.40625 5.17188 -6.2207 5.17188 -10.2656v-41.9844l120.55 -40.1914c18.5352 -6.19531 33.0498 -26.3174 33.0498 -45.8496v-345.601h12.7998zM419.661 328.755l-112.461 37.4785v-404.634h128v345.601c0 8.57617 -7.39844 18.8418 -15.5391 21.5547z
M51.2002 332.8v-371.2h230.399v456.397l-214.988 -64.5127c-8.06445 -2.40625 -15.4111 -12.2617 -15.4111 -20.6846z" />
    <glyph glyph-name="uniF132" unicode="&#xf132;" 
d="M140.8 38.4004c-21.1709 0 -38.3994 17.2285 -38.3994 38.3994c0 21.1719 17.2285 38.4004 38.3994 38.4004c21.1719 0 38.4004 -17.2285 38.4004 -38.4004c0 -21.1709 -17.2285 -38.3994 -38.4004 -38.3994zM140.8 89.5996
c-7.06543 0 -12.7998 -5.73438 -12.7998 -12.7998s5.73438 -12.7998 12.7998 -12.7998s12.7998 5.73438 12.7998 12.7998s-5.73438 12.7998 -12.7998 12.7998zM140.8 140.8c-21.1709 0 -38.3994 17.2285 -38.3994 38.4004c0 21.1709 17.2285 38.3994 38.3994 38.3994
c21.1719 0 38.4004 -17.2285 38.4004 -38.3994c0 -21.1719 -17.2285 -38.4004 -38.4004 -38.4004zM140.8 192c-7.06543 0 -12.7998 -5.73438 -12.7998 -12.7998s5.73438 -12.7998 12.7998 -12.7998s12.7998 5.73438 12.7998 12.7998s-5.73438 12.7998 -12.7998 12.7998z
M140.8 243.2c-21.1709 0 -38.3994 17.2285 -38.3994 38.3994c0 21.1719 17.2285 38.4004 38.3994 38.4004c21.1719 0 38.4004 -17.2285 38.4004 -38.4004c0 -21.1709 -17.2285 -38.3994 -38.4004 -38.3994zM140.8 294.4c-7.06543 0 -12.7998 -5.73438 -12.7998 -12.8008
c0 -7.06543 5.73438 -12.7998 12.7998 -12.7998s12.7998 5.73438 12.7998 12.7998c0 7.06641 -5.73438 12.8008 -12.7998 12.8008zM345.6 243.2c-21.1709 0 -38.3994 17.2285 -38.3994 38.3994c0 21.1719 17.2285 38.4004 38.3994 38.4004
c21.1719 0 38.4004 -17.2285 38.4004 -38.4004c0 -21.1709 -17.2285 -38.3994 -38.4004 -38.3994zM345.6 294.4c-7.06543 0 -12.7998 -5.73438 -12.7998 -12.8008c0 -7.06543 5.73438 -12.7998 12.7998 -12.7998c7.06641 0 12.8008 5.73438 12.8008 12.7998
c0 7.06641 -5.73438 12.8008 -12.8008 12.8008zM345.6 140.8c-21.1709 0 -38.3994 17.2285 -38.3994 38.4004c0 21.1709 17.2285 38.3994 38.3994 38.3994c21.1719 0 38.4004 -17.2285 38.4004 -38.3994c0 -21.1719 -17.2285 -38.4004 -38.4004 -38.4004zM345.6 192
c-7.06543 0 -12.7998 -5.73438 -12.7998 -12.7998s5.73438 -12.7998 12.7998 -12.7998c7.06641 0 12.8008 5.73438 12.8008 12.7998s-5.73438 12.7998 -12.8008 12.7998zM345.6 38.4004c-21.1709 0 -38.3994 17.2285 -38.3994 38.3994
c0 21.1719 17.2285 38.4004 38.3994 38.4004c21.1719 0 38.4004 -17.2285 38.4004 -38.4004c0 -21.1709 -17.2285 -38.3994 -38.4004 -38.3994zM345.6 89.5996c-7.06543 0 -12.7998 -5.73438 -12.7998 -12.7998s5.73438 -12.7998 12.7998 -12.7998
c7.06641 0 12.8008 5.73438 12.8008 12.7998s-5.73438 12.7998 -12.8008 12.7998zM396.8 -38.4004h-307.2c-35.2764 0 -64 28.7236 -64 64v307.2c0 35.2773 28.7236 64 64 64h307.2c35.2773 0 64 -28.7227 64 -64v-307.2c0 -35.2764 -28.7227 -64 -64 -64zM89.5996 371.2
c-21.1709 0 -38.3994 -17.2285 -38.3994 -38.4004v-307.2c0 -21.1709 17.2285 -38.3994 38.3994 -38.3994h307.2c21.1719 0 38.4004 17.2285 38.4004 38.3994v307.2c0 21.1719 -17.2285 38.4004 -38.4004 38.4004h-307.2z" />
    <glyph glyph-name="uniF191" unicode="&#xf191;" 
d="M422.4 -64h-332.801c-21.1709 0 -38.3994 17.2285 -38.3994 38.4004v435.199c0 21.1719 17.2285 38.4004 38.3994 38.4004h332.801c21.1709 0 38.3994 -17.2285 38.3994 -38.4004v-435.199c0 -21.1719 -17.2285 -38.4004 -38.3994 -38.4004zM89.5996 422.4
c-7.06543 0 -12.7998 -5.73438 -12.7998 -12.8008v-435.199c0 -7.06641 5.73438 -12.8008 12.7998 -12.8008h332.801c7.06543 0 12.7998 5.73438 12.7998 12.8008v435.199c0 7.06641 -5.73438 12.8008 -12.7998 12.8008h-332.801zM268.8 -12.7998h-25.5996
c-7.06543 0 -12.7998 5.73438 -12.7998 12.7998s5.73438 12.7998 12.7998 12.7998h25.5996c7.06543 0 12.7998 -5.73438 12.7998 -12.7998s-5.73438 -12.7998 -12.7998 -12.7998zM396.8 38.4004h-281.6c-7.06543 0 -12.7998 5.73438 -12.7998 12.7998v332.8
c0 7.06543 5.73438 12.7998 12.7998 12.7998h281.6c7.06543 0 12.7998 -5.73438 12.7998 -12.7998v-332.8c0 -7.06543 -5.73438 -12.7998 -12.7998 -12.7998zM128 64h256v307.2h-256v-307.2z" />
    <glyph glyph-name="uniF164" unicode="&#xf164;" 
d="M448 294.4h-384c-7.06543 0 -12.7998 5.73438 -12.7998 12.7998s5.73438 12.7998 12.7998 12.7998h384c7.06543 0 12.7998 -5.73438 12.7998 -12.7998s-5.73438 -12.7998 -12.7998 -12.7998zM448 166.4h-384c-7.06543 0 -12.7998 5.73438 -12.7998 12.7998
s5.73438 12.7998 12.7998 12.7998h384c7.06543 0 12.7998 -5.73438 12.7998 -12.7998s-5.73438 -12.7998 -12.7998 -12.7998zM448 38.4004h-384c-7.06543 0 -12.7998 5.73438 -12.7998 12.7998s5.73438 12.7998 12.7998 12.7998h384
c7.06543 0 12.7998 -5.73438 12.7998 -12.7998s-5.73438 -12.7998 -12.7998 -12.7998z" />
    <glyph glyph-name="uniF15E" unicode="&#xf15e;" 
d="M217.6 -64c-1.10059 0 -2.22656 0.15332 -3.32715 0.435547c-5.58105 1.50977 -9.47266 6.5791 -9.47266 12.3643v192h-192c-5.78516 0 -10.8545 3.8916 -12.3643 9.47266c-1.51074 5.58008 0.947266 11.4941 5.93848 14.3867l486.4 281.6
c5.01758 2.89355 11.3662 2.07422 15.4619 -2.02246c4.09668 -4.0957 4.94141 -10.4443 2.02246 -15.4619l-281.6 -486.4c-2.3291 -4.01855 -6.60449 -6.37402 -11.085 -6.37402h0.0253906zM60.4668 166.4h157.133c7.06641 0 12.8008 -5.73438 12.8008 -12.8008v-157.133
l233.677 403.61z" />
    <glyph glyph-name="uniF186" unicode="&#xf186;" 
d="M243.2 -64c-64.9727 0 -126.029 25.293 -171.981 71.2188c-45.9512 45.9268 -71.2188 107.009 -71.2188 171.956c0 64.9727 25.293 126.028 71.2188 171.98c45.9268 45.9521 107.009 71.2451 171.981 71.2451s126.028 -25.293 171.98 -71.2451
s71.2197 -107.008 71.2197 -171.98c0 -64.9736 -25.293 -126.029 -71.2197 -171.956c-45.9258 -45.9258 -107.008 -71.2188 -171.98 -71.2188zM243.2 396.8c-119.987 0 -217.601 -97.6123 -217.601 -217.6s97.6133 -217.601 217.601 -217.601s217.6 97.6133 217.6 217.601
s-97.6123 217.6 -217.6 217.6zM166.4 243.2c-21.1719 0 -38.4004 17.2285 -38.4004 38.3994c0 21.1719 17.2285 38.4004 38.4004 38.4004c21.1709 0 38.3994 -17.2285 38.3994 -38.4004c0 -21.1709 -17.2285 -38.3994 -38.3994 -38.3994zM166.4 294.4
c-7.06641 0 -12.8008 -5.73438 -12.8008 -12.8008c0 -7.06543 5.73438 -12.7998 12.8008 -12.7998c7.06543 0 12.7998 5.73438 12.7998 12.7998c0 7.06641 -5.73438 12.8008 -12.7998 12.8008zM320 243.2c-21.1709 0 -38.4004 17.2285 -38.4004 38.3994
c0 21.1719 17.2295 38.4004 38.4004 38.4004s38.4004 -17.2285 38.4004 -38.4004c0 -21.1709 -17.2295 -38.3994 -38.4004 -38.3994zM320 294.4c-7.06543 0 -12.7998 -5.73438 -12.7998 -12.8008c0 -7.06543 5.73438 -12.7998 12.7998 -12.7998
s12.7998 5.73438 12.7998 12.7998c0 7.06641 -5.73438 12.8008 -12.7998 12.8008zM243.2 12.7998c-91.751 0 -166.4 74.6494 -166.4 166.4c0 7.06543 5.73438 12.7998 12.7998 12.7998c7.06641 0 12.8008 -5.73438 12.8008 -12.7998c0 -77.6445 63.1553 -140.8 140.8 -140.8
s140.8 63.1553 140.8 140.8c0 7.06543 5.73438 12.7998 12.7998 12.7998s12.7998 -5.73438 12.7998 -12.7998c0 -91.751 -74.6494 -166.4 -166.399 -166.4z" />
    <glyph glyph-name="uniF185" unicode="&#xf185;" 
d="M268.8 -12.7998h-25.5996c-7.06543 0 -12.7998 5.73438 -12.7998 12.7998s5.73438 12.7998 12.7998 12.7998h25.5996c7.06543 0 12.7998 -5.73438 12.7998 -12.7998s-5.73438 -12.7998 -12.7998 -12.7998zM371.2 -64h-230.4
c-21.1709 0 -38.3994 17.2285 -38.3994 38.4004v435.199c0 21.1719 17.2285 38.4004 38.3994 38.4004h230.4c21.1709 0 38.3994 -17.2285 38.3994 -38.4004v-435.199c0 -21.1719 -17.2285 -38.4004 -38.3994 -38.4004zM140.8 422.4
c-7.06543 0 -12.7998 -5.73438 -12.7998 -12.8008v-435.199c0 -7.06641 5.73438 -12.8008 12.7998 -12.8008h230.4c7.06543 0 12.7998 5.73438 12.7998 12.8008v435.199c0 7.06641 -5.73438 12.8008 -12.7998 12.8008h-230.4zM345.6 38.4004h-179.199
c-7.06641 0 -12.8008 5.73438 -12.8008 12.7998v332.8c0 7.06543 5.73438 12.7998 12.8008 12.7998h179.199c7.06641 0 12.8008 -5.73438 12.8008 -12.7998v-332.8c0 -7.06543 -5.73438 -12.7998 -12.8008 -12.7998zM179.2 64h153.6v307.2h-153.6v-307.2z" />
    <glyph glyph-name="uniF159" unicode="&#xf159;" 
d="M448 217.6c7.06543 0 12.7998 -5.73438 12.7998 -12.7998v-230.399c0 -7.06641 -5.73438 -12.8008 -12.7998 -12.8008h-204.8c-7.06543 0 -12.7998 5.73438 -12.7998 12.8008v208.23l-69.4785 -40.1152c-2.02246 -1.15234 -4.22461 -1.71582 -6.40039 -1.71582
c-4.40332 0 -8.7041 2.30371 -11.085 6.40039l-102.399 177.356c-3.5332 6.11816 -1.43359 13.9521 4.68457 17.4854l88.6787 51.1992c6.11816 3.5332 13.9512 1.43359 17.4844 -4.68457l98.7139 -170.957h31.001v38.4004c0 7.06543 5.73438 12.7998 12.8008 12.7998
h102.579c4.86328 0 9.31836 -2.76465 11.4688 -7.11621l21.8877 -44.084h17.6641zM435.2 64v76.7998h-25.6006v-76.7998h25.6006zM307.2 243.2v-25.6006h94.5664l-12.7236 25.6006h-81.8428zM159.206 171.085l66.5088 38.3994l-89.5996 155.188l-66.5088 -38.3994z
M256 -12.7998h179.2v51.2002h-38.4004c-7.06543 0 -12.7998 5.73438 -12.7998 12.7998v102.399c0 7.06641 5.73438 12.8008 12.7998 12.8008h38.4004v25.5996h-12.7236h-0.0507812h-0.102539h-166.323v-204.8zM396.8 294.4c-19.2002 0 -28.5439 9.06152 -32.998 16.6904
c-8.47363 14.4648 -7.04004 36.3008 4.32617 66.7139c7.6543 20.4541 17.1006 37.3506 17.5107 38.0674c2.27832 4.01953 6.52734 6.52832 11.1611 6.52832s8.88379 -2.4834 11.1621 -6.52832c0.40918 -0.716797 9.85547 -17.6133 17.5098 -38.0674
c11.3672 -30.4385 12.8008 -52.249 4.32715 -66.7139c-4.45508 -7.60254 -13.7988 -16.6904 -32.999 -16.6904zM396.8 380.416c-1.6123 -3.7373 -3.25098 -7.73145 -4.78711 -11.8525c-11.5967 -31.1807 -7.60352 -41.9844 -6.09277 -44.5703
c0.639648 -1.10059 2.35547 -3.99316 10.8799 -3.99316c8.52539 0 10.2656 2.91797 10.9062 3.99316c1.50977 2.58594 5.5293 13.4404 -6.22168 44.8262c-1.50977 4.04492 -3.09766 7.93555 -4.68457 11.5967z" />
    <glyph glyph-name="uniF126" unicode="&#xf126;" 
d="M409.754 38.4004h-64.1543c-7.06543 0 -12.7998 5.73438 -12.7998 12.7998s5.73438 12.7998 12.7998 12.7998h64.1543c42.2656 0 76.6465 34.3809 76.6465 76.6465s-34.3809 76.6465 -76.6465 76.6465c-9.01172 0 -17.8184 -1.53613 -26.1895 -4.58301
c-5.58008 -2.02148 -11.8271 0.0517578 -15.0781 5.01758c-3.25098 4.9668 -2.66211 11.5205 1.43359 15.8213c9.08789 9.54883 14.0801 22.0674 14.0801 35.251c0 28.2373 -22.9629 51.2002 -51.2002 51.2002c-16.4346 0 -31.4619 -7.60352 -41.2158 -20.8389
c-5.8623 -7.93555 -9.26758 -17.3311 -9.88184 -27.1611c-0.333008 -5.42676 -4.07031 -10.0605 -9.31836 -11.5459c-5.24805 -1.48438 -10.8281 0.538086 -13.9521 4.99219l-0.12793 0.179688c-2.73926 3.89062 -5.78516 7.73047 -8.98535 11.3145
c-24.2939 27.3408 -59.1875 43.0342 -95.7441 43.0342c-70.5791 0 -128 -57.4209 -128 -128s57.4209 -128 128 -128h38.4004c7.06543 0 12.7998 -5.73438 12.7998 -12.7998c0 -7.06641 -5.73438 -12.8008 -12.7998 -12.8008h-38.4004
c-84.6846 0 -153.6 68.916 -153.6 153.601s68.915 153.6 153.6 153.6c41.0371 0 80.3076 -16.4609 109.082 -45.4395c2.22656 4.99121 5.01758 9.75293 8.29395 14.208c14.4385 19.5576 37.5557 31.2314 61.8242 31.2314c42.3428 0 76.7998 -34.457 76.7998 -76.7998
c0 -8.98535 -1.56152 -17.7666 -4.50586 -26.0352c1.5625 0.0771484 3.12402 0.102539 4.68555 0.102539c56.3711 0 102.246 -45.875 102.246 -102.247c0 -56.3711 -45.875 -102.246 -102.246 -102.246v0.0517578zM329.062 111.462h0.0507812
c4.99219 -4.99121 4.99219 -13.1064 0 -18.0986l-51.1992 -51.2002c-2.50879 -2.4834 -5.78613 -3.7373 -9.0625 -3.7373c-3.27734 0 -6.55371 1.22852 -9.0625 3.7373l-51.2002 51.2002c-4.99219 4.99219 -4.99219 13.1074 0 18.0986
c4.99219 4.99219 13.1074 4.99219 18.0996 0l29.3369 -29.3369v97.1006c0 7.06543 5.73438 12.7998 12.7998 12.7998c7.06641 0 12.8008 -5.73438 12.8008 -12.7998v-97.1006l29.3369 29.3369c4.99219 4.99219 13.1074 4.99219 18.0996 0z" />
    <glyph glyph-name="uniF1AE" unicode="&#xf1ae;" 
d="M245.606 416.034c4.10449 -2.53418 8.67871 -6.22949 13.7725 -11.1016c4.90723 -5.07812 9.67676 -11.3242 14.3877 -18.7051c4.49707 -6.98926 8.47363 -15.207 11.9639 -24.7217c2.84082 -9.51465 4.27441 -20.625 4.27441 -33.2969
c-0.366211 -23.2617 -5.51172 -41.8477 -15.4111 -55.8252c-4.82129 -6.75 -9.95801 -12.9873 -15.3848 -18.7051c-6.00781 -5.69141 -12.3906 -11.5195 -19.1582 -17.4336c-3.89062 -4.01855 -7.44922 -8.5498 -10.7432 -13.6357
c-3.87402 -5.28223 -5.81152 -11.4004 -5.81152 -18.373c0 -6.80957 1.98828 -12.4072 5.97363 -16.8271c3.35352 -4.23242 6.65625 -7.94434 9.83887 -11.1104l22.0508 -18.0742c13.6953 -11.2295 25.7109 -23.5264 36.0439 -37.0771
c9.72852 -13.7559 14.7891 -31.7266 15.2158 -53.8965c0 -31.4961 -13.918 -59.4004 -41.7373 -83.7285c-28.8164 -25.1738 -70.4512 -38.1611 -124.843 -38.9893c-45.5332 0.417969 -79.5215 10.1289 -101.981 29.0898c-22.6387 17.7412 -33.9883 38.9297 -33.9883 63.6162
c0 12.0068 3.66895 25.4385 11.085 40.209c7.125 14.7549 20.0791 27.7422 38.8438 38.9209c21.0264 11.998 43.1611 20.0537 66.3291 24.0635c22.9463 3.35449 41.9932 5.27441 57.165 5.66699c-4.69336 6.18652 -8.86621 12.7656 -12.5352 19.7803
c-4.27539 6.80078 -6.3916 15.001 -6.3916 24.5332c0 5.73438 0.801758 10.5469 2.43164 14.3525c1.42578 4.0625 2.75684 7.74805 3.95996 11.1621c-7.37305 -0.836914 -14.3447 -1.28027 -20.8555 -1.28027c-34.6289 0.443359 -60.9961 11.332 -79.1299 32.666
c-19.0205 19.8994 -28.5273 43.042 -28.5273 69.4521c0 31.9238 13.4492 60.8682 40.3799 86.8779c18.4746 15.207 37.6748 25.1055 57.583 29.7988c19.7119 4.02734 38.1953 6.02441 55.4238 6.02441h129.997l-40.1494 -23.4326h-40.0723zM270.703 41.8477
c0 16.5293 -5.36719 30.8652 -16.1113 43.127c-11.4092 11.623 -29.1924 25.873 -53.4102 42.8125c-4.16406 0.443359 -9.02832 0.630859 -14.6006 0.630859c-3.31055 0.417969 -11.793 0 -25.4551 -1.25391c-13.4482 -1.91211 -27.2295 -4.97559 -41.292 -9.20801
c-3.32812 -1.24609 -7.96191 -3.17383 -13.9697 -5.7002c-5.99023 -2.74805 -12.0996 -6.67285 -18.3125 -11.7334c-6.00684 -5.29883 -11.0762 -11.8359 -15.2061 -19.6689c-4.77832 -8.25195 -7.125 -18.1934 -7.125 -29.8066
c0 -22.8438 10.3164 -41.6602 31.0098 -56.4736c19.6689 -14.7803 46.5664 -22.3838 80.7256 -22.8184c30.6348 0.43457 54.0244 7.18457 70.1523 20.3008c15.7266 12.9023 23.5947 29.4736 23.5947 49.792zM180.096 232.396
c17.1016 0.623047 31.3691 6.78418 42.7607 18.4492c5.5127 8.26074 9.03711 16.7256 10.6152 25.4121c0.930664 8.69531 1.42578 15.9834 1.42578 21.9395c0 25.5918 -6.57129 51.4648 -19.6699 77.5c-6.15234 12.4844 -14.2422 22.6729 -24.2861 30.5146
c-10.2393 7.37305 -22.0244 11.3242 -35.3271 11.7334c-17.6221 -0.40918 -32.248 -7.51758 -43.9385 -21.2988c-9.84766 -14.3955 -14.5664 -30.4893 -14.1143 -48.2812c0 -23.501 6.86133 -47.9404 20.625 -73.3867c6.67285 -11.8535 15.2402 -21.9141 25.7969 -30.1738
c10.5127 -8.28613 22.5527 -12.4082 36.1123 -12.4082zM501.939 368.461v-33.041h-68.207v-68.1982h-33.041v68.1982h-68.207v33.041h68.207v68.2324h33.041v-68.2324h68.207z" />
    <glyph glyph-name="uniF19D" unicode="&#xf19d;" horiz-adv-x="511" 
d="M377.6 396.8c21.1719 0 38.4004 -17.2285 38.4004 -38.3994v-25.6006c0 -16.6914 -10.7012 -30.9248 -25.6006 -36.1982v-322.201c0 -21.1719 -17.2285 -38.4004 -38.3994 -38.4004h-256c-21.1719 0 -38.4004 17.2285 -38.4004 38.4004v322.201
c-14.8994 5.27344 -25.5996 19.5068 -25.5996 36.1982v25.6006c0 21.1709 17.2285 38.3994 38.3994 38.3994h89.6006v12.7998c0 21.1719 17.2285 38.4004 38.3994 38.4004h51.2002c21.1719 0 38.4004 -17.2285 38.4004 -38.4004v-12.7998h89.5996zM185.6 409.6v-12.7998
h76.7998v12.7998c0 7.06641 -5.73438 12.8008 -12.7998 12.8008h-51.2002c-7.06543 0 -12.7998 -5.73438 -12.7998 -12.8008zM352 -38.4004c7.06543 0 12.7998 5.73438 12.7998 12.8008v320h-281.6v-320c0 -7.06641 5.73438 -12.8008 12.7998 -12.8008h256zM390.399 332.8
v25.6006c0 7.06543 -5.73438 12.7998 -12.7998 12.7998h-307.2c-7.06543 0 -12.7998 -5.73438 -12.7998 -12.7998v-25.6006c0 -7.06543 5.73438 -12.7998 12.7998 -12.7998h307.2c7.06543 0 12.7998 5.73438 12.7998 12.7998zM300.8 268.8
c7.06543 0 12.7998 -5.73438 12.7998 -12.7998v-256c0 -7.06543 -5.73438 -12.7998 -12.7998 -12.7998s-12.7998 5.73438 -12.7998 12.7998v256c0 7.06543 5.73438 12.7998 12.7998 12.7998zM224 268.8c7.06543 0 12.7998 -5.73438 12.7998 -12.7998v-256
c0 -7.06543 -5.73438 -12.7998 -12.7998 -12.7998s-12.7998 5.73438 -12.7998 12.7998v256c0 7.06543 5.73438 12.7998 12.7998 12.7998zM147.2 268.8c7.06543 0 12.7998 -5.73438 12.7998 -12.7998v-256c0 -7.06543 -5.73438 -12.7998 -12.7998 -12.7998
c-7.06641 0 -12.8008 5.73438 -12.8008 12.7998v256c0 7.06543 5.73438 12.7998 12.8008 12.7998z" />
    <glyph glyph-name="uniF12A" unicode="&#xf12a;" 
d="M256 64c-42.3428 0 -76.7998 34.458 -76.7998 76.7998c0 42.3428 34.457 76.7998 76.7998 76.7998s76.7998 -34.457 76.7998 -76.7998c0 -42.3418 -34.457 -76.7998 -76.7998 -76.7998zM256 192c-28.2363 0 -51.2002 -22.9629 -51.2002 -51.2002
c0 -28.2363 22.9639 -51.2002 51.2002 -51.2002s51.2002 22.9639 51.2002 51.2002c0 28.2373 -22.9639 51.2002 -51.2002 51.2002zM407.143 395.366h-0.0517578c16.1797 -4.53125 28.0576 -19.3789 28.0576 -36.9658v-25.6006
c0 -16.9727 -11.0586 -31.3857 -26.3418 -36.4541l-23.0654 -322.919c-1.48535 -20.6328 -19.5078 -37.4268 -40.1924 -37.4268h-179.2c-20.6846 0 -38.707 16.7939 -40.1914 37.4268l-23.0664 322.919c-15.2832 5.06836 -26.3418 19.4814 -26.3418 36.4541v25.6006
c0 17.5869 11.9033 32.4346 28.0576 36.9658l4.53125 18.0996c4.86328 19.3535 24.2686 34.5342 44.2363 34.5342h204.8c19.9688 0 39.3984 -15.1807 44.2373 -34.5342zM153.6 422.4h-0.0253906c-8.16602 0 -17.4082 -7.21973 -19.3789 -15.1299l-2.61133 -10.4707h248.807
l-2.61133 10.4707c-1.97168 7.91016 -11.2129 15.1299 -19.3789 15.1299h-204.801zM381.235 268.8h0.0253906l1.81738 25.6006h-254.105l1.81738 -25.6006h250.445zM364.774 38.4004h0.0253906l14.6182 204.8h-246.784l14.6172 -204.8h217.523zM345.6 -38.4004h-0.0253906
c7.42383 0 14.1318 6.24707 14.6689 13.6455l2.68848 37.5547h-213.889l2.68848 -37.5547c0.537109 -7.39844 7.24414 -13.6455 14.6689 -13.6455h179.199zM409.6 332.8h0.0263672v25.6006c0 7.06543 -5.73438 12.7998 -12.8008 12.7998h-281.522h-0.0771484h-0.0507812
c-7.04004 -0.0253906 -12.7744 -5.75977 -12.7744 -12.7998v-25.6006c0 -7.06543 5.73438 -12.7998 12.7998 -12.7998h281.6c7.06543 0 12.7998 5.73438 12.7998 12.7998z" />
    <glyph glyph-name="uniF146" unicode="&#xf146;" 
d="M473.6 320c7.06641 0 12.8008 -5.73438 12.8008 -12.7998v-76.7998c0 -7.06641 -5.73438 -12.8008 -12.8008 -12.8008h-12.7998v-243.199c0 -21.1719 -17.2285 -38.4004 -38.3994 -38.4004h-358.4c-21.1709 0 -38.4004 17.2285 -38.4004 38.4004v243.199h-12.7998
c-7.06543 0 -12.7998 5.73438 -12.7998 12.8008v76.7998c0 7.06543 5.73438 12.7998 12.7998 12.7998h76.8262c-8.03906 10.7012 -12.8262 24.0127 -12.8262 38.4004c0 35.2764 28.7236 64 64 64c35.584 0 65.4336 -28.2119 80.0518 -45.0049
c8.85742 -10.1895 16.4863 -21.0693 22.3486 -31.6162c5.8623 10.5469 13.4912 21.4531 22.3486 31.6162c14.6172 16.8193 44.4668 45.0049 80.0508 45.0049c35.2773 0 64 -28.7236 64 -64c0 -14.3877 -4.76074 -27.6992 -12.8252 -38.4004h76.8252zM284.852 360.602
c-12.3398 -14.1826 -21.2998 -29.2861 -25.7285 -40.6016h86.4766c21.1719 0 38.4004 17.2285 38.4004 38.4004c0 21.1709 -17.2285 38.3994 -38.4004 38.3994c-18.585 0 -40.7295 -13.1836 -60.748 -36.1982zM281.6 -38.4004v332.801h-76.7998v-332.801h76.7998z
M102.4 358.4c0 -21.1719 17.2285 -38.4004 38.3994 -38.4004h86.4766c-4.42871 11.3154 -13.3887 26.4189 -25.7275 40.6016c-20.0195 23.0146 -42.1631 36.1982 -60.749 36.1982c-21.1709 0 -38.3994 -17.2285 -38.3994 -38.3994zM25.5996 294.4v-51.2002h153.601v51.2002
h-153.601zM51.2002 -25.5996c0 -7.06641 5.73438 -12.8008 12.7998 -12.8008h115.2v256h-128v-243.199zM435.2 -25.5996v243.199h-128v-256h115.2c7.06543 0 12.7998 5.73438 12.7998 12.8008zM460.8 243.2v51.2002h-153.6v-51.2002h153.6z" />
    <glyph glyph-name="uniF122" unicode="&#xf122;" 
d="M415.181 351.181c45.9268 -45.9258 71.2197 -106.982 71.2197 -171.955s-25.2676 -126.055 -71.2197 -171.98c-45.9521 -45.9268 -107.008 -71.2197 -171.98 -71.2197s-126.055 25.2676 -171.981 71.2197c-45.9258 45.9521 -71.2188 107.033 -71.2188 171.98
s25.2676 126.029 71.2188 171.955c45.9521 45.9268 107.009 71.2197 171.981 71.2197s126.055 -25.293 171.98 -71.2197zM243.2 -38.4004c119.987 0 217.6 97.6133 217.6 217.601s-97.6123 217.6 -217.6 217.6s-217.601 -97.6123 -217.601 -217.6
s97.6133 -217.601 217.601 -217.601zM396.8 166.4h-307.2c-7.06543 0 -12.7998 5.73438 -12.7998 12.7998s5.73438 12.7998 12.7998 12.7998h307.2c7.06543 0 12.7998 -5.73438 12.7998 -12.7998s-5.73438 -12.7998 -12.7998 -12.7998z" />
    <glyph glyph-name="uniF193" unicode="&#xf193;" 
d="M448 320h-384c-7.06543 0 -12.7998 5.73438 -12.7998 12.7998s5.73438 12.7998 12.7998 12.7998h384c7.06543 0 12.7998 -5.73438 12.7998 -12.7998s-5.73438 -12.7998 -12.7998 -12.7998zM396.8 243.2h-281.6c-7.06543 0 -12.7998 5.73438 -12.7998 12.7998
s5.73438 12.7998 12.7998 12.7998h281.6c7.06543 0 12.7998 -5.73438 12.7998 -12.7998s-5.73438 -12.7998 -12.7998 -12.7998zM448 166.4h-384c-7.06543 0 -12.7998 5.73438 -12.7998 12.7998s5.73438 12.7998 12.7998 12.7998h384
c7.06543 0 12.7998 -5.73438 12.7998 -12.7998s-5.73438 -12.7998 -12.7998 -12.7998zM396.8 89.5996h-281.6c-7.06543 0 -12.7998 5.73438 -12.7998 12.8008c0 7.06543 5.73438 12.7998 12.7998 12.7998h281.6c7.06543 0 12.7998 -5.73438 12.7998 -12.7998
c0 -7.06641 -5.73438 -12.8008 -12.7998 -12.8008zM448 12.7998h-384c-7.06543 0 -12.7998 5.73438 -12.7998 12.7998c0 7.06641 5.73438 12.8008 12.7998 12.8008h384c7.06543 0 12.7998 -5.73438 12.7998 -12.8008c0 -7.06543 -5.73438 -12.7998 -12.7998 -12.7998z" />
    <glyph glyph-name="uniF1A5" unicode="&#xf1a5;" 
d="M349.517 67.0469c-3.71191 0 -7.39844 1.6123 -9.93262 4.70996c-4.4541 5.47852 -3.63477 13.542 1.84277 17.9971c27.0596 21.9902 42.5732 54.6045 42.5732 89.4209c0 34.8154 -15.5137 67.4043 -42.5469 89.4199c-5.47852 4.45508 -6.32324 12.5186 -1.84375 17.9971
c4.48047 5.47852 12.5186 6.32324 17.9971 1.84375c33.0498 -26.8799 51.9932 -66.7139 51.9932 -109.287c0 -42.5723 -18.9434 -82.3809 -51.9932 -109.286c-2.38086 -1.91992 -5.22266 -2.86719 -8.06445 -2.86719zM397.952 7.44922
c-3.71191 0 -7.39844 1.61328 -9.93262 4.71094c-4.45508 5.47852 -3.63574 13.542 1.84277 17.9971c45.082 36.6592 70.9375 90.9824 70.9375 149.018s-25.8555 112.358 -70.9375 149.018c-5.47852 4.4541 -6.32324 12.5176 -1.84277 17.9961
c4.47949 5.47852 12.5186 6.32324 17.9961 1.84375c51.0723 -41.5488 80.3848 -103.117 80.3848 -168.884c0 -65.7656 -29.2871 -127.334 -80.3848 -168.883c-2.38086 -1.91992 -5.22168 -2.86719 -8.06348 -2.86719v0.0507812zM301.107 126.669
c-3.71191 0 -7.39844 1.6123 -9.93262 4.70996c-4.45508 5.47852 -3.63574 13.543 1.84277 17.9971c9.01074 7.34766 14.1826 18.2012 14.1826 29.7988c0 11.5967 -5.17188 22.4766 -14.1826 29.7979c-5.47852 4.4541 -6.32324 12.5186 -1.84277 17.9971
c4.47949 5.47852 12.5176 6.32324 17.9961 1.84277c15.0273 -12.2109 23.6289 -30.3105 23.6289 -49.6641s-8.62695 -37.4521 -23.6289 -49.6641c-2.38086 -1.91992 -5.22168 -2.86719 -8.06348 -2.86719v0.0517578zM208.64 365.9v0.0263672
c10.8291 0 21.7607 -8.26953 21.7607 -26.7012v-320c0 -6.96289 -1.56152 -12.8252 -4.6084 -17.4082c-3.94238 -5.8877 -10.1885 -9.2666 -17.1523 -9.2666v0c-6.32324 0 -12.6719 2.66211 -18.8408 7.91016l-104.909 89.165h-46.4893
c-21.1719 0 -38.4004 17.2285 -38.4004 38.3994v102.4c0 21.1709 17.2285 38.3994 38.4004 38.3994h46.4893l104.909 89.165c6.19434 5.24805 12.5176 7.91016 18.8408 7.91016zM25.5996 128c0 -7.06543 5.73438 -12.7998 12.8008 -12.7998h38.3994v128h-38.3994
c-7.06641 0 -12.8008 -5.73438 -12.8008 -12.7998v-102.4zM204.8 21.2734v315.853l-102.399 -87.04v-141.772z" />
    <glyph glyph-name="uniF137" unicode="&#xf137;" 
d="M256 -64c-41.3184 0 -79.8203 16.7676 -108.441 47.2324c-29.0049 30.873 -44.9795 73.1904 -44.9795 119.168c0 75.3408 33.4854 129.254 68.9404 186.316c27.3926 44.1084 55.7314 89.7021 72.1152 149.837c1.51074 5.58105 6.58008 9.4209 12.3398 9.4209
s10.8281 -3.86621 12.3389 -9.4209c16.4102 -60.1602 44.7744 -105.779 72.2178 -149.888c35.5068 -57.0625 69.043 -110.977 69.043 -186.292c0 -46.0537 -15.8721 -88.3711 -44.6973 -119.142c-28.5439 -30.4648 -67.2256 -47.2578 -108.902 -47.2578zM256 393.907
c-17.2549 -45.4658 -40.2939 -82.5596 -62.7197 -118.682c-34.9189 -56.2178 -65.1006 -104.781 -65.1006 -172.825c0 -80.2822 54.9629 -140.801 127.82 -140.801c72.96 0 128 60.5186 128 140.801c0 68.0186 -30.208 116.557 -65.1777 172.774
c-22.4766 36.1211 -45.5674 73.2412 -62.8223 118.732z" />
    <glyph glyph-name="uniF15D" unicode="&#xf15d;" 
d="M499.2 38.4004h-384c-7.06543 0 -12.7998 5.73438 -12.7998 12.7998s5.73438 12.7998 12.7998 12.7998h384c7.06543 0 12.7998 -5.73438 12.7998 -12.7998s-5.73438 -12.7998 -12.7998 -12.7998zM499.2 166.4h-384c-7.06543 0 -12.7998 5.73438 -12.7998 12.7998
s5.73438 12.7998 12.7998 12.7998h384c7.06543 0 12.7998 -5.73438 12.7998 -12.7998s-5.73438 -12.7998 -12.7998 -12.7998zM499.2 294.4h-384c-7.06543 0 -12.7998 5.73438 -12.7998 12.7998s5.73438 12.7998 12.7998 12.7998h384
c7.06543 0 12.7998 -5.73438 12.7998 -12.7998s-5.73438 -12.7998 -12.7998 -12.7998zM38.4004 268.8c-21.1719 0 -38.4004 17.2285 -38.4004 38.4004c0 21.1709 17.2285 38.3994 38.4004 38.3994c21.1709 0 38.3994 -17.2285 38.3994 -38.3994
c0 -21.1719 -17.2285 -38.4004 -38.3994 -38.4004zM38.4004 320c-7.06641 0 -12.8008 -5.73438 -12.8008 -12.7998s5.73438 -12.7998 12.8008 -12.7998c7.06543 0 12.7998 5.73438 12.7998 12.7998s-5.73438 12.7998 -12.7998 12.7998zM38.4004 140.8
c-21.1719 0 -38.4004 17.2285 -38.4004 38.4004c0 21.1709 17.2285 38.3994 38.4004 38.3994c21.1709 0 38.3994 -17.2285 38.3994 -38.3994c0 -21.1719 -17.2285 -38.4004 -38.3994 -38.4004zM38.4004 192c-7.06641 0 -12.8008 -5.73438 -12.8008 -12.7998
s5.73438 -12.7998 12.8008 -12.7998c7.06543 0 12.7998 5.73438 12.7998 12.7998s-5.73438 12.7998 -12.7998 12.7998zM38.4004 12.7998c-21.1719 0 -38.4004 17.2285 -38.4004 38.4004c0 21.1709 17.2285 38.3994 38.4004 38.3994
c21.1709 0 38.3994 -17.2285 38.3994 -38.3994c0 -21.1719 -17.2285 -38.4004 -38.3994 -38.4004zM38.4004 64c-7.06641 0 -12.8008 -5.73438 -12.8008 -12.7998s5.73438 -12.7998 12.8008 -12.7998c7.06543 0 12.7998 5.73438 12.7998 12.7998
s-5.73438 12.7998 -12.7998 12.7998z" />
    <glyph glyph-name="uniF1A1" unicode="&#xf1a1;" 
d="M448 -38.4004h-409.6c-21.1719 0 -38.4004 17.2295 -38.4004 38.4004v51.2002c0 7.06543 5.73438 12.7998 12.7998 12.7998s12.7998 -5.73438 12.7998 -12.7998v-51.2002c0 -7.06543 5.73438 -12.7998 12.8008 -12.7998h409.6c7.06543 0 12.7998 5.73438 12.7998 12.7998
v51.2002c0 7.06543 5.73438 12.7998 12.7998 12.7998c7.06641 0 12.8008 -5.73438 12.8008 -12.7998v-51.2002c0 -21.1709 -17.2295 -38.4004 -38.4004 -38.4004zM380.263 226.662c4.99219 -4.99219 4.99219 -13.1064 0 -18.0986
c-2.50879 -2.4834 -5.78613 -3.73828 -9.0625 -3.73828c-3.27734 0 -6.55371 1.22949 -9.0625 3.73828l-106.138 106.138v-263.501c0 -7.06543 -5.73438 -12.7998 -12.7998 -12.7998s-12.7998 5.73438 -12.7998 12.7998v263.501l-106.138 -106.138
c-4.99219 -4.99219 -13.1074 -4.99219 -18.0996 0s-4.99219 13.1064 0 18.0986l128 128c4.99219 4.99219 13.1074 4.99219 18.0996 0z" />
    <glyph glyph-name="uniF15A" unicode="&#xf15a;" 
d="M473.6 320h-256c-7.06543 0 -12.7998 5.73438 -12.7998 12.7998s5.73438 12.7998 12.7998 12.7998h256c7.06641 0 12.8008 -5.73438 12.8008 -12.7998s-5.73438 -12.7998 -12.8008 -12.7998zM473.6 217.6h-256c-7.06543 0 -12.7998 5.73438 -12.7998 12.8008
c0 7.06543 5.73438 12.7998 12.7998 12.7998h256c7.06641 0 12.8008 -5.73438 12.8008 -12.7998c0 -7.06641 -5.73438 -12.8008 -12.8008 -12.8008zM473.6 115.2h-256c-7.06543 0 -12.7998 5.73438 -12.7998 12.7998s5.73438 12.7998 12.7998 12.7998h256
c7.06641 0 12.8008 -5.73438 12.8008 -12.7998s-5.73438 -12.7998 -12.8008 -12.7998zM473.6 12.7998h-256c-7.06543 0 -12.7998 5.73438 -12.7998 12.7998c0 7.06641 5.73438 12.8008 12.7998 12.8008h256c7.06641 0 12.8008 -5.73438 12.8008 -12.8008
c0 -7.06543 -5.73438 -12.7998 -12.8008 -12.7998zM131.737 98.6621h0.0517578c4.99219 4.99219 13.1074 4.99219 18.0986 0c4.99219 -4.99219 4.99219 -13.1064 0 -18.0986l-51.1992 -51.2002c-2.50879 -2.4834 -5.78613 -3.7373 -9.0625 -3.7373
c-3.27734 0 -6.55371 1.22852 -9.0625 3.7373l-51.2002 51.2002c-4.99219 4.99219 -4.99219 13.1064 0 18.0986s13.1074 4.99219 18.0986 0l29.3379 -29.3369v219.801l-29.3379 -29.3369c-4.99121 -4.99219 -13.1064 -4.99219 -18.0986 0s-4.99219 13.1074 0 18.0986
l51.2002 51.2002c4.99219 4.99219 13.1064 4.99219 18.0986 0l51.2002 -51.2002c4.99219 -4.99121 4.99219 -13.1064 0 -18.0986c-2.50879 -2.4834 -5.78516 -3.73828 -9.0625 -3.73828c-3.27637 0 -6.55371 1.22949 -9.0625 3.73828l-29.3369 29.3369v-219.801z" />
    <glyph glyph-name="uniF1B6" unicode="&#xf1b6;" 
d="M27.7432 -21.6289l7.46777 -6.93945l271.456 427.315l-8.40723 5.83496l-271.455 -427.314l-19.7461 -31.083l27.2139 24.1436l460.163 408.248l-6.53027 8.04297zM47.667 367.987c18.166 -6.06445 42.6396 -9.23633 68.4033 -9.17188
c25.3086 0.0634766 49.9238 3.25781 68.2959 9.03906c21.2881 6.69922 33.8555 16.624 33.8555 29.8721c0 13.1777 -12.4902 23.4316 -33.7217 30.7754c-18.3613 6.35156 -42.9697 10.3135 -68.2734 11.167c-25.7676 0.868164 -50.2471 -1.54004 -68.4248 -7.04004
c-21.3613 -6.46387 -33.9072 -17.0869 -33.9072 -31.8682c0 -14.7158 12.4688 -25.6621 33.7725 -32.7734zM469.376 432.629c-18.1777 5.5 -42.6572 7.9082 -68.4238 7.04004c-25.3037 -0.853516 -49.9121 -4.81543 -68.2734 -11.167
c-21.2314 -7.34375 -33.7227 -17.5977 -33.7227 -30.7754c0 -13.248 12.5684 -23.1729 33.8555 -29.8721c18.373 -5.78125 42.9883 -8.97559 68.2959 -9.03906c25.7637 -0.0644531 50.2373 3.10742 68.4033 9.17188c21.3047 7.11133 33.7734 18.0576 33.7734 32.7734
c0 14.7812 -12.5469 25.4043 -33.9082 31.8682zM477.08 -3.60547l26.8799 -22.791l-19.5029 29.3408l-268.118 403.371l-8.30371 -5.50879l268.118 -403.371l7.37695 6.55078l-454.505 385.373l-6.4502 -7.59277z" />
    <glyph glyph-name="uniF11A" unicode="&#xf11a;" 
d="M0 294.4c0 3.27637 1.25488 6.55273 3.7373 9.06152c4.99219 4.99219 13.1074 4.99219 18.0996 0l221.338 -221.337l221.337 221.337c4.99219 4.99219 13.1074 4.99219 18.0996 0c4.99219 -4.99121 4.99219 -13.1064 0 -18.0986l-230.4 -230.4
c-4.99219 -4.99121 -13.1074 -4.99121 -18.0986 0l-230.4 230.4c-2.50879 2.50879 -3.7373 5.78516 -3.7373 9.0625z" />
    <glyph glyph-name="uniF1B9" unicode="&#xf1b9;" 
d="M428.651 328.931v0c37.1367 0 71.4414 -32.8965 71.4414 -69.6084v-256.453c0 -36.9346 -29.9385 -66.8691 -66.8691 -66.8691h-366.354c-36.9385 0 -66.8691 29.9307 -66.8691 66.8691v254.619c0 34.665 31.8311 71.4424 71.4414 71.4424h357.21zM428.651 305.116v0
h-357.21c-25.6328 0 -47.6279 -25.4131 -47.6279 -47.6279v-254.619c0 -23.7861 19.2695 -43.0557 43.0557 -43.0557h366.354c23.7793 0 43.0557 19.2734 43.0557 43.0557v256.453c0 23.3311 -23.4258 45.7939 -47.6279 45.7939zM404.837 352.744v0h-23.8135v39.793
c0 34.2871 -3.58203 36.9639 -42.8281 26.6133c-14.4639 -3.81641 -57.876 -15.7197 -121.097 -33.167c-0.425781 -0.118164 -0.425781 -0.118164 -0.852539 -0.235352c-27.5322 -7.59863 -56.9805 -15.7412 -86.3926 -23.8828
c-10.2939 -2.84961 -19.8486 -5.49512 -28.4199 -7.87012c-8.81445 -2.44238 -8.81445 -2.44238 -9.75391 -2.65332c-56.7256 -21.3799 -67.3779 -35.6562 -67.3789 -82.1211l-0.488281 -29.2324l-23.8105 0.398438l0.486328 29.0322
c0 56.5361 17.0918 79.4443 83.8115 104.539c1.95898 0.542969 1.95898 0.542969 10.7754 2.98633c8.57324 2.375 18.1289 5.02148 28.4258 7.87207c29.417 8.14355 58.8701 16.2861 86.4102 23.8867c0.425781 0.118164 0.425781 0.118164 0.852539 0.235352
c63.3506 17.4834 106.762 29.3877 121.357 33.2383c54.1855 14.29 72.7158 0.443359 72.7158 -49.6396v-39.793zM410.814 102.697c-16.4434 0 -29.791 13.3125 -29.791 29.7559s13.3477 29.7793 29.791 29.7793c16.3955 0 29.7441 -13.3359 29.7441 -29.7793
s-13.3486 -29.7559 -29.7441 -29.7559v0z" />
    <glyph glyph-name="uniF102" unicode="&#xf102;" 
d="M252.263 -47.4619l0.0253906 -0.0263672c-4.99219 -4.99219 -13.1074 -4.99219 -18.0996 0l-153.6 153.601c-2.4834 2.50879 -3.7373 5.78516 -3.7373 9.0625c0 3.27637 1.22852 6.55273 3.7373 9.06152c4.99219 4.99219 13.1074 4.99219 18.0996 0l131.737 -131.737
v417.101c0 7.06641 5.73438 12.8008 12.7998 12.8008s12.7998 -5.73438 12.7998 -12.8008v-417.101l131.738 131.737c4.99121 4.99219 13.1064 4.99219 18.0986 0c4.99219 -4.99121 4.99219 -13.1064 0 -18.0986z" />
    <glyph glyph-name="uniF135" unicode="&#xf135;" 
d="M396.8 422.4c7.06543 0 12.7998 -5.73438 12.7998 -12.8008c0 -7.06543 -5.73438 -12.7998 -12.7998 -12.7998h-64v-294.399c0 -7.06641 -5.73438 -12.8008 -12.7998 -12.8008s-12.7998 5.73438 -12.7998 12.8008v294.399h-76.7998v-294.399
c0 -7.06641 -5.73438 -12.8008 -12.8008 -12.8008c-7.06543 0 -12.7998 5.73438 -12.7998 12.8008v115.199h-25.5996c-56.4736 0 -102.4 45.9268 -102.4 102.4s45.9268 102.4 102.4 102.4h217.6zM204.8 243.2v153.6h-25.5996c-42.3428 0 -76.7998 -34.457 -76.7998 -76.7998
s34.457 -76.7998 76.7998 -76.7998h25.5996zM371.2 12.7998l0.0253906 -0.0253906c7.06543 0 12.7998 -5.73438 12.7998 -12.7998s-5.73438 -12.7998 -12.7998 -12.7998h-237.9l29.3369 -29.3379c4.99219 -4.99219 4.99219 -13.1074 0 -18.0996
c-2.50879 -2.48242 -5.78516 -3.7373 -9.0625 -3.7373c-3.27637 0 -6.55273 1.22852 -9.06152 3.7373l-51.2002 51.2002c-4.99219 4.99219 -4.99219 13.1074 0 18.0996l51.2002 51.1992c4.99121 4.99219 13.1064 4.99219 18.0986 0
c4.99219 -4.99121 4.99219 -13.1064 0 -18.0986l-29.3379 -29.3379h237.901z" />
    <glyph glyph-name="uniF10A" unicode="&#xf10a;" 
d="M140.8 217.549c-21.1963 0 -38.4512 17.2539 -38.4512 38.4512s17.2549 38.4512 38.4512 38.4512c21.1973 0 38.4512 -17.2539 38.4512 -38.4512s-17.2539 -38.4512 -38.4512 -38.4512zM140.8 268.852c-7.09082 0 -12.8506 -5.76074 -12.8506 -12.8516
s5.75977 -12.8516 12.8506 -12.8516c7.0918 0 12.8516 5.76074 12.8516 12.8516s-5.75977 12.8516 -12.8516 12.8516zM243.2 12.7998c-7.06543 0 -12.7998 5.73438 -12.7998 12.7998v76.749c0 19.7637 14.873 39.501 33.8936 44.9541l38.4004 10.9824l-83.4561 55.6289
l-43.7764 -43.7764c-2.40625 -2.40625 -5.65723 -3.7373 -9.06152 -3.7373h-51.252c-7.06543 0 -12.7998 5.73438 -12.7998 12.7998s5.73438 12.7998 12.7998 12.7998h45.9521l47.4629 47.4619c4.32617 4.32715 11.085 4.99219 16.1533 1.61328l93.9004 -62.5918
c14.0801 -9.39551 14.0293 -20.4033 13.3633 -24.7295c-0.665039 -4.32715 -3.99316 -14.8223 -20.249 -19.4814l-40.3711 -11.5713c-8.0127 -2.30469 -15.335 -11.9814 -15.335 -20.3525v-76.749c0 -7.06543 -5.73438 -12.7998 -12.7998 -12.7998h-0.0253906zM384 -64
c-56.4736 0 -102.4 45.9268 -102.4 102.4s45.9268 102.399 102.4 102.399s102.4 -45.9258 102.4 -102.399s-45.9268 -102.4 -102.4 -102.4zM384 115.2c-42.3428 0 -76.7998 -34.458 -76.7998 -76.7998c0 -42.3428 34.457 -76.8008 76.7998 -76.8008
s76.7998 34.458 76.7998 76.8008c0 42.3418 -34.457 76.7998 -76.7998 76.7998zM102.374 -64c-56.4473 0 -102.374 45.9268 -102.374 102.374c0 56.4482 45.9268 102.375 102.374 102.375c56.4482 0 102.375 -45.9268 102.375 -102.375
c0 -56.4473 -45.9268 -102.374 -102.375 -102.374zM102.374 115.148c-42.3418 0 -76.7744 -34.4316 -76.7744 -76.7744c0 -42.3418 34.4326 -76.7744 76.7744 -76.7744c42.3428 0 76.7744 34.4326 76.7744 76.7744c0 42.3428 -34.4316 76.7744 -76.7744 76.7744z" />
    <glyph glyph-name="uniF172" unicode="&#xf172;" 
d="M473.6 -64h-435.199c-21.1719 0 -38.4004 17.2285 -38.4004 38.4004v435.199c0 21.1719 17.2285 38.4004 38.4004 38.4004h435.199c21.1719 0 38.4004 -17.2285 38.4004 -38.4004v-435.199c0 -21.1719 -17.2285 -38.4004 -38.4004 -38.4004zM38.4004 422.4
c-7.06641 0 -12.8008 -5.73438 -12.8008 -12.8008v-435.199c0 -7.06641 5.73438 -12.8008 12.8008 -12.8008h435.199c7.06641 0 12.8008 5.73438 12.8008 12.8008v435.199c0 7.06641 -5.73438 12.8008 -12.8008 12.8008h-435.199zM332.8 217.6
c-28.2363 0 -51.2002 22.9639 -51.2002 51.2002c0 28.2373 22.9639 51.2002 51.2002 51.2002c28.2373 0 51.2002 -22.9629 51.2002 -51.2002c0 -28.2363 -22.9629 -51.2002 -51.2002 -51.2002zM332.8 294.4c-14.1055 0 -25.5996 -11.4951 -25.5996 -25.6006
s11.4941 -25.5996 25.5996 -25.5996s25.6006 11.4941 25.6006 25.5996s-11.4951 25.6006 -25.6006 25.6006zM448 396.8c7.06543 0 12.7998 -5.73438 12.7998 -12.7998v-307.2c0 -7.06543 -5.73438 -12.7998 -12.7998 -12.7998h-384
c-7.06543 0 -12.7998 5.73438 -12.7998 12.7998v307.2c0 7.06543 5.73438 12.7998 12.7998 12.7998h384zM76.7998 148.736v-59.1367h239.335l-141.646 151.757c-2.15039 2.30469 -4.91504 3.55859 -7.80762 3.5332s-5.63184 -1.35645 -7.73145 -3.71191zM435.2 89.5996
v281.601h-358.4v-183.937l63.0273 70.9121c6.9375 7.80859 16.3584 12.1855 26.5469 12.3135c10.1895 0.12793 19.7119 -4.01855 26.8545 -11.6729l157.927 -169.217h84.0449z" />
    <glyph glyph-name="uniF1AB" unicode="&#xf1ab;" 
d="M248.807 272.785c-11.5029 105.028 58.9824 119.415 58.9902 119.415c76.9795 16.5469 122.3 -24.4561 122.3 -24.4561l60.4336 24.4561c-4.32617 -25.8984 -41.7363 -53.2305 -41.7363 -53.2305l54.6729 10.0693l-54.6729 -48.9043
c1.44141 -23.0322 3.60938 -69.8799 -17.2637 -119.416c-84.8896 -201.429 -263.278 -192.793 -263.278 -192.793c-96.4014 -1.44238 -159.719 47.4707 -159.719 47.4707c112.23 -2.87598 146.757 43.1611 146.757 43.1611
c-83.4395 12.9453 -96.4014 71.9365 -96.4014 71.9365h47.4795c-89.208 28.7744 -80.5723 102.144 -80.5723 102.144c20.165 -14.3789 44.6123 -10.0605 44.6123 -10.0605c-74.8203 51.7891 -31.6582 136.679 -31.6582 136.679
c110.779 -129.494 210.057 -106.471 210.057 -106.471z" />
    <glyph glyph-name="uniF18E" unicode="&#xf18e;" 
d="M422.4 396.8c7.06543 0 12.7998 -5.73438 12.7998 -12.7998s-5.73438 -12.7998 -12.7998 -12.7998h-166.4v-115.2c0 -7.06543 -5.73438 -12.7998 -12.7998 -12.7998s-12.7998 5.73438 -12.7998 12.7998v115.2h-166.4c-7.06543 0 -12.7998 5.73438 -12.7998 12.7998
s5.73438 12.7998 12.7998 12.7998h358.4zM243.2 -12.7998c-7.06543 0 -12.7998 5.73438 -12.7998 12.7998v102.4c0 7.06543 5.73438 12.7998 12.7998 12.7998s12.7998 -5.73438 12.7998 -12.7998v-102.4c0 -7.06543 -5.73438 -12.7998 -12.7998 -12.7998zM473.6 140.8
h-460.8c-7.06543 0 -12.7998 5.73438 -12.7998 12.7998v51.2002c0 7.06543 5.73438 12.7998 12.7998 12.7998h460.8c7.06641 0 12.8008 -5.73438 12.8008 -12.7998v-51.2002c0 -7.06543 -5.73438 -12.7998 -12.8008 -12.7998zM25.5996 166.4h435.2v25.5996h-435.2v-25.5996z
" />
    <glyph glyph-name="uniF190" unicode="&#xf190;" 
d="M508.263 226.662h0.0253906c4.99219 -4.99219 4.99219 -13.1064 0 -18.0986l-51.2002 -51.2002c-2.50879 -2.4834 -5.78516 -3.7373 -9.0625 -3.7373c-3.27637 0 -6.55371 1.22852 -9.0625 3.7373l-51.1992 51.2002c-4.99219 4.99219 -4.99219 13.1064 0 18.0986
c4.99121 4.99219 13.1064 4.99219 18.0986 0l29.2607 -29.2607c-2.86719 96.3076 -82.125 173.799 -179.123 173.799c-66.6367 0 -127.386 -36.6338 -158.541 -95.5908c-3.30176 -6.24609 -11.0586 -8.62695 -17.3057 -5.32422
c-6.24609 3.30176 -8.62695 11.0586 -5.32422 17.3057c35.6094 67.3535 105.036 109.209 181.171 109.209c54.707 0 106.138 -21.2988 144.819 -59.9805c37.4531 -37.4277 58.624 -86.835 59.9297 -139.571l29.4141 29.4141c4.99219 4.99219 13.1074 4.99219 18.0996 0z
M431.847 113.715h0.0253906c6.24609 -3.30176 8.62695 -11.0586 5.3252 -17.3057c-35.6104 -67.3535 -105.037 -109.209 -181.172 -109.209c-54.707 0 -106.138 21.2988 -144.819 59.9805c-37.4521 37.4277 -58.624 86.835 -59.9297 139.571l-29.4141 -29.4141
c-4.99219 -4.99219 -13.1074 -4.99219 -18.0986 0c-4.99219 4.99219 -4.99219 13.1064 0 18.0986l51.1992 51.2002c4.99219 4.99219 13.1074 4.99219 18.0996 0l51.2002 -51.2002c4.99219 -4.99219 4.99219 -13.1064 0 -18.0986
c-2.50879 -2.4834 -5.78613 -3.73828 -9.0625 -3.73828c-3.27734 0 -6.55371 1.22949 -9.0625 3.73828l-29.2607 29.2607c2.86719 -96.3076 82.125 -173.799 179.123 -173.799c66.6367 0 127.386 36.6338 158.541 95.5908c3.30176 6.24609 11.0586 8.62695 17.3057 5.32422z
" />
    <glyph glyph-name="uniF12D" unicode="&#xf12d;" 
d="M499.2 64h-76.7998c-7.06641 0 -12.8008 5.73438 -12.8008 12.7998s5.73438 12.7998 12.8008 12.7998h76.7998c7.06543 0 12.7998 -5.73438 12.7998 -12.7998s-5.73438 -12.7998 -12.7998 -12.7998zM320 64h-179.2c-7.06543 0 -12.7998 5.73438 -12.7998 12.7998v179.2
c0 7.06543 5.73438 12.7998 12.7998 12.7998s12.7998 -5.73438 12.7998 -12.7998v-166.4h166.4c7.06543 0 12.7998 -5.73438 12.7998 -12.7998s-5.73438 -12.7998 -12.7998 -12.7998zM140.8 345.6c-7.06543 0 -12.7998 5.73438 -12.7998 12.8008v76.7998
c0 7.06543 5.73438 12.7998 12.7998 12.7998s12.7998 -5.73438 12.7998 -12.7998v-76.7998c0 -7.06641 -5.73438 -12.8008 -12.7998 -12.8008zM371.2 -64c-7.06543 0 -12.7998 5.73438 -12.7998 12.7998v345.601h-345.601c-7.06543 0 -12.7998 5.73438 -12.7998 12.7998
s5.73438 12.7998 12.7998 12.7998h358.4c7.06543 0 12.7998 -5.73438 12.7998 -12.7998v-358.4c0 -7.06543 -5.73438 -12.7998 -12.7998 -12.7998z" />
    <glyph glyph-name="uniF1B3" unicode="&#xf1b3;" 
d="M274.637 439.467v-125.073h117.436v-77.7041h-117.436v-126.951c0 -28.6719 1.50195 -47.0693 4.53125 -55.2188c3.04688 -8.13281 8.66992 -14.6348 16.9639 -19.5244c10.9824 -6.5791 23.4668 -9.87305 37.5811 -9.87305c25.0537 0 49.9629 8.19238 74.7354 24.4736
v-78.0547c-21.1543 -9.99219 -40.3027 -16.9639 -57.4463 -20.9912c-17.1182 -4.01953 -35.6523 -6.0166 -55.5869 -6.0166c-22.6133 0 -42.5977 2.85059 -59.9971 8.58496c-17.417 5.7168 -32.2139 13.875 -44.502 24.4131
c-12.2793 10.582 -20.7871 21.8457 -25.5312 33.7842c-4.75293 11.8613 -7.09961 29.124 -7.09961 51.7461v173.619h-54.7334v70.0498c19.4473 6.28906 36.1475 15.3428 49.9541 27.1279c13.9014 11.8184 25.0195 25.9922 33.3828 42.5127
c8.39648 16.5293 14.1738 37.5469 17.3311 63.0957h70.417z" />
    <glyph glyph-name="uniF144" unicode="&#xf144;" 
d="M473.6 268.8c-7.06543 0 -12.7998 5.73438 -12.7998 12.7998v51.2002c0 7.06543 -5.73438 12.7998 -12.7998 12.7998h-51.2002c-7.06543 0 -12.7998 5.73438 -12.7998 12.8008c0 7.06543 5.73438 12.7998 12.7998 12.7998h51.2002
c21.1709 0 38.4004 -17.2285 38.4004 -38.4004v-51.2002c0 -7.06543 -5.73438 -12.7998 -12.8008 -12.7998zM12.7998 268.8c-7.06543 0 -12.7998 5.73438 -12.7998 12.7998v51.2002c0 21.1719 17.2285 38.4004 38.4004 38.4004h51.1992
c7.06641 0 12.8008 -5.73438 12.8008 -12.7998c0 -7.06641 -5.73438 -12.8008 -12.8008 -12.8008h-51.1992c-7.06641 0 -12.8008 -5.73438 -12.8008 -12.7998v-51.2002c0 -7.06543 -5.73438 -12.7998 -12.7998 -12.7998zM89.5996 -12.7998h-51.1992
c-21.1719 0 -38.4004 17.2285 -38.4004 38.3994v51.2002c0 7.06543 5.73438 12.7998 12.7998 12.7998s12.7998 -5.73438 12.7998 -12.7998v-51.2002c0 -7.06543 5.73438 -12.7998 12.8008 -12.7998h51.1992c7.06641 0 12.8008 -5.73438 12.8008 -12.7998
s-5.73438 -12.7998 -12.8008 -12.7998zM448 -12.7998h-51.2002c-7.06543 0 -12.7998 5.73438 -12.7998 12.7998s5.73438 12.7998 12.7998 12.7998h51.2002c7.06543 0 12.7998 5.73438 12.7998 12.7998v51.2002c0 7.06543 5.73438 12.7998 12.7998 12.7998
c7.06641 0 12.8008 -5.73438 12.8008 -12.7998v-51.2002c0 -21.1709 -17.2295 -38.3994 -38.4004 -38.3994z" />
    <glyph glyph-name="uniF104" unicode="&#xf104;" 
d="M16.5381 188.263l153.6 153.6c4.99219 4.99219 13.1074 4.99219 18.0986 0c4.99219 -4.99219 4.99219 -13.1074 0 -18.0986l-131.737 -131.738h417.101c7.06641 0 12.8008 -5.73438 12.8008 -12.7998s-5.73438 -12.7998 -12.8008 -12.7998h-417.101l131.737 -131.737
c4.99219 -4.99219 4.99219 -13.1074 0 -18.0996c-2.50879 -2.50879 -5.78516 -3.7373 -9.06152 -3.7373c-3.27734 0 -6.55371 1.25391 -9.0625 3.7373l-153.601 153.6c-4.99219 4.99219 -4.99219 13.1074 0 18.0996z" />
    <glyph glyph-name="uniF136" unicode="&#xf136;" 
d="M380.236 201.037l0.0517578 0.0253906c4.99219 -4.99219 4.99219 -13.1074 0 -18.0996l-128 -128c-2.50879 -2.50879 -5.78613 -3.7627 -9.0625 -3.7627s-6.55371 1.22852 -9.0625 3.7373l-128 128c-4.99219 4.99219 -4.99219 13.1074 0 18.0996
c4.99219 4.99121 13.1074 4.99121 18.0996 0l106.138 -106.138v289.101c0 7.06543 5.73438 12.7998 12.7998 12.7998s12.7998 -5.73438 12.7998 -12.7998v-289.101l106.138 106.138c4.99219 4.99121 13.1074 4.99121 18.0986 0zM448 -38.4004h-409.6
c-21.1719 0 -38.4004 17.2295 -38.4004 38.4004v51.2002c0 7.06543 5.73438 12.7998 12.7998 12.7998s12.7998 -5.73438 12.7998 -12.7998v-51.2002c0 -7.06543 5.73438 -12.7998 12.8008 -12.7998h409.6c7.06543 0 12.7998 5.73438 12.7998 12.7998v51.2002
c0 7.06543 5.73438 12.7998 12.7998 12.7998c7.06641 0 12.8008 -5.73438 12.8008 -12.7998v-51.2002c0 -21.1709 -17.2295 -38.4004 -38.4004 -38.4004z" />
    <glyph glyph-name="uniF14D" unicode="&#xf14d;" 
d="M508.697 136.576l-0.0507812 0.0253906c4.76172 -5.24805 4.35156 -13.3115 -0.896484 -18.0732s-13.3369 -4.35254 -18.0732 0.895508l-54.502 60.2373v-205.261c0 -21.1719 -17.2295 -38.4004 -38.4004 -38.4004h-281.6c-21.1719 0 -38.4004 17.2285 -38.4004 38.4004
v205.261l-54.502 -60.2373c-2.53516 -2.81543 -6.0166 -4.22363 -9.49805 -4.22363c-3.04688 0 -6.11816 1.0752 -8.57617 3.30176c-5.22266 4.73633 -5.63184 12.8262 -0.895508 18.0742l226.022 249.805c7.04004 7.75684 16.5117 12.0322 26.6748 12.0322v0
c10.1885 0 19.6611 -4.27539 26.6748 -12.0322zM307.2 -38.4004v115.2c0 7.06543 -5.73438 12.7998 -12.7998 12.7998h-76.8008c-7.06543 0 -12.7998 -5.73438 -12.7998 -12.7998v-115.2h102.4zM409.6 -25.5996v233.549l-145.92 161.279
c-2.09863 2.33008 -4.83789 3.61035 -7.67969 3.61035s-5.58105 -1.28027 -7.67969 -3.61035l-145.92 -161.279v-233.549c0 -7.06641 5.73438 -12.8008 12.7998 -12.8008h64v115.2c0 21.1719 17.2285 38.4004 38.3994 38.4004h76.8008
c21.1709 0 38.3994 -17.2285 38.3994 -38.4004v-115.2h64c7.06543 0 12.7998 5.73438 12.7998 12.8008z" />
    <glyph glyph-name="uniF14E" unicode="&#xf14e;" 
d="M409.6 358.4c0 -67.3535 -40.7803 -127.975 -102.399 -153.651v-51.123c61.6191 -25.6768 102.399 -86.2979 102.399 -153.651v-12.7998c0 -10.0098 -6.16895 -18.7656 -18.3545 -25.959c-8.80664 -5.19629 -21.0176 -9.7793 -36.3271 -13.5938
c-30.0029 -7.5 -69.6826 -11.6221 -111.718 -11.6221s-81.7158 4.12207 -111.719 11.6221c-15.3086 3.81445 -27.5195 8.39746 -36.3262 13.5938c-12.1855 7.19336 -18.3555 15.9238 -18.3555 25.959v12.7998c0 67.3535 40.7812 127.975 102.4 153.651v51.123
c-61.6191 25.6768 -102.4 86.2979 -102.4 153.651v12.7998c0 10.0352 6.16992 18.7646 18.3555 25.958c8.80664 5.19727 21.0176 9.7793 36.3262 13.5938c30.0029 7.50098 69.6836 11.6221 111.719 11.6221s81.7148 -4.12109 111.718 -11.6221
c15.3096 -3.81445 27.5205 -8.39648 36.3271 -13.5938c12.1855 -7.19336 18.3545 -15.9229 18.3545 -25.958v-12.7998zM143.667 387.354c-29.4395 -6.5791 -38.3486 -13.6699 -40.6777 -16.1533c2.3291 -2.4834 11.2383 -9.57422 40.6777 -16.1533
c27.2646 -6.09375 62.6436 -9.44727 99.5332 -9.44727s72.2432 3.35352 99.5322 9.44727c29.4404 6.5791 38.3496 13.6699 40.6787 16.1533c-2.3291 2.4834 -11.2383 9.57422 -40.6787 16.1533c-27.2637 6.09277 -62.6426 9.44629 -99.5322 9.44629
s-72.2432 -3.35352 -99.5332 -9.44629zM290.125 132.787c-5.09473 1.79199 -8.52539 6.63086 -8.52539 12.0576v68.6846c0 5.40234 3.40527 10.2402 8.52539 12.0576c50.6113 17.8945 86.2207 63.002 92.7744 115.354c-7.6543 -3.45605 -17.0244 -6.5791 -27.9814 -9.31836
c-30.0029 -7.5 -69.6826 -11.6221 -111.718 -11.6221s-81.7158 4.12207 -111.719 11.6221c-10.9307 2.73926 -20.3008 5.8623 -27.9805 9.31836c6.55371 -52.3516 42.1885 -97.459 92.7744 -115.354c5.09375 -1.79199 8.52441 -6.62988 8.52441 -12.0576v-68.6846
c0 -5.42676 -3.4043 -10.2402 -8.52441 -12.0576c-56.167 -19.8398 -93.875 -73.2158 -93.875 -132.787v-12.1084c1.0752 -1.45996 8.31934 -9.44727 41.2666 -16.8193c27.2646 -6.09277 62.6436 -9.44629 99.5332 -9.44629s72.2432 3.35352 99.5322 9.44629
c32.9736 7.34668 40.1924 15.3594 41.2676 16.8193v12.1084c0 59.5713 -37.7344 112.947 -93.875 132.787zM349.875 24.8574c5.37598 -1.89453 8.83203 -7.14258 8.49902 -12.8252c-0.332031 -5.68359 -4.40234 -10.4707 -9.9834 -11.7246
c-25.1396 -5.63281 -63.4111 -13.1074 -105.19 -13.1074s-80.0518 7.47461 -105.19 13.1074c-5.58105 1.25391 -9.62598 6.04102 -9.98438 11.7246c-0.358398 5.68262 3.12305 10.9307 8.49902 12.8252c57.9072 20.4805 93.876 69.8115 93.876 128.742v77.4404
c-15.3857 1.51074 -30.1572 5.73438 -44.1094 12.6719c-6.32324 3.14844 -8.9082 10.8291 -5.75977 17.1523s10.8291 8.9082 17.1523 5.75977c14.208 -7.06543 29.5166 -10.6494 45.5166 -10.6494s31.3086 3.58398 45.5166 10.6494
c6.32324 3.14844 14.0029 0.563477 17.1523 -5.75977c3.14844 -6.32324 0.5625 -14.0039 -5.76074 -17.1523c-13.9512 -6.91211 -28.748 -11.1611 -44.1084 -12.6719v-77.4404c0 -58.9561 35.9678 -108.288 93.875 -128.742zM243.2 12.7998
c22.4512 0 43.5449 2.25293 62.3867 5.24805c-17.0488 10.8037 -31.8721 24.3965 -43.8018 40.3203c-7.5 10.0098 -13.7207 20.7871 -18.585 32.1025c-4.86426 -11.3154 -11.085 -22.0928 -18.5859 -32.1025c-11.9551 -15.9492 -26.7773 -29.543 -43.8018 -40.3203
c18.8418 -3.02051 39.9365 -5.24805 62.3877 -5.24805z" />
    <glyph glyph-name="uniF11C" unicode="&#xf11c;" 
d="M358.4 -64l0.0253906 -0.0253906c-3.27734 0 -6.55371 1.22852 -9.0625 3.7373l-230.4 230.4c-4.99121 4.99121 -4.99121 13.1064 0 18.0986l230.4 230.4c4.99219 4.99219 13.1074 4.99219 18.0986 0c4.99219 -4.99219 4.99219 -13.1074 0 -18.0996l-221.337 -221.337
l221.337 -221.338c4.99219 -4.99219 4.99219 -13.1074 0 -18.0996c-2.50879 -2.48242 -5.78516 -3.7373 -9.06152 -3.7373z" />
    <glyph glyph-name="uniF157" unicode="&#xf157;" 
d="M509.005 443.443l0.0771484 -0.0771484c2.43164 -2.89258 3.45605 -6.70703 2.81543 -10.4189c-16.5117 -95.334 -42.2139 -173.594 -76.3643 -232.602c-29.1328 -50.3037 -64.7686 -87.3984 -105.959 -110.183c-32.4092 -17.9199 -67.7373 -26.957 -105.344 -26.957
c-6.88672 0 -13.8242 0.282227 -20.8389 0.896484c-31.7695 2.73926 -57.4199 11.085 -73.3438 17.5869c-7.16797 2.94434 -14.3359 6.52832 -21.2988 10.6758c-6.06738 3.60938 -8.06445 11.4688 -4.45508 17.5352c3.61035 6.06738 11.4697 8.06445 17.5361 4.45508
c5.8623 -3.48145 11.9043 -6.50293 17.8945 -8.95996c28.4414 -11.6484 102.631 -34.2275 177.434 7.16797c80.6406 44.6201 136.729 148.812 166.81 309.785c-252.288 0.0771484 -391.347 -0.255859 -427.955 -131.456
c-4.78711 -17.1777 -9.49707 -57.4209 3.30273 -99.2002c3.30176 -10.8027 8.11523 -21.1455 14.3105 -30.8984c15.9736 21.8105 32.0508 39.6289 45.4141 52.9912c31.667 31.6934 67.6094 58.4707 103.91 77.4912c35.7891 18.7656 69.376 28.6729 97.127 28.6729
c7.06543 0 12.7998 -5.73438 12.7998 -12.8008c0 -7.06543 -5.73438 -12.7998 -12.7998 -12.7998c-23.2959 0 -53.5811 -9.13867 -85.2744 -25.7275c-34.0479 -17.8184 -67.8135 -43.0342 -97.6895 -72.9092c-41.625 -41.5996 -111.462 -129.05 -111.462 -246.938
c0 -7.06543 -5.73438 -12.7998 -12.7998 -12.7998c-7.06641 0 -12.8008 5.73438 -12.8008 12.7998c0 76.416 26.9062 140.646 58.0352 189.414c-10.4443 14.208 -18.2783 29.6709 -23.2959 46.0547c-13.5928 44.3389 -10.3672 88.9092 -3.48145 113.587
c10.3682 37.1719 27.8789 65.8691 53.5811 87.7832c23.8076 20.3008 54.9883 34.8672 95.3086 44.5176c75.0342 17.9463 176.947 17.9199 305.972 17.8691h13.0557c3.76367 0 7.34766 -1.66406 9.7793 -4.55664z" />
    <glyph glyph-name="uniF123" unicode="&#xf123;" 
d="M417.792 9.90723l52.0703 -52.0703c4.99219 -4.99219 4.99219 -13.1074 0 -18.0996c-2.4834 -2.50879 -5.75977 -3.7627 -9.03711 -3.7627c-3.27637 0 -6.55273 1.25391 -9.06152 3.7627l-52.7109 52.7109c-43.6475 -36.5566 -98.2012 -56.4736 -155.827 -56.4736
s-112.179 19.917 -155.827 56.4736l-52.7363 -52.7109c-2.50879 -2.50879 -5.78516 -3.7627 -9.0625 -3.7627c-3.27637 0 -6.55273 1.25391 -9.06152 3.7627c-4.99219 4.99219 -4.99219 13.1074 0 18.0996l52.0703 52.0703
c-44.2627 45.6191 -68.6084 105.574 -68.6084 169.293c0 60.6719 22.0674 117.965 62.4131 162.688l-17.6133 17.6133l-16.5371 -16.5381c-2.50879 -2.48242 -5.78613 -3.7373 -9.0625 -3.7373c-3.27734 0 -6.55371 1.22852 -9.0625 3.7373
c-4.99219 4.99219 -4.99219 13.1074 0 18.0996l51.2002 51.2002c4.99219 4.99219 13.1064 4.99219 18.0986 0s4.99219 -13.1074 0 -18.0996l-16.5371 -16.5371l17.6123 -17.6133c44.7236 40.3457 102.017 62.4131 162.688 62.4131s117.965 -22.0674 162.688 -62.4131
l17.6133 17.6133l-16.5635 16.5371c-4.99219 4.99219 -4.99219 13.1074 0 18.0996s13.1074 4.99219 18.0996 0l51.1992 -51.2002c4.99219 -4.99219 4.99219 -13.1074 0 -18.0996c-2.48242 -2.48242 -5.78516 -3.7373 -9.03613 -3.7373s-6.52832 1.22852 -9.03711 3.7373
l-16.5635 16.5381l-17.6123 -17.6133c40.3457 -44.7227 62.4131 -102.016 62.4131 -162.688c0 -63.7188 -24.3457 -123.674 -68.6084 -169.293zM25.5996 179.2c0 -119.987 97.6133 -217.601 217.601 -217.601s217.6 97.6133 217.6 217.601s-97.6123 217.6 -217.6 217.6
s-217.601 -97.6123 -217.601 -217.6zM387.303 262.4l-0.0263672 -0.0517578c3.5332 -6.11816 1.43359 -13.9521 -4.68457 -17.4844l-133.018 -76.7998c-0.12793 -0.0771484 -0.28125 -0.128906 -0.40918 -0.205078
c-0.102539 -0.0517578 -0.179688 -0.102539 -0.282227 -0.15332c-0.383789 -0.205078 -0.767578 -0.358398 -1.17676 -0.512695c-0.0517578 -0.0253906 -0.128906 -0.0507812 -0.205078 -0.0761719c-0.410156 -0.154297 -0.844727 -0.282227 -1.28027 -0.384766
c-0.0507812 0 -0.0771484 -0.0253906 -0.12793 -0.0253906c-0.460938 -0.12793 -0.921875 -0.205078 -1.38281 -0.255859h-0.0761719c-0.486328 -0.0507812 -0.947266 -0.0771484 -1.43359 -0.0771484h-0.0253906v0h-0.154297c-0.230469 0 -0.460938 0 -0.69043 0.0263672
c-0.154297 0.0253906 -0.307617 0.0253906 -0.460938 0.0507812c-0.12793 0.0253906 -0.255859 0.0253906 -0.384766 0.0507812c-0.178711 0.0263672 -0.358398 0.0517578 -0.537109 0.0771484c-0.102539 0 -0.205078 0.0253906 -0.307617 0.0517578
c-0.204102 0.0507812 -0.383789 0.0761719 -0.5625 0.12793l-0.307617 0.0761719c-0.178711 0.0517578 -0.358398 0.102539 -0.537109 0.154297c-0.128906 0.0507812 -0.230469 0.101562 -0.333008 0.12793c-0.154297 0.0507812 -0.333008 0.101562 -0.486328 0.178711
c-0.282227 0.12793 -0.538086 0.230469 -0.793945 0.358398c-0.0507812 0.0253906 -0.102539 0.0517578 -0.15332 0.0771484l-0.691406 0.383789c-0.0507812 0.0253906 -0.102539 0.0771484 -0.15332 0.102539c-0.230469 0.12793 -0.460938 0.28125 -0.691406 0.43457
c0 0.0263672 -0.0253906 0.0263672 -0.0517578 0.0517578l-104.857 73.4209c-5.78516 4.04492 -7.19336 12.0322 -3.14844 17.8174s12.0322 7.19336 17.8174 3.14844l98.1758 -68.7354l125.952 72.7295c6.11816 3.53223 13.9521 1.43359 17.4854 -4.68457z" />
    <glyph glyph-name="uniF143" unicode="&#xf143;" 
d="M371.2 217.6h-51.2002c-21.1709 0 -38.4004 17.2295 -38.4004 38.4004v51.2002c0 7.06543 5.73438 12.7998 12.8008 12.7998c7.06543 0 12.7998 -5.73438 12.7998 -12.7998v-51.2002c0 -7.06543 5.73438 -12.7998 12.7998 -12.7998h51.2002
c7.06543 0 12.7998 -5.73438 12.7998 -12.7998c0 -7.06641 -5.73438 -12.8008 -12.7998 -12.8008zM166.4 217.6h-51.2002c-7.06543 0 -12.7998 5.73438 -12.7998 12.8008c0 7.06543 5.73438 12.7998 12.7998 12.7998h51.2002c7.06543 0 12.7998 5.73438 12.7998 12.7998
v51.2002c0 7.06543 5.73438 12.7998 12.7998 12.7998s12.7998 -5.73438 12.7998 -12.7998v-51.2002c0 -21.1709 -17.2285 -38.4004 -38.3994 -38.4004zM294.4 38.4004c-7.06641 0 -12.8008 5.73438 -12.8008 12.7998v51.2002c0 21.1709 17.2295 38.3994 38.4004 38.3994
h51.2002c7.06543 0 12.7998 -5.73438 12.7998 -12.7998s-5.73438 -12.7998 -12.7998 -12.7998h-51.2002c-7.06543 0 -12.7998 -5.73438 -12.7998 -12.7998v-51.2002c0 -7.06543 -5.73438 -12.7998 -12.7998 -12.7998zM192 38.4004
c-7.06543 0 -12.7998 5.73438 -12.7998 12.7998v51.2002c0 7.06543 -5.73438 12.7998 -12.7998 12.7998h-51.2002c-7.06543 0 -12.7998 5.73438 -12.7998 12.7998s5.73438 12.7998 12.7998 12.7998h51.2002c21.1709 0 38.3994 -17.2285 38.3994 -38.3994v-51.2002
c0 -7.06543 -5.73438 -12.7998 -12.7998 -12.7998z" />
    <glyph glyph-name="uniF18F" unicode="&#xf18f;" 
d="M243.2 64.1797c-63.4111 0 -115.021 51.584 -115.021 115.021s51.584 115.021 115.021 115.021s115.021 -51.584 115.021 -115.021s-51.584 -115.021 -115.021 -115.021zM243.2 268.621c-49.3057 0 -89.4209 -40.1152 -89.4209 -89.4209
s40.1152 -89.4209 89.4209 -89.4209s89.4209 40.1152 89.4209 89.4209s-40.1152 89.4209 -89.4209 89.4209zM243.2 320c-7.06543 0 -12.7998 5.73438 -12.7998 12.7998v76.7998c0 7.06641 5.73438 12.8008 12.7998 12.8008s12.7998 -5.73438 12.7998 -12.8008v-76.7998
c0 -7.06543 -5.73438 -12.7998 -12.7998 -12.7998zM243.2 -64c-7.06543 0 -12.7998 5.73438 -12.7998 12.7998v76.7998c0 7.06641 5.73438 12.8008 12.7998 12.8008s12.7998 -5.73438 12.7998 -12.8008v-76.7998c0 -7.06543 -5.73438 -12.7998 -12.7998 -12.7998z
M89.5996 166.4h-76.7998c-7.06543 0 -12.7998 5.73438 -12.7998 12.7998s5.73438 12.7998 12.7998 12.7998h76.7998c7.06641 0 12.8008 -5.73438 12.8008 -12.7998s-5.73438 -12.7998 -12.8008 -12.7998zM473.6 166.4h-76.7998
c-7.06543 0 -12.7998 5.73438 -12.7998 12.7998s5.73438 12.7998 12.7998 12.7998h76.7998c7.06641 0 12.8008 -5.73438 12.8008 -12.7998s-5.73438 -12.7998 -12.8008 -12.7998zM115.2 294.4c-3.27734 0 -6.55371 1.25391 -9.0625 3.7373l-51.2002 51.2002
c-4.99219 4.99219 -4.99219 13.1064 0 18.0986s13.1074 4.99219 18.0996 0l51.1992 -51.2002c4.99219 -4.99121 4.99219 -13.1064 0 -18.0986c-2.50879 -2.50879 -5.78516 -3.7373 -9.06152 -3.7373h0.0253906zM64 -12.7998c-3.27637 0 -6.55371 1.25391 -9.0625 3.7373
c-4.99219 4.99219 -4.99219 13.1074 0 18.0996l51.2002 51.1992c4.99219 4.99219 13.1074 4.99219 18.0986 0c4.99219 -4.99121 4.99219 -13.1064 0 -18.0986l-51.1992 -51.2002c-2.50879 -2.50879 -5.78613 -3.7373 -9.0625 -3.7373h0.0253906zM422.4 -12.7998
c-3.27734 0 -6.55371 1.25391 -9.0625 3.7373l-51.2002 51.2002c-4.99219 4.99219 -4.99219 13.1074 0 18.0986c4.99219 4.99219 13.1074 4.99219 18.0986 0l51.2002 -51.1992c4.99219 -4.99219 4.99219 -13.1074 0 -18.0996
c-2.50879 -2.50879 -5.78516 -3.7373 -9.0625 -3.7373h0.0263672zM371.2 294.4c-3.27734 0 -6.55371 1.25391 -9.0625 3.7373c-4.99219 4.99219 -4.99219 13.1074 0 18.0986l51.2002 51.2002c4.99219 4.99219 13.1064 4.99219 18.0986 0s4.99219 -13.1064 0 -18.0986
l-51.2002 -51.2002c-2.50879 -2.50879 -5.78516 -3.7373 -9.06152 -3.7373h0.0253906z" />
    <glyph glyph-name="uniF167" unicode="&#xf167;" 
d="M262.4 -64c-70.0928 0 -135.987 27.29 -185.549 76.8516s-76.8516 115.456 -76.8516 185.549c0 57.625 18.5088 112 53.5039 157.261c16.7686 21.6826 36.8389 40.5752 59.6738 56.166c23.0146 15.7188 48.333 27.7246 75.2129 35.6348
c4.91504 1.45996 10.2139 -0.178711 13.4912 -4.12109c3.27637 -3.94238 3.86523 -9.44629 1.53613 -14.0029c-16.5127 -32.1797 -24.1924 -62.8486 -24.1924 -96.5635c0 -119.987 97.6133 -217.6 217.6 -217.6c33.7158 0 64.3848 7.67969 96.5635 24.1914
c4.55664 2.33008 10.0605 1.74121 14.0029 -1.53613c3.94238 -3.27637 5.55566 -8.5752 4.12207 -13.4912c-7.93652 -26.8799 -19.917 -52.1982 -35.6357 -75.2129c-15.5898 -22.835 -34.4824 -42.9053 -56.166 -59.6729
c-45.2607 -34.9951 -99.6611 -53.5039 -157.261 -53.5039zM168.192 413.056c-86.375 -36.9912 -142.593 -120.038 -142.593 -214.655c0 -130.561 106.24 -236.801 236.801 -236.801c94.6172 0 177.664 56.2432 214.655 142.593
c-26.2139 -9.80566 -52.6846 -14.5928 -80.2559 -14.5928c-64.9727 0 -126.028 25.293 -171.955 71.2197c-45.9268 45.9258 -71.2451 107.008 -71.2451 171.98c0 27.5713 4.81348 54.042 14.5928 80.2559z" />
    <glyph glyph-name="uniF13C" unicode="&#xf13c;" 
d="M294.4 243.2v0.0253906c-7.06641 0 -12.8008 5.73438 -12.8008 12.7998v102.4c0 7.06543 -5.73438 12.7998 -12.7998 12.7998h-193.639l98.3555 -42.1631c17.5361 -7.50098 31.2832 -28.3389 31.2832 -47.4365v-243.2h64c7.06543 0 12.7998 5.73438 12.7998 12.7998
v102.4c0 7.06543 5.73438 12.7998 12.8008 12.7998c7.06543 0 12.7998 -5.73438 12.7998 -12.7998v-102.4c0 -21.1709 -17.2285 -38.4004 -38.4004 -38.4004h-64v-38.3994c0 -11.085 -4.63379 -20.5059 -12.6719 -25.8047
c-4.42871 -2.91895 -9.62598 -4.40332 -15.0781 -4.40332c-4.42871 0 -9.0625 0.972656 -13.6191 2.91797l-132.147 56.6279c-17.5361 7.5 -31.2832 28.3389 -31.2832 47.4365v307.2c0 21.1709 17.2285 38.3994 38.4004 38.3994h230.399
c21.1719 0 38.4004 -17.2285 38.4004 -38.3994v-102.4c0 -7.06543 -5.73438 -12.7998 -12.7998 -12.7998zM163.431 305.511l-136.525 58.5215c-0.844727 -1.71582 -1.30566 -3.60938 -1.30566 -5.63184v-307.2c0 -8.98535 7.52637 -20.3779 15.7695 -23.9102
l132.147 -56.6279c2.45801 -1.04883 4.09668 -0.972656 4.53125 -0.69043c0.435547 0.28125 1.15234 1.76562 1.15234 4.42871v307.199c0 8.95996 -7.52637 20.3779 -15.7695 23.9111zM469.862 213.862l0.0253906 0.0253906c4.99219 -4.99121 4.99219 -13.1064 0 -18.0986
l-76.7998 -76.7998c-2.50879 -2.4834 -5.78516 -3.73828 -9.0625 -3.73828c-3.27637 0 -6.55371 1.22949 -9.0625 3.73828c-4.99121 4.99121 -4.99121 13.1064 0 18.0986l54.9375 54.9375h-161.101c-7.06543 0 -12.7998 5.73438 -12.7998 12.7998
c0 7.06641 5.73438 12.8008 12.7998 12.8008h161.101l-54.9375 54.9375c-4.99121 4.99219 -4.99121 13.1064 0 18.0986c4.99219 4.99219 13.1074 4.99219 18.0996 0z" />
    <glyph glyph-name="uniF113" unicode="&#xf113;" 
d="M473.6 396.8c21.1719 0 38.4004 -17.2285 38.4004 -38.3994v-358.4c0 -21.1709 -17.2285 -38.4004 -38.4004 -38.4004h-435.199c-21.1719 0 -38.4004 17.2295 -38.4004 38.4004v358.4c0 21.1709 17.2285 38.3994 38.4004 38.3994h64v12.7998
c0 7.06641 5.73438 12.8008 12.7998 12.8008s12.7998 -5.73438 12.7998 -12.8008v-12.7998h256v12.7998c0 7.06641 5.73438 12.8008 12.7998 12.8008s12.7998 -5.73438 12.7998 -12.8008v-12.7998h64zM38.4004 371.2c-7.06641 0 -12.8008 -5.73438 -12.8008 -12.7998v-64
h460.801v64c0 7.06543 -5.73438 12.7998 -12.8008 12.7998h-64v-38.4004c0 -7.06543 -5.73438 -12.7998 -12.7998 -12.7998s-12.7998 5.73438 -12.7998 12.7998v38.4004h-256v-38.4004c0 -7.06543 -5.73438 -12.7998 -12.7998 -12.7998s-12.7998 5.73438 -12.7998 12.7998
v38.4004h-64zM473.6 -12.7998c7.06641 0 12.8008 5.73438 12.8008 12.7998v268.8h-460.801v-268.8c0 -7.06543 5.73438 -12.7998 12.8008 -12.7998h435.199zM192 192h-25.5996c-7.06641 0 -12.8008 5.73438 -12.8008 12.7998s5.73438 12.7998 12.8008 12.7998h25.5996
c7.06543 0 12.7998 -5.73438 12.7998 -12.7998s-5.73438 -12.7998 -12.7998 -12.7998zM268.8 192h-25.5996c-7.06543 0 -12.7998 5.73438 -12.7998 12.7998s5.73438 12.7998 12.7998 12.7998h25.5996c7.06543 0 12.7998 -5.73438 12.7998 -12.7998
s-5.73438 -12.7998 -12.7998 -12.7998zM345.6 192h-25.5996c-7.06543 0 -12.7998 5.73438 -12.7998 12.7998s5.73438 12.7998 12.7998 12.7998h25.5996c7.06641 0 12.8008 -5.73438 12.8008 -12.7998s-5.73438 -12.7998 -12.8008 -12.7998zM422.4 192h-25.6006
c-7.06543 0 -12.7998 5.73438 -12.7998 12.7998s5.73438 12.7998 12.7998 12.7998h25.6006c7.06543 0 12.7998 -5.73438 12.7998 -12.7998s-5.73438 -12.7998 -12.7998 -12.7998zM115.2 140.8h-25.6006c-7.06543 0 -12.7998 5.73438 -12.7998 12.7998
c0 7.06641 5.73438 12.8008 12.7998 12.8008h25.6006c7.06543 0 12.7998 -5.73438 12.7998 -12.8008c0 -7.06543 -5.73438 -12.7998 -12.7998 -12.7998zM192 140.8h-25.5996c-7.06641 0 -12.8008 5.73438 -12.8008 12.7998c0 7.06641 5.73438 12.8008 12.8008 12.8008
h25.5996c7.06543 0 12.7998 -5.73438 12.7998 -12.8008c0 -7.06543 -5.73438 -12.7998 -12.7998 -12.7998zM268.8 140.8h-25.5996c-7.06543 0 -12.7998 5.73438 -12.7998 12.7998c0 7.06641 5.73438 12.8008 12.7998 12.8008h25.5996
c7.06543 0 12.7998 -5.73438 12.7998 -12.8008c0 -7.06543 -5.73438 -12.7998 -12.7998 -12.7998zM345.6 140.8h-25.5996c-7.06543 0 -12.7998 5.73438 -12.7998 12.7998c0 7.06641 5.73438 12.8008 12.7998 12.8008h25.5996c7.06641 0 12.8008 -5.73438 12.8008 -12.8008
c0 -7.06543 -5.73438 -12.7998 -12.8008 -12.7998zM422.4 140.8h-25.6006c-7.06543 0 -12.7998 5.73438 -12.7998 12.7998c0 7.06641 5.73438 12.8008 12.7998 12.8008h25.6006c7.06543 0 12.7998 -5.73438 12.7998 -12.8008
c0 -7.06543 -5.73438 -12.7998 -12.7998 -12.7998zM115.2 89.5996h-25.6006c-7.06543 0 -12.7998 5.73438 -12.7998 12.8008c0 7.06543 5.73438 12.7998 12.7998 12.7998h25.6006c7.06543 0 12.7998 -5.73438 12.7998 -12.7998
c0 -7.06641 -5.73438 -12.8008 -12.7998 -12.8008zM192 89.5996h-25.5996c-7.06641 0 -12.8008 5.73438 -12.8008 12.8008c0 7.06543 5.73438 12.7998 12.8008 12.7998h25.5996c7.06543 0 12.7998 -5.73438 12.7998 -12.7998
c0 -7.06641 -5.73438 -12.8008 -12.7998 -12.8008zM268.8 89.5996h-25.5996c-7.06543 0 -12.7998 5.73438 -12.7998 12.8008c0 7.06543 5.73438 12.7998 12.7998 12.7998h25.5996c7.06543 0 12.7998 -5.73438 12.7998 -12.7998
c0 -7.06641 -5.73438 -12.8008 -12.7998 -12.8008zM345.6 89.5996h-25.5996c-7.06543 0 -12.7998 5.73438 -12.7998 12.8008c0 7.06543 5.73438 12.7998 12.7998 12.7998h25.5996c7.06641 0 12.8008 -5.73438 12.8008 -12.7998
c0 -7.06641 -5.73438 -12.8008 -12.8008 -12.8008zM422.4 89.5996h-25.6006c-7.06543 0 -12.7998 5.73438 -12.7998 12.8008c0 7.06543 5.73438 12.7998 12.7998 12.7998h25.6006c7.06543 0 12.7998 -5.73438 12.7998 -12.7998
c0 -7.06641 -5.73438 -12.8008 -12.7998 -12.8008zM115.2 38.4004h-25.6006c-7.06543 0 -12.7998 5.73438 -12.7998 12.7998s5.73438 12.7998 12.7998 12.7998h25.6006c7.06543 0 12.7998 -5.73438 12.7998 -12.7998s-5.73438 -12.7998 -12.7998 -12.7998zM192 38.4004
h-25.5996c-7.06641 0 -12.8008 5.73438 -12.8008 12.7998s5.73438 12.7998 12.8008 12.7998h25.5996c7.06543 0 12.7998 -5.73438 12.7998 -12.7998s-5.73438 -12.7998 -12.7998 -12.7998zM268.8 38.4004h-25.5996c-7.06543 0 -12.7998 5.73438 -12.7998 12.7998
s5.73438 12.7998 12.7998 12.7998h25.5996c7.06543 0 12.7998 -5.73438 12.7998 -12.7998s-5.73438 -12.7998 -12.7998 -12.7998zM345.6 38.4004h-25.5996c-7.06543 0 -12.7998 5.73438 -12.7998 12.7998s5.73438 12.7998 12.7998 12.7998h25.5996
c7.06641 0 12.8008 -5.73438 12.8008 -12.7998s-5.73438 -12.7998 -12.8008 -12.7998zM422.4 38.4004h-25.6006c-7.06543 0 -12.7998 5.73438 -12.7998 12.7998s5.73438 12.7998 12.7998 12.7998h25.6006c7.06543 0 12.7998 -5.73438 12.7998 -12.7998
s-5.73438 -12.7998 -12.7998 -12.7998z" />
    <glyph glyph-name="uniF199" unicode="&#xf199;" 
d="M178.176 30.6436l0.0253906 0.0253906c2.76562 -6.50293 -0.229492 -14.0293 -6.73242 -16.8193c-1.63867 -0.716797 -3.35352 -1.0498 -5.04297 -1.0498c-4.9668 0 -9.70215 2.89258 -11.7764 7.75684l-29.5938 69.043h-70.8857l-29.5938 -69.043
c-2.79102 -6.50195 -10.3174 -9.52344 -16.8193 -6.73242c-6.50195 2.79004 -9.52344 10.3164 -6.73242 16.8193l32.8701 76.6973c0.0253906 0.0253906 0.0253906 0.0771484 0.0507812 0.102539l43.8789 102.399c2.02246 4.71094 6.65625 7.75684 11.7754 7.75684
c5.12012 0 9.75391 -3.0459 11.7764 -7.75684l43.8789 -102.399c0.0253906 -0.0253906 0.0253906 -0.0771484 0.0507812 -0.102539zM65.126 115.2h48.9473l-24.4736 57.1133zM511.027 30.5156h-0.0253906c2.71289 -6.52832 -0.358398 -14.0293 -6.88672 -16.7432
c-1.61328 -0.69043 -3.27637 -0.998047 -4.91504 -0.998047c-5.01758 0 -9.7793 2.96973 -11.8271 7.88477l-50.0479 120.115h-132.275l-50.0479 -120.115c-2.71387 -6.52832 -10.2148 -9.59961 -16.7432 -6.88672c-6.52734 2.71387 -9.59961 10.2148 -6.88574 16.7432
l53.3242 128c0.0263672 0.0253906 0.0263672 0.0761719 0.0517578 0.101562l74.624 179.098c1.99609 4.78711 6.65527 7.88477 11.8271 7.88477c5.1709 0 9.83008 -3.12305 11.8271 -7.88477l74.624 -179.098
c0.0253906 -0.0253906 0.0253906 -0.0761719 0.0507812 -0.101562zM315.725 166.4h0.0253906h110.925l-55.4746 133.119z" />
    <glyph glyph-name="uniF163" unicode="&#xf163;" 
d="M256 -64c-3.91699 0 -7.62891 1.79199 -10.0605 4.88965c-1.45898 1.86914 -36.3008 46.4385 -71.6035 112.256c-20.7871 38.7324 -37.376 76.7744 -49.2803 113.05c-15.0273 45.7471 -22.6299 88.8828 -22.6299 128.205c0 84.6846 68.915 153.6 153.6 153.6
s153.601 -68.915 153.601 -153.6c0 -39.3223 -7.62891 -82.4326 -22.6309 -128.205c-11.9043 -36.2754 -28.4932 -74.3174 -49.2803 -113.05c-35.3281 -65.8174 -70.1436 -110.387 -71.6025 -112.256c-2.43262 -3.09766 -6.14453 -4.88965 -10.0615 -4.88965h-0.0507812z
M256 422.4c-70.5791 0 -128 -57.4209 -128 -128c0 -83.3027 37.4531 -170.599 68.8896 -229.146c23.0908 -43.0342 46.3105 -77.1592 59.1104 -94.9766c12.8516 17.8945 36.2236 52.2236 59.3408 95.3857c31.3086 58.4443 68.6592 145.587 68.6592 228.736
c0 70.5791 -57.4209 128 -128 128zM256 217.6c-42.3428 0 -76.7998 34.458 -76.7998 76.8008c0 42.3418 34.457 76.7998 76.7998 76.7998s76.7998 -34.458 76.7998 -76.7998c0 -42.3428 -34.457 -76.8008 -76.7998 -76.8008zM256 345.6
c-28.2363 0 -51.2002 -22.9629 -51.2002 -51.1992c0 -28.2373 22.9639 -51.2002 51.2002 -51.2002s51.2002 22.9629 51.2002 51.2002c0 28.2363 -22.9639 51.1992 -51.2002 51.1992z" />
    <glyph glyph-name="uniF10B" unicode="&#xf10b;" 
d="M256 217.6h-64c-7.06543 0 -12.7998 5.73438 -12.7998 12.8008v76.7998c0 7.06543 5.73438 12.7998 12.7998 12.7998h64c28.2363 0 51.2002 -22.9629 51.2002 -51.2002c0 -28.2363 -22.9639 -51.2002 -51.2002 -51.2002zM204.8 243.2h51.2002
c14.1055 0 25.5996 11.4941 25.5996 25.5996s-11.4941 25.6006 -25.5996 25.6006h-51.2002v-51.2002zM281.6 64h-89.5996c-7.06543 0 -12.7998 5.73438 -12.7998 12.7998v76.7998c0 7.06641 5.73438 12.8008 12.7998 12.8008h89.5996
c28.2373 0 51.2002 -22.9639 51.2002 -51.2002c0 -28.2373 -22.9629 -51.2002 -51.2002 -51.2002zM204.8 89.5996h76.7998c14.1064 0 25.6006 11.4951 25.6006 25.6006s-11.4941 25.5996 -25.6006 25.5996h-76.7998v-51.2002zM281.6 -12.7998h-140.8
c-21.1709 0 -38.3994 17.2285 -38.3994 38.3994v332.801c0 21.1709 17.2285 38.3994 38.3994 38.3994h115.2c70.5791 0 128 -57.4209 128 -128c0 -21.0938 -5.1709 -41.6768 -15.0273 -60.1338c25.9326 -24.1924 40.627 -57.6768 40.627 -93.4658
c0 -70.5791 -57.4199 -128 -128 -128zM140.8 371.2c-7.06543 0 -12.7998 -5.73438 -12.7998 -12.7998v-332.801c0 -7.06543 5.73438 -12.7998 12.7998 -12.7998h140.8c56.4736 0 102.4 45.9268 102.4 102.4c0 31.667 -14.3613 61.0557 -39.3984 80.665
c-5.40137 4.22461 -6.47656 11.9297 -2.55957 17.46c10.7002 16.5371 16.3584 35.7119 16.3584 55.4746c0 56.4736 -45.9268 102.4 -102.4 102.4h-115.2z" />
    <glyph glyph-name="uniF188" unicode="&#xf188;" 
d="M226.662 73.0625h0.0517578c4.99219 -4.99219 4.99219 -13.1074 0 -18.0996l-102.4 -102.399c-2.50879 -2.4834 -5.78516 -3.73828 -9.0625 -3.73828c-3.27637 0 -6.55371 1.22949 -9.0625 3.73828l-102.399 102.399c-4.99219 4.99219 -4.99219 13.1074 0 18.0996
s13.1074 4.99219 18.0986 0l80.5381 -80.5381v442.701c0 7.06543 5.73438 12.7998 12.7998 12.7998s12.7998 -5.73438 12.7998 -12.7998v-442.701l80.5381 80.5381c4.99219 4.99219 13.1064 4.99219 18.0986 0zM345.6 320h-51.1992
c-7.06641 0 -12.8008 5.73438 -12.8008 12.7998v51.2002c0 7.06543 5.73438 12.7998 12.8008 12.7998h51.1992c7.06641 0 12.8008 -5.73438 12.8008 -12.7998v-51.2002c0 -7.06543 -5.73438 -12.7998 -12.8008 -12.7998zM307.2 345.6h25.5996v25.6006h-25.5996v-25.6006z
M396.8 217.6h-102.399c-7.06641 0 -12.8008 5.73438 -12.8008 12.8008v51.1992c0 7.06641 5.73438 12.8008 12.8008 12.8008h102.399c7.06543 0 12.7998 -5.73438 12.7998 -12.8008v-51.1992c0 -7.06641 -5.73438 -12.8008 -12.7998 -12.8008zM307.2 243.2h76.7998v25.5996
h-76.7998v-25.5996zM448 115.2h-153.6c-7.06641 0 -12.8008 5.73438 -12.8008 12.7998v51.2002c0 7.06543 5.73438 12.7998 12.8008 12.7998h153.6c7.06543 0 12.7998 -5.73438 12.7998 -12.7998v-51.2002c0 -7.06543 -5.73438 -12.7998 -12.7998 -12.7998zM307.2 140.8h128
v25.6006h-128v-25.6006zM499.2 12.7998h-204.8c-7.06641 0 -12.8008 5.73438 -12.8008 12.7998v51.2002c0 7.06543 5.73438 12.7998 12.8008 12.7998h204.8c7.06543 0 12.7998 -5.73438 12.7998 -12.7998v-51.2002c0 -7.06543 -5.73438 -12.7998 -12.7998 -12.7998z
M307.2 38.4004h179.2v25.5996h-179.2v-25.5996z" />
    <glyph glyph-name="uniF169" unicode="&#xf169;" horiz-adv-x="511" 
d="M475.417 419.431h-0.0253906c2.91895 -2.43262 4.6084 -6.04199 4.6084 -9.83105v-332.8c0 -18.7646 -13.1582 -35.6865 -37.0693 -47.6416c-21.0938 -10.5469 -48.8193 -16.3584 -78.1309 -16.3584c-29.3125 0 -57.0371 5.81152 -78.1309 16.3584
c-23.9111 11.9297 -37.0693 28.877 -37.0693 47.6416s13.1582 35.6865 37.0693 47.6416c21.0938 10.5479 48.8184 16.3584 78.1309 16.3584c29.3115 0 57.0371 -5.81055 78.1309 -16.3584c4.14746 -2.07324 7.9873 -4.30078 11.4688 -6.65625v213.248l-256 -47.2832v-258.15
c0 -18.7646 -13.1582 -35.6855 -37.0684 -47.6416c-21.0947 -10.5469 -48.8193 -16.3584 -78.1309 -16.3584c-29.3125 0 -57.0371 5.81152 -78.1318 16.3584c-23.9102 11.9297 -37.0684 28.877 -37.0684 47.6416c0 18.7656 13.1582 35.6865 37.0684 47.6416
c21.0947 10.5479 48.8193 16.3584 78.1318 16.3584c29.3115 0 57.0361 -5.81055 78.1309 -16.3584c4.14746 -2.07324 7.9873 -4.30078 11.4688 -6.65527v291.814c0 6.19434 4.42871 11.4941 10.5215 12.5947l281.601 51.2002
c3.7373 0.691406 7.57715 -0.333008 10.4951 -2.76465zM83.2256 -12.7998c51.2764 0 89.5996 20.2754 89.5996 38.3994c0 18.125 -38.3232 38.4004 -89.5996 38.4004c-51.2773 0 -89.6006 -20.2754 -89.6006 -38.4004c0 -18.124 38.3232 -38.3994 89.6006 -38.3994z
M198.426 309.785l256 47.2832v37.1973l-256 -46.541v-37.9395zM364.825 38.4004c51.2773 0 89.6006 20.2744 89.6006 38.3994s-38.3232 38.4004 -89.6006 38.4004c-51.2764 0 -89.5996 -20.2754 -89.5996 -38.4004s38.3232 -38.3994 89.5996 -38.3994z" />
    <glyph glyph-name="uniF182" unicode="&#xf182;" 
d="M448 396.8c21.1709 0 38.4004 -17.2285 38.4004 -38.3994v-256c0 -21.1719 -17.2295 -38.4004 -38.4004 -38.4004h-192v-51.2002h89.5996c7.06641 0 12.8008 -5.73438 12.8008 -12.7998s-5.73438 -12.7998 -12.8008 -12.7998h-204.8
c-7.06543 0 -12.7998 5.73438 -12.7998 12.7998s5.73438 12.7998 12.7998 12.7998h89.6006v51.2002h-192c-21.1719 0 -38.4004 17.2285 -38.4004 38.4004v256c0 21.1709 17.2285 38.3994 38.4004 38.3994h409.6zM460.8 102.4v256
c0 7.06543 -5.73438 12.7998 -12.7998 12.7998h-409.6c-7.06641 0 -12.8008 -5.73438 -12.8008 -12.7998v-256c0 -7.06641 5.73438 -12.8008 12.8008 -12.8008h409.6c7.06543 0 12.7998 5.73438 12.7998 12.8008z" />
    <glyph glyph-name="uniF141" unicode="&#xf141;" 
d="M192 64c-1.94531 0 -3.91699 0.435547 -5.73438 1.35645c-4.32617 2.17676 -7.06543 6.60547 -7.06543 11.4434v230.4c0 4.83789 2.73926 9.29297 7.06543 11.4434s9.52344 1.68945 13.4141 -1.20312l153.601 -115.2c3.22559 -2.40625 5.12012 -6.2207 5.12012 -10.2402
s-1.89453 -7.83398 -5.12012 -10.2402l-153.601 -115.2c-2.25293 -1.68945 -4.96582 -2.55957 -7.67969 -2.55957zM204.8 281.6v-179.199l119.476 89.5996zM499.2 396.8c7.06543 0 12.7998 -5.73438 12.7998 -12.7998v-384c0 -7.06543 -5.73438 -12.7998 -12.7998 -12.7998
h-486.4c-7.06543 0 -12.7998 5.73438 -12.7998 12.7998v384c0 7.06543 5.73438 12.7998 12.7998 12.7998h486.4zM76.7998 166.4v51.1992h-51.2002v-51.1992h51.2002zM76.7998 243.2v51.2002h-51.2002v-51.2002h51.2002zM25.5996 140.8v-51.2002h51.2002v51.2002h-51.2002z
M102.4 371.2v-358.4h307.199v358.4h-307.199zM435.2 217.6v-51.1992h51.2002v51.1992h-51.2002zM435.2 243.2h51.2002v51.2002h-51.2002v-51.2002zM435.2 140.8v-51.2002h51.2002v51.2002h-51.2002zM486.4 320v51.2002h-51.2002v-51.2002h51.2002zM76.7998 371.2h-51.2002
v-51.2002h51.2002v51.2002zM25.5996 64v-51.2002h51.2002v51.2002h-51.2002zM435.2 12.7998h51.2002v51.2002h-51.2002v-51.2002z" />
    </font>
</defs>
</svg>
